G04 #@! TF.GenerationSoftware,KiCad,Pcbnew,(5.1.5)-3*
G04 #@! TF.CreationDate,2021-03-24T18:55:27+09:00*
G04 #@! TF.ProjectId,DSub25TestPoint(2x4),44537562-3235-4546-9573-74506f696e74,rev?*
G04 #@! TF.SameCoordinates,Original*
G04 #@! TF.FileFunction,Copper,L2,Bot*
G04 #@! TF.FilePolarity,Positive*
%FSLAX46Y46*%
G04 Gerber Fmt 4.6, Leading zero omitted, Abs format (unit mm)*
G04 Created by KiCad (PCBNEW (5.1.5)-3) date 2021-03-24 18:55:27*
%MOMM*%
%LPD*%
G04 APERTURE LIST*
%ADD10C,2.000000*%
%ADD11R,3.480000X1.846667*%
%ADD12C,1.000000*%
G04 APERTURE END LIST*
D10*
X121000000Y-99000000D03*
X114000000Y-101000000D03*
X121000000Y-127000000D03*
X121000000Y-115000000D03*
X121000000Y-103000000D03*
X121000000Y-119000000D03*
X114000000Y-89000000D03*
X121000000Y-111000000D03*
X121000000Y-83000000D03*
X114000000Y-85000000D03*
X114000000Y-81000000D03*
X121000000Y-107000000D03*
X121000000Y-123000000D03*
X114000000Y-97000000D03*
X114000000Y-93000000D03*
X121000000Y-87000000D03*
X121000000Y-91000000D03*
X121000000Y-95000000D03*
X121000000Y-61000000D03*
X114000000Y-109000000D03*
X121000000Y-41000000D03*
X114000000Y-129000000D03*
X114000000Y-117000000D03*
X121000000Y-69000000D03*
D11*
X128000000Y-120235000D03*
X128000000Y-117465000D03*
X128000000Y-114695000D03*
X128000000Y-111925000D03*
X128000000Y-109155000D03*
X128000000Y-106385000D03*
X128000000Y-103615000D03*
X128000000Y-100845000D03*
X128000000Y-98075000D03*
X128000000Y-95305000D03*
X128000000Y-92535000D03*
X128000000Y-89765000D03*
D10*
X114000000Y-31000000D03*
D11*
X107000000Y-120235000D03*
X107000000Y-117465000D03*
X107000000Y-114695000D03*
X107000000Y-111925000D03*
X107000000Y-109155000D03*
X107000000Y-106385000D03*
X107000000Y-103615000D03*
X107000000Y-100845000D03*
X107000000Y-98075000D03*
X107000000Y-95305000D03*
X107000000Y-92535000D03*
X107000000Y-89765000D03*
D10*
X114000000Y-113000000D03*
X114000000Y-121000000D03*
X121000000Y-37000000D03*
X121000000Y-73000000D03*
X121000000Y-53000000D03*
X121000000Y-65000000D03*
X114000000Y-125000000D03*
X114000000Y-105000000D03*
X114000000Y-51000000D03*
X114000000Y-47000000D03*
D11*
X128000000Y-70235000D03*
X128000000Y-67465000D03*
X128000000Y-64695000D03*
X128000000Y-61925000D03*
X128000000Y-59155000D03*
X128000000Y-56385000D03*
X128000000Y-53615000D03*
X128000000Y-50845000D03*
X128000000Y-48075000D03*
X128000000Y-45305000D03*
X128000000Y-42535000D03*
X128000000Y-39765000D03*
D10*
X121000000Y-77000000D03*
X114000000Y-43000000D03*
X114000000Y-39000000D03*
X121000000Y-57000000D03*
D11*
X107000000Y-70235000D03*
X107000000Y-67465000D03*
X107000000Y-64695000D03*
X107000000Y-61925000D03*
X107000000Y-59155000D03*
X107000000Y-56385000D03*
X107000000Y-53615000D03*
X107000000Y-50845000D03*
X107000000Y-48075000D03*
X107000000Y-45305000D03*
X107000000Y-42535000D03*
X107000000Y-39765000D03*
D10*
X114000000Y-63000000D03*
X121000000Y-49000000D03*
X114000000Y-35000000D03*
X114000000Y-59000000D03*
X114000000Y-71000000D03*
X114000000Y-67000000D03*
X121000000Y-33000000D03*
X121000000Y-45000000D03*
X114000000Y-55000000D03*
X114000000Y-79000000D03*
X114000000Y-75000000D03*
X96000000Y-99000000D03*
X96000000Y-111000000D03*
X89000000Y-89000000D03*
X96000000Y-83000000D03*
X96000000Y-87000000D03*
X96000000Y-115000000D03*
X96000000Y-91000000D03*
X96000000Y-95000000D03*
X96000000Y-103000000D03*
X96000000Y-107000000D03*
X89000000Y-85000000D03*
X89000000Y-93000000D03*
X96000000Y-127000000D03*
X96000000Y-119000000D03*
X96000000Y-123000000D03*
X89000000Y-81000000D03*
X89000000Y-97000000D03*
X89000000Y-101000000D03*
D11*
X82000000Y-89765000D03*
X82000000Y-92535000D03*
X82000000Y-95305000D03*
X82000000Y-98075000D03*
X82000000Y-100845000D03*
X82000000Y-103615000D03*
X82000000Y-106385000D03*
X82000000Y-109155000D03*
X82000000Y-111925000D03*
X82000000Y-114695000D03*
X82000000Y-117465000D03*
X82000000Y-120235000D03*
D10*
X89000000Y-113000000D03*
X89000000Y-125000000D03*
X89000000Y-129000000D03*
X89000000Y-105000000D03*
X89000000Y-109000000D03*
X89000000Y-121000000D03*
X89000000Y-117000000D03*
D11*
X103000000Y-89765000D03*
X103000000Y-92535000D03*
X103000000Y-95305000D03*
X103000000Y-98075000D03*
X103000000Y-100845000D03*
X103000000Y-103615000D03*
X103000000Y-106385000D03*
X103000000Y-109155000D03*
X103000000Y-111925000D03*
X103000000Y-114695000D03*
X103000000Y-117465000D03*
X103000000Y-120235000D03*
D10*
X96000000Y-69000000D03*
X96000000Y-37000000D03*
X96000000Y-65000000D03*
X96000000Y-41000000D03*
X96000000Y-73000000D03*
X96000000Y-61000000D03*
X96000000Y-53000000D03*
X89000000Y-31000000D03*
X89000000Y-51000000D03*
X96000000Y-45000000D03*
X89000000Y-43000000D03*
X96000000Y-49000000D03*
X89000000Y-39000000D03*
X89000000Y-35000000D03*
X89000000Y-47000000D03*
X96000000Y-57000000D03*
X96000000Y-33000000D03*
X96000000Y-77000000D03*
X89000000Y-55000000D03*
D11*
X82000000Y-39765000D03*
X82000000Y-42535000D03*
X82000000Y-45305000D03*
X82000000Y-48075000D03*
X82000000Y-50845000D03*
X82000000Y-53615000D03*
X82000000Y-56385000D03*
X82000000Y-59155000D03*
X82000000Y-61925000D03*
X82000000Y-64695000D03*
X82000000Y-67465000D03*
X82000000Y-70235000D03*
D10*
X89000000Y-59000000D03*
X89000000Y-63000000D03*
X89000000Y-75000000D03*
X89000000Y-71000000D03*
X89000000Y-79000000D03*
D11*
X103000000Y-39765000D03*
X103000000Y-42535000D03*
X103000000Y-45305000D03*
X103000000Y-48075000D03*
X103000000Y-50845000D03*
X103000000Y-53615000D03*
X103000000Y-56385000D03*
X103000000Y-59155000D03*
X103000000Y-61925000D03*
X103000000Y-64695000D03*
X103000000Y-67465000D03*
X103000000Y-70235000D03*
D10*
X89000000Y-67000000D03*
X71000000Y-99000000D03*
X71000000Y-111000000D03*
X64000000Y-89000000D03*
X71000000Y-83000000D03*
X71000000Y-87000000D03*
X71000000Y-115000000D03*
X71000000Y-91000000D03*
X71000000Y-95000000D03*
X71000000Y-103000000D03*
X71000000Y-107000000D03*
X64000000Y-85000000D03*
X64000000Y-93000000D03*
X71000000Y-127000000D03*
X71000000Y-119000000D03*
X71000000Y-123000000D03*
X64000000Y-81000000D03*
X64000000Y-97000000D03*
X64000000Y-101000000D03*
D11*
X57000000Y-89765000D03*
X57000000Y-92535000D03*
X57000000Y-95305000D03*
X57000000Y-98075000D03*
X57000000Y-100845000D03*
X57000000Y-103615000D03*
X57000000Y-106385000D03*
X57000000Y-109155000D03*
X57000000Y-111925000D03*
X57000000Y-114695000D03*
X57000000Y-117465000D03*
X57000000Y-120235000D03*
D10*
X64000000Y-113000000D03*
X64000000Y-125000000D03*
X64000000Y-129000000D03*
X64000000Y-105000000D03*
X64000000Y-109000000D03*
X64000000Y-121000000D03*
X64000000Y-117000000D03*
D11*
X78000000Y-89765000D03*
X78000000Y-92535000D03*
X78000000Y-95305000D03*
X78000000Y-98075000D03*
X78000000Y-100845000D03*
X78000000Y-103615000D03*
X78000000Y-106385000D03*
X78000000Y-109155000D03*
X78000000Y-111925000D03*
X78000000Y-114695000D03*
X78000000Y-117465000D03*
X78000000Y-120235000D03*
D10*
X71000000Y-69000000D03*
X71000000Y-37000000D03*
X71000000Y-65000000D03*
X71000000Y-41000000D03*
X71000000Y-73000000D03*
X71000000Y-61000000D03*
X71000000Y-53000000D03*
X64000000Y-31000000D03*
X64000000Y-51000000D03*
X71000000Y-45000000D03*
X64000000Y-43000000D03*
X71000000Y-49000000D03*
X64000000Y-39000000D03*
X64000000Y-35000000D03*
X64000000Y-47000000D03*
X71000000Y-57000000D03*
X71000000Y-33000000D03*
X71000000Y-77000000D03*
X64000000Y-55000000D03*
D11*
X57000000Y-39765000D03*
X57000000Y-42535000D03*
X57000000Y-45305000D03*
X57000000Y-48075000D03*
X57000000Y-50845000D03*
X57000000Y-53615000D03*
X57000000Y-56385000D03*
X57000000Y-59155000D03*
X57000000Y-61925000D03*
X57000000Y-64695000D03*
X57000000Y-67465000D03*
X57000000Y-70235000D03*
D10*
X64000000Y-59000000D03*
X64000000Y-63000000D03*
X64000000Y-75000000D03*
X64000000Y-71000000D03*
X64000000Y-79000000D03*
D11*
X78000000Y-39765000D03*
X78000000Y-42535000D03*
X78000000Y-45305000D03*
X78000000Y-48075000D03*
X78000000Y-50845000D03*
X78000000Y-53615000D03*
X78000000Y-56385000D03*
X78000000Y-59155000D03*
X78000000Y-61925000D03*
X78000000Y-64695000D03*
X78000000Y-67465000D03*
X78000000Y-70235000D03*
D10*
X64000000Y-67000000D03*
D11*
X32000000Y-70235000D03*
X32000000Y-67465000D03*
X32000000Y-64695000D03*
X32000000Y-61925000D03*
X32000000Y-59155000D03*
X32000000Y-56385000D03*
X32000000Y-53615000D03*
X32000000Y-50845000D03*
X32000000Y-48075000D03*
X32000000Y-45305000D03*
X32000000Y-42535000D03*
X32000000Y-39765000D03*
X53000000Y-70235000D03*
X53000000Y-67465000D03*
X53000000Y-64695000D03*
X53000000Y-61925000D03*
X53000000Y-59155000D03*
X53000000Y-56385000D03*
X53000000Y-53615000D03*
X53000000Y-50845000D03*
X53000000Y-48075000D03*
X53000000Y-45305000D03*
X53000000Y-42535000D03*
X53000000Y-39765000D03*
D10*
X39000000Y-79000000D03*
X39000000Y-75000000D03*
X39000000Y-71000000D03*
X39000000Y-67000000D03*
X39000000Y-63000000D03*
X39000000Y-59000000D03*
X39000000Y-55000000D03*
X39000000Y-51000000D03*
X39000000Y-47000000D03*
X39000000Y-43000000D03*
X39000000Y-39000000D03*
X39000000Y-35000000D03*
X39000000Y-31000000D03*
X46000000Y-77000000D03*
X46000000Y-73000000D03*
X46000000Y-69000000D03*
X46000000Y-65000000D03*
X46000000Y-61000000D03*
X46000000Y-57000000D03*
X46000000Y-53000000D03*
X46000000Y-49000000D03*
X46000000Y-45000000D03*
X46000000Y-41000000D03*
X46000000Y-37000000D03*
X46000000Y-33000000D03*
D11*
X32000000Y-120235000D03*
X32000000Y-117465000D03*
X32000000Y-114695000D03*
X32000000Y-111925000D03*
X32000000Y-109155000D03*
X32000000Y-106385000D03*
X32000000Y-103615000D03*
X32000000Y-100845000D03*
X32000000Y-98075000D03*
X32000000Y-95305000D03*
X32000000Y-92535000D03*
X32000000Y-89765000D03*
X53000000Y-120235000D03*
X53000000Y-117465000D03*
X53000000Y-114695000D03*
X53000000Y-111925000D03*
X53000000Y-109155000D03*
X53000000Y-106385000D03*
X53000000Y-103615000D03*
X53000000Y-100845000D03*
X53000000Y-98075000D03*
X53000000Y-95305000D03*
X53000000Y-92535000D03*
X53000000Y-89765000D03*
D10*
X39000000Y-129000000D03*
X39000000Y-125000000D03*
X39000000Y-121000000D03*
X39000000Y-117000000D03*
X39000000Y-113000000D03*
X39000000Y-109000000D03*
X39000000Y-105000000D03*
X39000000Y-101000000D03*
X39000000Y-97000000D03*
X39000000Y-93000000D03*
X39000000Y-89000000D03*
X39000000Y-85000000D03*
X39000000Y-81000000D03*
X46000000Y-127000000D03*
X46000000Y-123000000D03*
X46000000Y-119000000D03*
X46000000Y-115000000D03*
X46000000Y-111000000D03*
X46000000Y-107000000D03*
X46000000Y-103000000D03*
X46000000Y-99000000D03*
X46000000Y-95000000D03*
X46000000Y-91000000D03*
X46000000Y-87000000D03*
X46000000Y-83000000D03*
D12*
X47414213Y-77000000D02*
X46000000Y-77000000D01*
X48158333Y-77000000D02*
X47414213Y-77000000D01*
X53000000Y-72158333D02*
X48158333Y-77000000D01*
X53000000Y-70235000D02*
X53000000Y-72158333D01*
X44585787Y-77000000D02*
X46000000Y-77000000D01*
X36841667Y-77000000D02*
X44585787Y-77000000D01*
X32000000Y-72158333D02*
X36841667Y-77000000D01*
X32000000Y-70235000D02*
X32000000Y-72158333D01*
X47414213Y-127000000D02*
X46000000Y-127000000D01*
X48158333Y-127000000D02*
X47414213Y-127000000D01*
X53000000Y-122158333D02*
X48158333Y-127000000D01*
X53000000Y-120235000D02*
X53000000Y-122158333D01*
X44585787Y-127000000D02*
X46000000Y-127000000D01*
X36841667Y-127000000D02*
X44585787Y-127000000D01*
X32000000Y-122158333D02*
X36841667Y-127000000D01*
X32000000Y-120235000D02*
X32000000Y-122158333D01*
X73158333Y-77000000D02*
X72414213Y-77000000D01*
X69585787Y-77000000D02*
X71000000Y-77000000D01*
X78000000Y-70235000D02*
X78000000Y-72158333D01*
X78000000Y-72158333D02*
X73158333Y-77000000D01*
X61841667Y-77000000D02*
X69585787Y-77000000D01*
X72414213Y-77000000D02*
X71000000Y-77000000D01*
X57000000Y-72158333D02*
X61841667Y-77000000D01*
X57000000Y-70235000D02*
X57000000Y-72158333D01*
X78000000Y-122158333D02*
X73158333Y-127000000D01*
X69585787Y-127000000D02*
X71000000Y-127000000D01*
X57000000Y-120235000D02*
X57000000Y-122158333D01*
X72414213Y-127000000D02*
X71000000Y-127000000D01*
X61841667Y-127000000D02*
X69585787Y-127000000D01*
X73158333Y-127000000D02*
X72414213Y-127000000D01*
X57000000Y-122158333D02*
X61841667Y-127000000D01*
X78000000Y-120235000D02*
X78000000Y-122158333D01*
X98158333Y-77000000D02*
X97414213Y-77000000D01*
X94585787Y-77000000D02*
X96000000Y-77000000D01*
X103000000Y-70235000D02*
X103000000Y-72158333D01*
X103000000Y-72158333D02*
X98158333Y-77000000D01*
X86841667Y-77000000D02*
X94585787Y-77000000D01*
X97414213Y-77000000D02*
X96000000Y-77000000D01*
X82000000Y-72158333D02*
X86841667Y-77000000D01*
X82000000Y-70235000D02*
X82000000Y-72158333D01*
X103000000Y-122158333D02*
X98158333Y-127000000D01*
X94585787Y-127000000D02*
X96000000Y-127000000D01*
X82000000Y-120235000D02*
X82000000Y-122158333D01*
X97414213Y-127000000D02*
X96000000Y-127000000D01*
X86841667Y-127000000D02*
X94585787Y-127000000D01*
X98158333Y-127000000D02*
X97414213Y-127000000D01*
X82000000Y-122158333D02*
X86841667Y-127000000D01*
X103000000Y-120235000D02*
X103000000Y-122158333D01*
X119585787Y-77000000D02*
X121000000Y-77000000D01*
X128000000Y-72158333D02*
X123158333Y-77000000D01*
X123158333Y-77000000D02*
X122414213Y-77000000D01*
X128000000Y-70235000D02*
X128000000Y-72158333D01*
X111841667Y-77000000D02*
X119585787Y-77000000D01*
X122414213Y-77000000D02*
X121000000Y-77000000D01*
X107000000Y-72158333D02*
X111841667Y-77000000D01*
X107000000Y-70235000D02*
X107000000Y-72158333D01*
X119585787Y-127000000D02*
X121000000Y-127000000D01*
X123158333Y-127000000D02*
X122414213Y-127000000D01*
X128000000Y-122158333D02*
X123158333Y-127000000D01*
X107000000Y-120235000D02*
X107000000Y-122158333D01*
X107000000Y-122158333D02*
X111841667Y-127000000D01*
X122414213Y-127000000D02*
X121000000Y-127000000D01*
X111841667Y-127000000D02*
X119585787Y-127000000D01*
X128000000Y-120235000D02*
X128000000Y-122158333D01*
X44585787Y-73000000D02*
X46000000Y-73000000D01*
X38483998Y-73000000D02*
X44585787Y-73000000D01*
X32948998Y-67465000D02*
X38483998Y-73000000D01*
X32000000Y-67465000D02*
X32948998Y-67465000D01*
X46000000Y-71725000D02*
X46000000Y-73000000D01*
X50260000Y-67465000D02*
X46000000Y-71725000D01*
X53000000Y-67465000D02*
X50260000Y-67465000D01*
X44585787Y-123000000D02*
X46000000Y-123000000D01*
X38483998Y-123000000D02*
X44585787Y-123000000D01*
X32948998Y-117465000D02*
X38483998Y-123000000D01*
X32000000Y-117465000D02*
X32948998Y-117465000D01*
X46000000Y-121725000D02*
X46000000Y-123000000D01*
X50260000Y-117465000D02*
X46000000Y-121725000D01*
X53000000Y-117465000D02*
X50260000Y-117465000D01*
X69585787Y-73000000D02*
X71000000Y-73000000D01*
X71000000Y-71725000D02*
X71000000Y-73000000D01*
X75260000Y-67465000D02*
X71000000Y-71725000D01*
X63483998Y-73000000D02*
X69585787Y-73000000D01*
X57000000Y-67465000D02*
X57948998Y-67465000D01*
X78000000Y-67465000D02*
X75260000Y-67465000D01*
X57948998Y-67465000D02*
X63483998Y-73000000D01*
X69585787Y-123000000D02*
X71000000Y-123000000D01*
X63483998Y-123000000D02*
X69585787Y-123000000D01*
X57000000Y-117465000D02*
X57948998Y-117465000D01*
X71000000Y-121725000D02*
X71000000Y-123000000D01*
X75260000Y-117465000D02*
X71000000Y-121725000D01*
X57948998Y-117465000D02*
X63483998Y-123000000D01*
X78000000Y-117465000D02*
X75260000Y-117465000D01*
X94585787Y-73000000D02*
X96000000Y-73000000D01*
X96000000Y-71725000D02*
X96000000Y-73000000D01*
X100260000Y-67465000D02*
X96000000Y-71725000D01*
X88483998Y-73000000D02*
X94585787Y-73000000D01*
X82000000Y-67465000D02*
X82948998Y-67465000D01*
X103000000Y-67465000D02*
X100260000Y-67465000D01*
X82948998Y-67465000D02*
X88483998Y-73000000D01*
X94585787Y-123000000D02*
X96000000Y-123000000D01*
X88483998Y-123000000D02*
X94585787Y-123000000D01*
X82000000Y-117465000D02*
X82948998Y-117465000D01*
X96000000Y-121725000D02*
X96000000Y-123000000D01*
X100260000Y-117465000D02*
X96000000Y-121725000D01*
X82948998Y-117465000D02*
X88483998Y-123000000D01*
X103000000Y-117465000D02*
X100260000Y-117465000D01*
X119585787Y-73000000D02*
X121000000Y-73000000D01*
X121000000Y-71725000D02*
X121000000Y-73000000D01*
X128000000Y-67465000D02*
X125260000Y-67465000D01*
X125260000Y-67465000D02*
X121000000Y-71725000D01*
X107000000Y-67465000D02*
X107948998Y-67465000D01*
X113483998Y-73000000D02*
X119585787Y-73000000D01*
X107948998Y-67465000D02*
X113483998Y-73000000D01*
X119585787Y-123000000D02*
X121000000Y-123000000D01*
X113483998Y-123000000D02*
X119585787Y-123000000D01*
X107948998Y-117465000D02*
X113483998Y-123000000D01*
X107000000Y-117465000D02*
X107948998Y-117465000D01*
X121000000Y-121725000D02*
X121000000Y-123000000D01*
X125260000Y-117465000D02*
X121000000Y-121725000D01*
X128000000Y-117465000D02*
X125260000Y-117465000D01*
X50305000Y-64695000D02*
X46000000Y-69000000D01*
X53000000Y-64695000D02*
X50305000Y-64695000D01*
X38483998Y-69000000D02*
X44585787Y-69000000D01*
X34178998Y-64695000D02*
X38483998Y-69000000D01*
X44585787Y-69000000D02*
X46000000Y-69000000D01*
X32000000Y-64695000D02*
X34178998Y-64695000D01*
X50305000Y-114695000D02*
X46000000Y-119000000D01*
X53000000Y-114695000D02*
X50305000Y-114695000D01*
X38483998Y-119000000D02*
X44585787Y-119000000D01*
X34178998Y-114695000D02*
X38483998Y-119000000D01*
X44585787Y-119000000D02*
X46000000Y-119000000D01*
X32000000Y-114695000D02*
X34178998Y-114695000D01*
X57000000Y-64695000D02*
X59178998Y-64695000D01*
X78000000Y-64695000D02*
X75305000Y-64695000D01*
X69585787Y-69000000D02*
X71000000Y-69000000D01*
X63483998Y-69000000D02*
X69585787Y-69000000D01*
X75305000Y-64695000D02*
X71000000Y-69000000D01*
X59178998Y-64695000D02*
X63483998Y-69000000D01*
X63483998Y-119000000D02*
X69585787Y-119000000D01*
X75305000Y-114695000D02*
X71000000Y-119000000D01*
X69585787Y-119000000D02*
X71000000Y-119000000D01*
X78000000Y-114695000D02*
X75305000Y-114695000D01*
X59178998Y-114695000D02*
X63483998Y-119000000D01*
X57000000Y-114695000D02*
X59178998Y-114695000D01*
X82000000Y-64695000D02*
X84178998Y-64695000D01*
X103000000Y-64695000D02*
X100305000Y-64695000D01*
X94585787Y-69000000D02*
X96000000Y-69000000D01*
X88483998Y-69000000D02*
X94585787Y-69000000D01*
X100305000Y-64695000D02*
X96000000Y-69000000D01*
X84178998Y-64695000D02*
X88483998Y-69000000D01*
X88483998Y-119000000D02*
X94585787Y-119000000D01*
X100305000Y-114695000D02*
X96000000Y-119000000D01*
X94585787Y-119000000D02*
X96000000Y-119000000D01*
X103000000Y-114695000D02*
X100305000Y-114695000D01*
X84178998Y-114695000D02*
X88483998Y-119000000D01*
X82000000Y-114695000D02*
X84178998Y-114695000D01*
X107000000Y-64695000D02*
X109178998Y-64695000D01*
X119585787Y-69000000D02*
X121000000Y-69000000D01*
X113483998Y-69000000D02*
X119585787Y-69000000D01*
X128000000Y-64695000D02*
X125305000Y-64695000D01*
X109178998Y-64695000D02*
X113483998Y-69000000D01*
X125305000Y-64695000D02*
X121000000Y-69000000D01*
X107000000Y-114695000D02*
X109178998Y-114695000D01*
X125305000Y-114695000D02*
X121000000Y-119000000D01*
X128000000Y-114695000D02*
X125305000Y-114695000D01*
X119585787Y-119000000D02*
X121000000Y-119000000D01*
X109178998Y-114695000D02*
X113483998Y-119000000D01*
X113483998Y-119000000D02*
X119585787Y-119000000D01*
X44585787Y-65000000D02*
X46000000Y-65000000D01*
X38483998Y-65000000D02*
X44585787Y-65000000D01*
X35408998Y-61925000D02*
X38483998Y-65000000D01*
X32000000Y-61925000D02*
X35408998Y-61925000D01*
X49075000Y-61925000D02*
X46000000Y-65000000D01*
X53000000Y-61925000D02*
X49075000Y-61925000D01*
X44585787Y-115000000D02*
X46000000Y-115000000D01*
X38483998Y-115000000D02*
X44585787Y-115000000D01*
X35408998Y-111925000D02*
X38483998Y-115000000D01*
X32000000Y-111925000D02*
X35408998Y-111925000D01*
X49075000Y-111925000D02*
X46000000Y-115000000D01*
X53000000Y-111925000D02*
X49075000Y-111925000D01*
X63483998Y-65000000D02*
X69585787Y-65000000D01*
X69585787Y-65000000D02*
X71000000Y-65000000D01*
X78000000Y-61925000D02*
X74075000Y-61925000D01*
X60408998Y-61925000D02*
X63483998Y-65000000D01*
X57000000Y-61925000D02*
X60408998Y-61925000D01*
X74075000Y-61925000D02*
X71000000Y-65000000D01*
X63483998Y-115000000D02*
X69585787Y-115000000D01*
X60408998Y-111925000D02*
X63483998Y-115000000D01*
X78000000Y-111925000D02*
X74075000Y-111925000D01*
X57000000Y-111925000D02*
X60408998Y-111925000D01*
X69585787Y-115000000D02*
X71000000Y-115000000D01*
X74075000Y-111925000D02*
X71000000Y-115000000D01*
X88483998Y-65000000D02*
X94585787Y-65000000D01*
X94585787Y-65000000D02*
X96000000Y-65000000D01*
X103000000Y-61925000D02*
X99075000Y-61925000D01*
X85408998Y-61925000D02*
X88483998Y-65000000D01*
X82000000Y-61925000D02*
X85408998Y-61925000D01*
X99075000Y-61925000D02*
X96000000Y-65000000D01*
X88483998Y-115000000D02*
X94585787Y-115000000D01*
X85408998Y-111925000D02*
X88483998Y-115000000D01*
X103000000Y-111925000D02*
X99075000Y-111925000D01*
X82000000Y-111925000D02*
X85408998Y-111925000D01*
X94585787Y-115000000D02*
X96000000Y-115000000D01*
X99075000Y-111925000D02*
X96000000Y-115000000D01*
X113483998Y-65000000D02*
X119585787Y-65000000D01*
X119585787Y-65000000D02*
X121000000Y-65000000D01*
X128000000Y-61925000D02*
X124075000Y-61925000D01*
X107000000Y-61925000D02*
X110408998Y-61925000D01*
X110408998Y-61925000D02*
X113483998Y-65000000D01*
X124075000Y-61925000D02*
X121000000Y-65000000D01*
X113483998Y-115000000D02*
X119585787Y-115000000D01*
X107000000Y-111925000D02*
X110408998Y-111925000D01*
X124075000Y-111925000D02*
X121000000Y-115000000D01*
X128000000Y-111925000D02*
X124075000Y-111925000D01*
X110408998Y-111925000D02*
X113483998Y-115000000D01*
X119585787Y-115000000D02*
X121000000Y-115000000D01*
X47845000Y-59155000D02*
X46000000Y-61000000D01*
X53000000Y-59155000D02*
X47845000Y-59155000D01*
X44585787Y-61000000D02*
X46000000Y-61000000D01*
X38483998Y-61000000D02*
X44585787Y-61000000D01*
X36638998Y-59155000D02*
X38483998Y-61000000D01*
X32000000Y-59155000D02*
X36638998Y-59155000D01*
X47845000Y-109155000D02*
X46000000Y-111000000D01*
X53000000Y-109155000D02*
X47845000Y-109155000D01*
X44585787Y-111000000D02*
X46000000Y-111000000D01*
X38483998Y-111000000D02*
X44585787Y-111000000D01*
X36638998Y-109155000D02*
X38483998Y-111000000D01*
X32000000Y-109155000D02*
X36638998Y-109155000D01*
X69585787Y-61000000D02*
X71000000Y-61000000D01*
X78000000Y-59155000D02*
X72845000Y-59155000D01*
X63483998Y-61000000D02*
X69585787Y-61000000D01*
X72845000Y-59155000D02*
X71000000Y-61000000D01*
X57000000Y-59155000D02*
X61638998Y-59155000D01*
X61638998Y-59155000D02*
X63483998Y-61000000D01*
X72845000Y-109155000D02*
X71000000Y-111000000D01*
X78000000Y-109155000D02*
X72845000Y-109155000D01*
X61638998Y-109155000D02*
X63483998Y-111000000D01*
X63483998Y-111000000D02*
X69585787Y-111000000D01*
X69585787Y-111000000D02*
X71000000Y-111000000D01*
X57000000Y-109155000D02*
X61638998Y-109155000D01*
X94585787Y-61000000D02*
X96000000Y-61000000D01*
X103000000Y-59155000D02*
X97845000Y-59155000D01*
X88483998Y-61000000D02*
X94585787Y-61000000D01*
X97845000Y-59155000D02*
X96000000Y-61000000D01*
X82000000Y-59155000D02*
X86638998Y-59155000D01*
X86638998Y-59155000D02*
X88483998Y-61000000D01*
X97845000Y-109155000D02*
X96000000Y-111000000D01*
X103000000Y-109155000D02*
X97845000Y-109155000D01*
X86638998Y-109155000D02*
X88483998Y-111000000D01*
X88483998Y-111000000D02*
X94585787Y-111000000D01*
X94585787Y-111000000D02*
X96000000Y-111000000D01*
X82000000Y-109155000D02*
X86638998Y-109155000D01*
X128000000Y-59155000D02*
X122845000Y-59155000D01*
X119585787Y-61000000D02*
X121000000Y-61000000D01*
X122845000Y-59155000D02*
X121000000Y-61000000D01*
X113483998Y-61000000D02*
X119585787Y-61000000D01*
X107000000Y-59155000D02*
X111638998Y-59155000D01*
X111638998Y-59155000D02*
X113483998Y-61000000D01*
X113483998Y-111000000D02*
X119585787Y-111000000D01*
X107000000Y-109155000D02*
X111638998Y-109155000D01*
X128000000Y-109155000D02*
X122845000Y-109155000D01*
X111638998Y-109155000D02*
X113483998Y-111000000D01*
X119585787Y-111000000D02*
X121000000Y-111000000D01*
X122845000Y-109155000D02*
X121000000Y-111000000D01*
X46615000Y-56385000D02*
X46000000Y-57000000D01*
X53000000Y-56385000D02*
X46615000Y-56385000D01*
X35355000Y-57000000D02*
X44585787Y-57000000D01*
X44585787Y-57000000D02*
X46000000Y-57000000D01*
X34740000Y-56385000D02*
X35355000Y-57000000D01*
X32000000Y-56385000D02*
X34740000Y-56385000D01*
X46615000Y-106385000D02*
X46000000Y-107000000D01*
X53000000Y-106385000D02*
X46615000Y-106385000D01*
X35355000Y-107000000D02*
X44585787Y-107000000D01*
X44585787Y-107000000D02*
X46000000Y-107000000D01*
X34740000Y-106385000D02*
X35355000Y-107000000D01*
X32000000Y-106385000D02*
X34740000Y-106385000D01*
X71615000Y-56385000D02*
X71000000Y-57000000D01*
X78000000Y-56385000D02*
X71615000Y-56385000D01*
X60355000Y-57000000D02*
X69585787Y-57000000D01*
X69585787Y-57000000D02*
X71000000Y-57000000D01*
X59740000Y-56385000D02*
X60355000Y-57000000D01*
X57000000Y-56385000D02*
X59740000Y-56385000D01*
X71615000Y-106385000D02*
X71000000Y-107000000D01*
X60355000Y-107000000D02*
X69585787Y-107000000D01*
X69585787Y-107000000D02*
X71000000Y-107000000D01*
X78000000Y-106385000D02*
X71615000Y-106385000D01*
X59740000Y-106385000D02*
X60355000Y-107000000D01*
X57000000Y-106385000D02*
X59740000Y-106385000D01*
X96615000Y-56385000D02*
X96000000Y-57000000D01*
X103000000Y-56385000D02*
X96615000Y-56385000D01*
X85355000Y-57000000D02*
X94585787Y-57000000D01*
X94585787Y-57000000D02*
X96000000Y-57000000D01*
X84740000Y-56385000D02*
X85355000Y-57000000D01*
X82000000Y-56385000D02*
X84740000Y-56385000D01*
X96615000Y-106385000D02*
X96000000Y-107000000D01*
X85355000Y-107000000D02*
X94585787Y-107000000D01*
X94585787Y-107000000D02*
X96000000Y-107000000D01*
X103000000Y-106385000D02*
X96615000Y-106385000D01*
X84740000Y-106385000D02*
X85355000Y-107000000D01*
X82000000Y-106385000D02*
X84740000Y-106385000D01*
X121615000Y-56385000D02*
X121000000Y-57000000D01*
X109740000Y-56385000D02*
X110355000Y-57000000D01*
X128000000Y-56385000D02*
X121615000Y-56385000D01*
X119585787Y-57000000D02*
X121000000Y-57000000D01*
X110355000Y-57000000D02*
X119585787Y-57000000D01*
X107000000Y-56385000D02*
X109740000Y-56385000D01*
X109740000Y-106385000D02*
X110355000Y-107000000D01*
X128000000Y-106385000D02*
X121615000Y-106385000D01*
X119585787Y-107000000D02*
X121000000Y-107000000D01*
X110355000Y-107000000D02*
X119585787Y-107000000D01*
X107000000Y-106385000D02*
X109740000Y-106385000D01*
X121615000Y-106385000D02*
X121000000Y-107000000D01*
X46615000Y-53615000D02*
X46000000Y-53000000D01*
X53000000Y-53615000D02*
X46615000Y-53615000D01*
X44585787Y-53000000D02*
X46000000Y-53000000D01*
X35355000Y-53000000D02*
X44585787Y-53000000D01*
X34740000Y-53615000D02*
X35355000Y-53000000D01*
X32000000Y-53615000D02*
X34740000Y-53615000D01*
X46615000Y-103615000D02*
X46000000Y-103000000D01*
X53000000Y-103615000D02*
X46615000Y-103615000D01*
X44585787Y-103000000D02*
X46000000Y-103000000D01*
X35355000Y-103000000D02*
X44585787Y-103000000D01*
X34740000Y-103615000D02*
X35355000Y-103000000D01*
X32000000Y-103615000D02*
X34740000Y-103615000D01*
X71615000Y-53615000D02*
X71000000Y-53000000D01*
X60355000Y-53000000D02*
X69585787Y-53000000D01*
X78000000Y-53615000D02*
X71615000Y-53615000D01*
X69585787Y-53000000D02*
X71000000Y-53000000D01*
X59740000Y-53615000D02*
X60355000Y-53000000D01*
X57000000Y-53615000D02*
X59740000Y-53615000D01*
X78000000Y-103615000D02*
X71615000Y-103615000D01*
X71615000Y-103615000D02*
X71000000Y-103000000D01*
X60355000Y-103000000D02*
X69585787Y-103000000D01*
X57000000Y-103615000D02*
X59740000Y-103615000D01*
X69585787Y-103000000D02*
X71000000Y-103000000D01*
X59740000Y-103615000D02*
X60355000Y-103000000D01*
X96615000Y-53615000D02*
X96000000Y-53000000D01*
X85355000Y-53000000D02*
X94585787Y-53000000D01*
X103000000Y-53615000D02*
X96615000Y-53615000D01*
X94585787Y-53000000D02*
X96000000Y-53000000D01*
X84740000Y-53615000D02*
X85355000Y-53000000D01*
X82000000Y-53615000D02*
X84740000Y-53615000D01*
X103000000Y-103615000D02*
X96615000Y-103615000D01*
X96615000Y-103615000D02*
X96000000Y-103000000D01*
X85355000Y-103000000D02*
X94585787Y-103000000D01*
X82000000Y-103615000D02*
X84740000Y-103615000D01*
X94585787Y-103000000D02*
X96000000Y-103000000D01*
X84740000Y-103615000D02*
X85355000Y-103000000D01*
X121615000Y-53615000D02*
X121000000Y-53000000D01*
X110355000Y-53000000D02*
X119585787Y-53000000D01*
X107000000Y-53615000D02*
X109740000Y-53615000D01*
X128000000Y-53615000D02*
X121615000Y-53615000D01*
X119585787Y-53000000D02*
X121000000Y-53000000D01*
X109740000Y-53615000D02*
X110355000Y-53000000D01*
X121615000Y-103615000D02*
X121000000Y-103000000D01*
X110355000Y-103000000D02*
X119585787Y-103000000D01*
X119585787Y-103000000D02*
X121000000Y-103000000D01*
X128000000Y-103615000D02*
X121615000Y-103615000D01*
X107000000Y-103615000D02*
X109740000Y-103615000D01*
X109740000Y-103615000D02*
X110355000Y-103000000D01*
X38483998Y-49000000D02*
X46000000Y-49000000D01*
X32000000Y-50845000D02*
X36638998Y-50845000D01*
X36638998Y-50845000D02*
X38483998Y-49000000D01*
X47845000Y-50845000D02*
X46000000Y-49000000D01*
X53000000Y-50845000D02*
X47845000Y-50845000D01*
X38483998Y-99000000D02*
X46000000Y-99000000D01*
X32000000Y-100845000D02*
X36638998Y-100845000D01*
X36638998Y-100845000D02*
X38483998Y-99000000D01*
X47845000Y-100845000D02*
X46000000Y-99000000D01*
X53000000Y-100845000D02*
X47845000Y-100845000D01*
X63483998Y-49000000D02*
X71000000Y-49000000D01*
X57000000Y-50845000D02*
X61638998Y-50845000D01*
X61638998Y-50845000D02*
X63483998Y-49000000D01*
X72845000Y-50845000D02*
X71000000Y-49000000D01*
X78000000Y-50845000D02*
X72845000Y-50845000D01*
X57000000Y-100845000D02*
X61638998Y-100845000D01*
X72845000Y-100845000D02*
X71000000Y-99000000D01*
X61638998Y-100845000D02*
X63483998Y-99000000D01*
X78000000Y-100845000D02*
X72845000Y-100845000D01*
X63483998Y-99000000D02*
X71000000Y-99000000D01*
X88483998Y-49000000D02*
X96000000Y-49000000D01*
X82000000Y-50845000D02*
X86638998Y-50845000D01*
X86638998Y-50845000D02*
X88483998Y-49000000D01*
X97845000Y-50845000D02*
X96000000Y-49000000D01*
X103000000Y-50845000D02*
X97845000Y-50845000D01*
X82000000Y-100845000D02*
X86638998Y-100845000D01*
X97845000Y-100845000D02*
X96000000Y-99000000D01*
X86638998Y-100845000D02*
X88483998Y-99000000D01*
X103000000Y-100845000D02*
X97845000Y-100845000D01*
X88483998Y-99000000D02*
X96000000Y-99000000D01*
X111638998Y-50845000D02*
X113483998Y-49000000D01*
X122845000Y-50845000D02*
X121000000Y-49000000D01*
X107000000Y-50845000D02*
X111638998Y-50845000D01*
X113483998Y-49000000D02*
X121000000Y-49000000D01*
X128000000Y-50845000D02*
X122845000Y-50845000D01*
X122845000Y-100845000D02*
X121000000Y-99000000D01*
X107000000Y-100845000D02*
X111638998Y-100845000D01*
X111638998Y-100845000D02*
X113483998Y-99000000D01*
X128000000Y-100845000D02*
X122845000Y-100845000D01*
X113483998Y-99000000D02*
X121000000Y-99000000D01*
X49075000Y-48075000D02*
X46000000Y-45000000D01*
X53000000Y-48075000D02*
X49075000Y-48075000D01*
X44585787Y-45000000D02*
X46000000Y-45000000D01*
X38483998Y-45000000D02*
X44585787Y-45000000D01*
X35408998Y-48075000D02*
X38483998Y-45000000D01*
X32000000Y-48075000D02*
X35408998Y-48075000D01*
X49075000Y-98075000D02*
X46000000Y-95000000D01*
X53000000Y-98075000D02*
X49075000Y-98075000D01*
X44585787Y-95000000D02*
X46000000Y-95000000D01*
X38483998Y-95000000D02*
X44585787Y-95000000D01*
X35408998Y-98075000D02*
X38483998Y-95000000D01*
X32000000Y-98075000D02*
X35408998Y-98075000D01*
X74075000Y-48075000D02*
X71000000Y-45000000D01*
X78000000Y-48075000D02*
X74075000Y-48075000D01*
X69585787Y-45000000D02*
X71000000Y-45000000D01*
X63483998Y-45000000D02*
X69585787Y-45000000D01*
X60408998Y-48075000D02*
X63483998Y-45000000D01*
X57000000Y-48075000D02*
X60408998Y-48075000D01*
X69585787Y-95000000D02*
X71000000Y-95000000D01*
X57000000Y-98075000D02*
X60408998Y-98075000D01*
X60408998Y-98075000D02*
X63483998Y-95000000D01*
X74075000Y-98075000D02*
X71000000Y-95000000D01*
X78000000Y-98075000D02*
X74075000Y-98075000D01*
X63483998Y-95000000D02*
X69585787Y-95000000D01*
X99075000Y-48075000D02*
X96000000Y-45000000D01*
X103000000Y-48075000D02*
X99075000Y-48075000D01*
X94585787Y-45000000D02*
X96000000Y-45000000D01*
X88483998Y-45000000D02*
X94585787Y-45000000D01*
X85408998Y-48075000D02*
X88483998Y-45000000D01*
X82000000Y-48075000D02*
X85408998Y-48075000D01*
X94585787Y-95000000D02*
X96000000Y-95000000D01*
X82000000Y-98075000D02*
X85408998Y-98075000D01*
X85408998Y-98075000D02*
X88483998Y-95000000D01*
X99075000Y-98075000D02*
X96000000Y-95000000D01*
X103000000Y-98075000D02*
X99075000Y-98075000D01*
X88483998Y-95000000D02*
X94585787Y-95000000D01*
X119585787Y-45000000D02*
X121000000Y-45000000D01*
X128000000Y-48075000D02*
X124075000Y-48075000D01*
X124075000Y-48075000D02*
X121000000Y-45000000D01*
X113483998Y-45000000D02*
X119585787Y-45000000D01*
X110408998Y-48075000D02*
X113483998Y-45000000D01*
X107000000Y-48075000D02*
X110408998Y-48075000D01*
X119585787Y-95000000D02*
X121000000Y-95000000D01*
X124075000Y-98075000D02*
X121000000Y-95000000D01*
X128000000Y-98075000D02*
X124075000Y-98075000D01*
X107000000Y-98075000D02*
X110408998Y-98075000D01*
X110408998Y-98075000D02*
X113483998Y-95000000D01*
X113483998Y-95000000D02*
X119585787Y-95000000D01*
X50305000Y-45305000D02*
X46000000Y-41000000D01*
X53000000Y-45305000D02*
X50305000Y-45305000D01*
X44585787Y-41000000D02*
X46000000Y-41000000D01*
X34178998Y-45305000D02*
X38483998Y-41000000D01*
X38483998Y-41000000D02*
X44585787Y-41000000D01*
X32000000Y-45305000D02*
X34178998Y-45305000D01*
X50305000Y-95305000D02*
X46000000Y-91000000D01*
X53000000Y-95305000D02*
X50305000Y-95305000D01*
X44585787Y-91000000D02*
X46000000Y-91000000D01*
X34178998Y-95305000D02*
X38483998Y-91000000D01*
X38483998Y-91000000D02*
X44585787Y-91000000D01*
X32000000Y-95305000D02*
X34178998Y-95305000D01*
X57000000Y-45305000D02*
X59178998Y-45305000D01*
X78000000Y-45305000D02*
X75305000Y-45305000D01*
X69585787Y-41000000D02*
X71000000Y-41000000D01*
X75305000Y-45305000D02*
X71000000Y-41000000D01*
X63483998Y-41000000D02*
X69585787Y-41000000D01*
X59178998Y-45305000D02*
X63483998Y-41000000D01*
X63483998Y-91000000D02*
X69585787Y-91000000D01*
X57000000Y-95305000D02*
X59178998Y-95305000D01*
X78000000Y-95305000D02*
X75305000Y-95305000D01*
X69585787Y-91000000D02*
X71000000Y-91000000D01*
X75305000Y-95305000D02*
X71000000Y-91000000D01*
X59178998Y-95305000D02*
X63483998Y-91000000D01*
X82000000Y-45305000D02*
X84178998Y-45305000D01*
X103000000Y-45305000D02*
X100305000Y-45305000D01*
X94585787Y-41000000D02*
X96000000Y-41000000D01*
X100305000Y-45305000D02*
X96000000Y-41000000D01*
X88483998Y-41000000D02*
X94585787Y-41000000D01*
X84178998Y-45305000D02*
X88483998Y-41000000D01*
X88483998Y-91000000D02*
X94585787Y-91000000D01*
X82000000Y-95305000D02*
X84178998Y-95305000D01*
X103000000Y-95305000D02*
X100305000Y-95305000D01*
X94585787Y-91000000D02*
X96000000Y-91000000D01*
X100305000Y-95305000D02*
X96000000Y-91000000D01*
X84178998Y-95305000D02*
X88483998Y-91000000D01*
X125305000Y-45305000D02*
X121000000Y-41000000D01*
X128000000Y-45305000D02*
X125305000Y-45305000D01*
X119585787Y-41000000D02*
X121000000Y-41000000D01*
X107000000Y-45305000D02*
X109178998Y-45305000D01*
X113483998Y-41000000D02*
X119585787Y-41000000D01*
X109178998Y-45305000D02*
X113483998Y-41000000D01*
X119585787Y-91000000D02*
X121000000Y-91000000D01*
X113483998Y-91000000D02*
X119585787Y-91000000D01*
X128000000Y-95305000D02*
X125305000Y-95305000D01*
X107000000Y-95305000D02*
X109178998Y-95305000D01*
X109178998Y-95305000D02*
X113483998Y-91000000D01*
X125305000Y-95305000D02*
X121000000Y-91000000D01*
X46000000Y-38275000D02*
X46000000Y-37000000D01*
X50260000Y-42535000D02*
X46000000Y-38275000D01*
X53000000Y-42535000D02*
X50260000Y-42535000D01*
X44585787Y-37000000D02*
X46000000Y-37000000D01*
X38483998Y-37000000D02*
X44585787Y-37000000D01*
X32948998Y-42535000D02*
X38483998Y-37000000D01*
X32000000Y-42535000D02*
X32948998Y-42535000D01*
X46000000Y-88275000D02*
X46000000Y-87000000D01*
X50260000Y-92535000D02*
X46000000Y-88275000D01*
X53000000Y-92535000D02*
X50260000Y-92535000D01*
X44585787Y-87000000D02*
X46000000Y-87000000D01*
X38483998Y-87000000D02*
X44585787Y-87000000D01*
X32948998Y-92535000D02*
X38483998Y-87000000D01*
X32000000Y-92535000D02*
X32948998Y-92535000D01*
X57948998Y-42535000D02*
X63483998Y-37000000D01*
X78000000Y-42535000D02*
X75260000Y-42535000D01*
X71000000Y-38275000D02*
X71000000Y-37000000D01*
X69585787Y-37000000D02*
X71000000Y-37000000D01*
X63483998Y-37000000D02*
X69585787Y-37000000D01*
X75260000Y-42535000D02*
X71000000Y-38275000D01*
X57000000Y-42535000D02*
X57948998Y-42535000D01*
X71000000Y-88275000D02*
X71000000Y-87000000D01*
X75260000Y-92535000D02*
X71000000Y-88275000D01*
X69585787Y-87000000D02*
X71000000Y-87000000D01*
X78000000Y-92535000D02*
X75260000Y-92535000D01*
X57000000Y-92535000D02*
X57948998Y-92535000D01*
X63483998Y-87000000D02*
X69585787Y-87000000D01*
X57948998Y-92535000D02*
X63483998Y-87000000D01*
X82948998Y-42535000D02*
X88483998Y-37000000D01*
X103000000Y-42535000D02*
X100260000Y-42535000D01*
X96000000Y-38275000D02*
X96000000Y-37000000D01*
X94585787Y-37000000D02*
X96000000Y-37000000D01*
X88483998Y-37000000D02*
X94585787Y-37000000D01*
X100260000Y-42535000D02*
X96000000Y-38275000D01*
X82000000Y-42535000D02*
X82948998Y-42535000D01*
X96000000Y-88275000D02*
X96000000Y-87000000D01*
X100260000Y-92535000D02*
X96000000Y-88275000D01*
X94585787Y-87000000D02*
X96000000Y-87000000D01*
X103000000Y-92535000D02*
X100260000Y-92535000D01*
X82000000Y-92535000D02*
X82948998Y-92535000D01*
X88483998Y-87000000D02*
X94585787Y-87000000D01*
X82948998Y-92535000D02*
X88483998Y-87000000D01*
X107948998Y-42535000D02*
X113483998Y-37000000D01*
X128000000Y-42535000D02*
X125260000Y-42535000D01*
X119585787Y-37000000D02*
X121000000Y-37000000D01*
X121000000Y-38275000D02*
X121000000Y-37000000D01*
X113483998Y-37000000D02*
X119585787Y-37000000D01*
X125260000Y-42535000D02*
X121000000Y-38275000D01*
X107000000Y-42535000D02*
X107948998Y-42535000D01*
X121000000Y-88275000D02*
X121000000Y-87000000D01*
X125260000Y-92535000D02*
X121000000Y-88275000D01*
X113483998Y-87000000D02*
X119585787Y-87000000D01*
X119585787Y-87000000D02*
X121000000Y-87000000D01*
X107000000Y-92535000D02*
X107948998Y-92535000D01*
X128000000Y-92535000D02*
X125260000Y-92535000D01*
X107948998Y-92535000D02*
X113483998Y-87000000D01*
X36841667Y-33000000D02*
X44585787Y-33000000D01*
X32000000Y-37841667D02*
X36841667Y-33000000D01*
X44585787Y-33000000D02*
X46000000Y-33000000D01*
X32000000Y-39765000D02*
X32000000Y-37841667D01*
X47414213Y-33000000D02*
X46000000Y-33000000D01*
X53000000Y-37841667D02*
X48158333Y-33000000D01*
X48158333Y-33000000D02*
X47414213Y-33000000D01*
X53000000Y-39765000D02*
X53000000Y-37841667D01*
X36841667Y-83000000D02*
X44585787Y-83000000D01*
X32000000Y-87841667D02*
X36841667Y-83000000D01*
X44585787Y-83000000D02*
X46000000Y-83000000D01*
X32000000Y-89765000D02*
X32000000Y-87841667D01*
X47414213Y-83000000D02*
X46000000Y-83000000D01*
X53000000Y-87841667D02*
X48158333Y-83000000D01*
X48158333Y-83000000D02*
X47414213Y-83000000D01*
X53000000Y-89765000D02*
X53000000Y-87841667D01*
X61841667Y-33000000D02*
X69585787Y-33000000D01*
X78000000Y-39765000D02*
X78000000Y-37841667D01*
X72414213Y-33000000D02*
X71000000Y-33000000D01*
X57000000Y-39765000D02*
X57000000Y-37841667D01*
X69585787Y-33000000D02*
X71000000Y-33000000D01*
X57000000Y-37841667D02*
X61841667Y-33000000D01*
X73158333Y-33000000D02*
X72414213Y-33000000D01*
X78000000Y-37841667D02*
X73158333Y-33000000D01*
X57000000Y-89765000D02*
X57000000Y-87841667D01*
X73158333Y-83000000D02*
X72414213Y-83000000D01*
X72414213Y-83000000D02*
X71000000Y-83000000D01*
X78000000Y-89765000D02*
X78000000Y-87841667D01*
X57000000Y-87841667D02*
X61841667Y-83000000D01*
X69585787Y-83000000D02*
X71000000Y-83000000D01*
X61841667Y-83000000D02*
X69585787Y-83000000D01*
X78000000Y-87841667D02*
X73158333Y-83000000D01*
X86841667Y-33000000D02*
X94585787Y-33000000D01*
X103000000Y-39765000D02*
X103000000Y-37841667D01*
X97414213Y-33000000D02*
X96000000Y-33000000D01*
X82000000Y-39765000D02*
X82000000Y-37841667D01*
X94585787Y-33000000D02*
X96000000Y-33000000D01*
X82000000Y-37841667D02*
X86841667Y-33000000D01*
X98158333Y-33000000D02*
X97414213Y-33000000D01*
X103000000Y-37841667D02*
X98158333Y-33000000D01*
X82000000Y-89765000D02*
X82000000Y-87841667D01*
X98158333Y-83000000D02*
X97414213Y-83000000D01*
X97414213Y-83000000D02*
X96000000Y-83000000D01*
X103000000Y-89765000D02*
X103000000Y-87841667D01*
X82000000Y-87841667D02*
X86841667Y-83000000D01*
X94585787Y-83000000D02*
X96000000Y-83000000D01*
X86841667Y-83000000D02*
X94585787Y-83000000D01*
X103000000Y-87841667D02*
X98158333Y-83000000D01*
X111841667Y-33000000D02*
X119585787Y-33000000D01*
X122414213Y-33000000D02*
X121000000Y-33000000D01*
X107000000Y-39765000D02*
X107000000Y-37841667D01*
X119585787Y-33000000D02*
X121000000Y-33000000D01*
X107000000Y-37841667D02*
X111841667Y-33000000D01*
X123158333Y-33000000D02*
X122414213Y-33000000D01*
X128000000Y-37841667D02*
X123158333Y-33000000D01*
X128000000Y-39765000D02*
X128000000Y-37841667D01*
X128000000Y-89765000D02*
X128000000Y-87841667D01*
X122414213Y-83000000D02*
X121000000Y-83000000D01*
X107000000Y-87841667D02*
X111841667Y-83000000D01*
X123158333Y-83000000D02*
X122414213Y-83000000D01*
X107000000Y-89765000D02*
X107000000Y-87841667D01*
X128000000Y-87841667D02*
X123158333Y-83000000D01*
X111841667Y-83000000D02*
X119585787Y-83000000D01*
X119585787Y-83000000D02*
X121000000Y-83000000D01*
M02*
