M48
; DRILL file {KiCad (5.1.5)-3} date 2021/03/24 18:55:37
; FORMAT={-:-/ absolute / metric / decimal}
; #@! TF.CreationDate,2021-03-24T18:55:37+09:00
; #@! TF.GenerationSoftware,Kicad,Pcbnew,(5.1.5)-3
FMAT,2
METRIC
T1C1.000
%
G90
G05
T1
X64.0Y-43.0
X96.0Y-115.0
X96.0Y-57.0
X46.0Y-87.0
X64.0Y-59.0
X96.0Y-41.0
X39.0Y-93.0
X64.0Y-75.0
X46.0Y-41.0
X39.0Y-43.0
X46.0Y-77.0
X121.0Y-61.0
X89.0Y-117.0
X71.0Y-53.0
X71.0Y-103.0
X121.0Y-91.0
X89.0Y-105.0
X71.0Y-107.0
X121.0Y-103.0
X89.0Y-71.0
X121.0Y-119.0
X121.0Y-69.0
X39.0Y-105.0
X96.0Y-99.0
X121.0Y-57.0
X121.0Y-73.0
X39.0Y-63.0
X121.0Y-77.0
X64.0Y-39.0
X114.0Y-35.0
X89.0Y-35.0
X46.0Y-115.0
X64.0Y-71.0
X96.0Y-45.0
X46.0Y-127.0
X46.0Y-73.0
X46.0Y-49.0
X71.0Y-61.0
X89.0Y-97.0
X64.0Y-31.0
X114.0Y-117.0
X89.0Y-129.0
X71.0Y-65.0
X71.0Y-119.0
X121.0Y-41.0
X89.0Y-125.0
X71.0Y-123.0
X89.0Y-79.0
X114.0Y-97.0
X39.0Y-109.0
X89.0Y-89.0
X121.0Y-45.0
X114.0Y-63.0
X39.0Y-75.0
X71.0Y-57.0
X121.0Y-53.0
X96.0Y-73.0
X46.0Y-91.0
X64.0Y-67.0
X96.0Y-69.0
X46.0Y-119.0
X46.0Y-61.0
X39.0Y-39.0
X64.0Y-109.0
X89.0Y-101.0
X96.0Y-127.0
X64.0Y-125.0
X64.0Y-89.0
X64.0Y-97.0
X114.0Y-101.0
X121.0Y-107.0
X114.0Y-67.0
X114.0Y-93.0
X39.0Y-121.0
X96.0Y-103.0
X96.0Y-95.0
X121.0Y-33.0
X39.0Y-71.0
X114.0Y-71.0
X96.0Y-77.0
X46.0Y-99.0
X121.0Y-65.0
X89.0Y-51.0
X46.0Y-95.0
X71.0Y-33.0
X89.0Y-31.0
X46.0Y-123.0
X46.0Y-53.0
X39.0Y-35.0
X71.0Y-41.0
X64.0Y-113.0
X71.0Y-99.0
X114.0Y-129.0
X89.0Y-109.0
X64.0Y-105.0
X71.0Y-111.0
X89.0Y-67.0
X64.0Y-93.0
X114.0Y-89.0
X114.0Y-125.0
X114.0Y-81.0
X39.0Y-117.0
X96.0Y-87.0
X114.0Y-105.0
X39.0Y-79.0
X64.0Y-47.0
X114.0Y-55.0
X96.0Y-61.0
X46.0Y-111.0
X64.0Y-63.0
X96.0Y-53.0
X46.0Y-103.0
X71.0Y-45.0
X96.0Y-33.0
X39.0Y-81.0
X46.0Y-69.0
X39.0Y-31.0
X39.0Y-47.0
X64.0Y-129.0
X89.0Y-113.0
X64.0Y-121.0
X64.0Y-101.0
X121.0Y-95.0
X96.0Y-119.0
X64.0Y-51.0
X71.0Y-83.0
X121.0Y-99.0
X89.0Y-55.0
X71.0Y-87.0
X89.0Y-59.0
X121.0Y-83.0
X39.0Y-113.0
X114.0Y-51.0
X114.0Y-43.0
X114.0Y-113.0
X39.0Y-55.0
X121.0Y-49.0
X96.0Y-111.0
X96.0Y-49.0
X39.0Y-89.0
X71.0Y-49.0
X89.0Y-47.0
X46.0Y-107.0
X64.0Y-55.0
X96.0Y-65.0
X39.0Y-97.0
X46.0Y-37.0
X39.0Y-51.0
X46.0Y-57.0
X89.0Y-85.0
X64.0Y-117.0
X96.0Y-107.0
X71.0Y-37.0
X71.0Y-127.0
X121.0Y-127.0
X89.0Y-121.0
X64.0Y-85.0
X121.0Y-115.0
X89.0Y-75.0
X71.0Y-91.0
X121.0Y-111.0
X114.0Y-31.0
X39.0Y-125.0
X114.0Y-79.0
X114.0Y-59.0
X114.0Y-121.0
X114.0Y-39.0
X39.0Y-67.0
X71.0Y-77.0
X96.0Y-83.0
X89.0Y-39.0
X46.0Y-83.0
X64.0Y-35.0
X89.0Y-43.0
X39.0Y-85.0
X64.0Y-79.0
X96.0Y-37.0
X39.0Y-101.0
X46.0Y-65.0
X46.0Y-45.0
X46.0Y-33.0
X89.0Y-93.0
X71.0Y-69.0
X114.0Y-109.0
X96.0Y-123.0
X71.0Y-73.0
X71.0Y-115.0
X89.0Y-81.0
X64.0Y-81.0
X121.0Y-123.0
X89.0Y-63.0
X71.0Y-95.0
X121.0Y-87.0
X39.0Y-129.0
X114.0Y-47.0
X114.0Y-85.0
X96.0Y-91.0
X121.0Y-37.0
X39.0Y-59.0
X114.0Y-75.0
T0
M30
