G04 #@! TF.GenerationSoftware,KiCad,Pcbnew,(5.1.5)-3*
G04 #@! TF.CreationDate,2021-03-24T18:55:27+09:00*
G04 #@! TF.ProjectId,DSub25TestPoint(2x4),44537562-3235-4546-9573-74506f696e74,rev?*
G04 #@! TF.SameCoordinates,Original*
G04 #@! TF.FileFunction,Copper,L1,Top*
G04 #@! TF.FilePolarity,Positive*
%FSLAX46Y46*%
G04 Gerber Fmt 4.6, Leading zero omitted, Abs format (unit mm)*
G04 Created by KiCad (PCBNEW (5.1.5)-3) date 2021-03-24 18:55:27*
%MOMM*%
%LPD*%
G04 APERTURE LIST*
%ADD10C,2.000000*%
%ADD11R,3.480000X1.846667*%
%ADD12C,1.000000*%
G04 APERTURE END LIST*
D10*
X121000000Y-99000000D03*
X114000000Y-101000000D03*
X121000000Y-127000000D03*
X121000000Y-115000000D03*
X121000000Y-103000000D03*
X121000000Y-119000000D03*
X114000000Y-89000000D03*
X121000000Y-111000000D03*
X121000000Y-83000000D03*
X114000000Y-85000000D03*
X114000000Y-81000000D03*
X121000000Y-107000000D03*
X121000000Y-123000000D03*
X114000000Y-97000000D03*
X114000000Y-93000000D03*
X121000000Y-87000000D03*
X121000000Y-91000000D03*
X121000000Y-95000000D03*
X121000000Y-61000000D03*
X114000000Y-109000000D03*
X121000000Y-41000000D03*
X114000000Y-129000000D03*
X114000000Y-117000000D03*
X121000000Y-69000000D03*
D11*
X128000000Y-121620000D03*
X128000000Y-118850000D03*
X128000000Y-116080000D03*
X128000000Y-113310000D03*
X128000000Y-110540000D03*
X128000000Y-107770000D03*
X128000000Y-105000000D03*
X128000000Y-102230000D03*
X128000000Y-99460000D03*
X128000000Y-96690000D03*
X128000000Y-93920000D03*
X128000000Y-91150000D03*
X128000000Y-88380000D03*
D10*
X114000000Y-31000000D03*
D11*
X107000000Y-121620000D03*
X107000000Y-118850000D03*
X107000000Y-116080000D03*
X107000000Y-113310000D03*
X107000000Y-110540000D03*
X107000000Y-107770000D03*
X107000000Y-105000000D03*
X107000000Y-102230000D03*
X107000000Y-99460000D03*
X107000000Y-96690000D03*
X107000000Y-93920000D03*
X107000000Y-91150000D03*
X107000000Y-88380000D03*
D10*
X114000000Y-113000000D03*
X114000000Y-121000000D03*
X121000000Y-37000000D03*
X121000000Y-73000000D03*
X121000000Y-53000000D03*
X121000000Y-65000000D03*
X114000000Y-125000000D03*
X114000000Y-105000000D03*
X114000000Y-51000000D03*
X114000000Y-47000000D03*
D11*
X128000000Y-71620000D03*
X128000000Y-68850000D03*
X128000000Y-66080000D03*
X128000000Y-63310000D03*
X128000000Y-60540000D03*
X128000000Y-57770000D03*
X128000000Y-55000000D03*
X128000000Y-52230000D03*
X128000000Y-49460000D03*
X128000000Y-46690000D03*
X128000000Y-43920000D03*
X128000000Y-41150000D03*
X128000000Y-38380000D03*
D10*
X121000000Y-77000000D03*
X114000000Y-43000000D03*
X114000000Y-39000000D03*
X121000000Y-57000000D03*
D11*
X107000000Y-71620000D03*
X107000000Y-68850000D03*
X107000000Y-66080000D03*
X107000000Y-63310000D03*
X107000000Y-60540000D03*
X107000000Y-57770000D03*
X107000000Y-55000000D03*
X107000000Y-52230000D03*
X107000000Y-49460000D03*
X107000000Y-46690000D03*
X107000000Y-43920000D03*
X107000000Y-41150000D03*
X107000000Y-38380000D03*
D10*
X114000000Y-63000000D03*
X121000000Y-49000000D03*
X114000000Y-35000000D03*
X114000000Y-59000000D03*
X114000000Y-71000000D03*
X114000000Y-67000000D03*
X121000000Y-33000000D03*
X121000000Y-45000000D03*
X114000000Y-55000000D03*
X114000000Y-79000000D03*
X114000000Y-75000000D03*
X96000000Y-99000000D03*
X96000000Y-111000000D03*
X89000000Y-89000000D03*
X96000000Y-83000000D03*
X96000000Y-87000000D03*
X96000000Y-115000000D03*
X96000000Y-91000000D03*
X96000000Y-95000000D03*
X96000000Y-103000000D03*
X96000000Y-107000000D03*
X89000000Y-85000000D03*
X89000000Y-93000000D03*
X96000000Y-127000000D03*
X96000000Y-119000000D03*
X96000000Y-123000000D03*
X89000000Y-81000000D03*
X89000000Y-97000000D03*
X89000000Y-101000000D03*
D11*
X82000000Y-88380000D03*
X82000000Y-91150000D03*
X82000000Y-93920000D03*
X82000000Y-96690000D03*
X82000000Y-99460000D03*
X82000000Y-102230000D03*
X82000000Y-105000000D03*
X82000000Y-107770000D03*
X82000000Y-110540000D03*
X82000000Y-113310000D03*
X82000000Y-116080000D03*
X82000000Y-118850000D03*
X82000000Y-121620000D03*
D10*
X89000000Y-113000000D03*
X89000000Y-125000000D03*
X89000000Y-129000000D03*
X89000000Y-105000000D03*
X89000000Y-109000000D03*
X89000000Y-121000000D03*
X89000000Y-117000000D03*
D11*
X103000000Y-88380000D03*
X103000000Y-91150000D03*
X103000000Y-93920000D03*
X103000000Y-96690000D03*
X103000000Y-99460000D03*
X103000000Y-102230000D03*
X103000000Y-105000000D03*
X103000000Y-107770000D03*
X103000000Y-110540000D03*
X103000000Y-113310000D03*
X103000000Y-116080000D03*
X103000000Y-118850000D03*
X103000000Y-121620000D03*
D10*
X96000000Y-69000000D03*
X96000000Y-37000000D03*
X96000000Y-65000000D03*
X96000000Y-41000000D03*
X96000000Y-73000000D03*
X96000000Y-61000000D03*
X96000000Y-53000000D03*
X89000000Y-31000000D03*
X89000000Y-51000000D03*
X96000000Y-45000000D03*
X89000000Y-43000000D03*
X96000000Y-49000000D03*
X89000000Y-39000000D03*
X89000000Y-35000000D03*
X89000000Y-47000000D03*
X96000000Y-57000000D03*
X96000000Y-33000000D03*
X96000000Y-77000000D03*
X89000000Y-55000000D03*
D11*
X82000000Y-38380000D03*
X82000000Y-41150000D03*
X82000000Y-43920000D03*
X82000000Y-46690000D03*
X82000000Y-49460000D03*
X82000000Y-52230000D03*
X82000000Y-55000000D03*
X82000000Y-57770000D03*
X82000000Y-60540000D03*
X82000000Y-63310000D03*
X82000000Y-66080000D03*
X82000000Y-68850000D03*
X82000000Y-71620000D03*
D10*
X89000000Y-59000000D03*
X89000000Y-63000000D03*
X89000000Y-75000000D03*
X89000000Y-71000000D03*
X89000000Y-79000000D03*
D11*
X103000000Y-38380000D03*
X103000000Y-41150000D03*
X103000000Y-43920000D03*
X103000000Y-46690000D03*
X103000000Y-49460000D03*
X103000000Y-52230000D03*
X103000000Y-55000000D03*
X103000000Y-57770000D03*
X103000000Y-60540000D03*
X103000000Y-63310000D03*
X103000000Y-66080000D03*
X103000000Y-68850000D03*
X103000000Y-71620000D03*
D10*
X89000000Y-67000000D03*
X71000000Y-99000000D03*
X71000000Y-111000000D03*
X64000000Y-89000000D03*
X71000000Y-83000000D03*
X71000000Y-87000000D03*
X71000000Y-115000000D03*
X71000000Y-91000000D03*
X71000000Y-95000000D03*
X71000000Y-103000000D03*
X71000000Y-107000000D03*
X64000000Y-85000000D03*
X64000000Y-93000000D03*
X71000000Y-127000000D03*
X71000000Y-119000000D03*
X71000000Y-123000000D03*
X64000000Y-81000000D03*
X64000000Y-97000000D03*
X64000000Y-101000000D03*
D11*
X57000000Y-88380000D03*
X57000000Y-91150000D03*
X57000000Y-93920000D03*
X57000000Y-96690000D03*
X57000000Y-99460000D03*
X57000000Y-102230000D03*
X57000000Y-105000000D03*
X57000000Y-107770000D03*
X57000000Y-110540000D03*
X57000000Y-113310000D03*
X57000000Y-116080000D03*
X57000000Y-118850000D03*
X57000000Y-121620000D03*
D10*
X64000000Y-113000000D03*
X64000000Y-125000000D03*
X64000000Y-129000000D03*
X64000000Y-105000000D03*
X64000000Y-109000000D03*
X64000000Y-121000000D03*
X64000000Y-117000000D03*
D11*
X78000000Y-88380000D03*
X78000000Y-91150000D03*
X78000000Y-93920000D03*
X78000000Y-96690000D03*
X78000000Y-99460000D03*
X78000000Y-102230000D03*
X78000000Y-105000000D03*
X78000000Y-107770000D03*
X78000000Y-110540000D03*
X78000000Y-113310000D03*
X78000000Y-116080000D03*
X78000000Y-118850000D03*
X78000000Y-121620000D03*
D10*
X71000000Y-69000000D03*
X71000000Y-37000000D03*
X71000000Y-65000000D03*
X71000000Y-41000000D03*
X71000000Y-73000000D03*
X71000000Y-61000000D03*
X71000000Y-53000000D03*
X64000000Y-31000000D03*
X64000000Y-51000000D03*
X71000000Y-45000000D03*
X64000000Y-43000000D03*
X71000000Y-49000000D03*
X64000000Y-39000000D03*
X64000000Y-35000000D03*
X64000000Y-47000000D03*
X71000000Y-57000000D03*
X71000000Y-33000000D03*
X71000000Y-77000000D03*
X64000000Y-55000000D03*
D11*
X57000000Y-38380000D03*
X57000000Y-41150000D03*
X57000000Y-43920000D03*
X57000000Y-46690000D03*
X57000000Y-49460000D03*
X57000000Y-52230000D03*
X57000000Y-55000000D03*
X57000000Y-57770000D03*
X57000000Y-60540000D03*
X57000000Y-63310000D03*
X57000000Y-66080000D03*
X57000000Y-68850000D03*
X57000000Y-71620000D03*
D10*
X64000000Y-59000000D03*
X64000000Y-63000000D03*
X64000000Y-75000000D03*
X64000000Y-71000000D03*
X64000000Y-79000000D03*
D11*
X78000000Y-38380000D03*
X78000000Y-41150000D03*
X78000000Y-43920000D03*
X78000000Y-46690000D03*
X78000000Y-49460000D03*
X78000000Y-52230000D03*
X78000000Y-55000000D03*
X78000000Y-57770000D03*
X78000000Y-60540000D03*
X78000000Y-63310000D03*
X78000000Y-66080000D03*
X78000000Y-68850000D03*
X78000000Y-71620000D03*
D10*
X64000000Y-67000000D03*
D11*
X32000000Y-71620000D03*
X32000000Y-68850000D03*
X32000000Y-66080000D03*
X32000000Y-63310000D03*
X32000000Y-60540000D03*
X32000000Y-57770000D03*
X32000000Y-55000000D03*
X32000000Y-52230000D03*
X32000000Y-49460000D03*
X32000000Y-46690000D03*
X32000000Y-43920000D03*
X32000000Y-41150000D03*
X32000000Y-38380000D03*
X53000000Y-71620000D03*
X53000000Y-68850000D03*
X53000000Y-66080000D03*
X53000000Y-63310000D03*
X53000000Y-60540000D03*
X53000000Y-57770000D03*
X53000000Y-55000000D03*
X53000000Y-52230000D03*
X53000000Y-49460000D03*
X53000000Y-46690000D03*
X53000000Y-43920000D03*
X53000000Y-41150000D03*
X53000000Y-38380000D03*
D10*
X39000000Y-79000000D03*
X39000000Y-75000000D03*
X39000000Y-71000000D03*
X39000000Y-67000000D03*
X39000000Y-63000000D03*
X39000000Y-59000000D03*
X39000000Y-55000000D03*
X39000000Y-51000000D03*
X39000000Y-47000000D03*
X39000000Y-43000000D03*
X39000000Y-39000000D03*
X39000000Y-35000000D03*
X39000000Y-31000000D03*
X46000000Y-77000000D03*
X46000000Y-73000000D03*
X46000000Y-69000000D03*
X46000000Y-65000000D03*
X46000000Y-61000000D03*
X46000000Y-57000000D03*
X46000000Y-53000000D03*
X46000000Y-49000000D03*
X46000000Y-45000000D03*
X46000000Y-41000000D03*
X46000000Y-37000000D03*
X46000000Y-33000000D03*
D11*
X32000000Y-121620000D03*
X32000000Y-118850000D03*
X32000000Y-116080000D03*
X32000000Y-113310000D03*
X32000000Y-110540000D03*
X32000000Y-107770000D03*
X32000000Y-105000000D03*
X32000000Y-102230000D03*
X32000000Y-99460000D03*
X32000000Y-96690000D03*
X32000000Y-93920000D03*
X32000000Y-91150000D03*
X32000000Y-88380000D03*
X53000000Y-121620000D03*
X53000000Y-118850000D03*
X53000000Y-116080000D03*
X53000000Y-113310000D03*
X53000000Y-110540000D03*
X53000000Y-107770000D03*
X53000000Y-105000000D03*
X53000000Y-102230000D03*
X53000000Y-99460000D03*
X53000000Y-96690000D03*
X53000000Y-93920000D03*
X53000000Y-91150000D03*
X53000000Y-88380000D03*
D10*
X39000000Y-129000000D03*
X39000000Y-125000000D03*
X39000000Y-121000000D03*
X39000000Y-117000000D03*
X39000000Y-113000000D03*
X39000000Y-109000000D03*
X39000000Y-105000000D03*
X39000000Y-101000000D03*
X39000000Y-97000000D03*
X39000000Y-93000000D03*
X39000000Y-89000000D03*
X39000000Y-85000000D03*
X39000000Y-81000000D03*
X46000000Y-127000000D03*
X46000000Y-123000000D03*
X46000000Y-119000000D03*
X46000000Y-115000000D03*
X46000000Y-111000000D03*
X46000000Y-107000000D03*
X46000000Y-103000000D03*
X46000000Y-99000000D03*
X46000000Y-95000000D03*
X46000000Y-91000000D03*
X46000000Y-87000000D03*
X46000000Y-83000000D03*
D12*
X32000000Y-72000000D02*
X32000000Y-71620000D01*
X39000000Y-79000000D02*
X32000000Y-72000000D01*
X53000000Y-73543333D02*
X53000000Y-71620000D01*
X47268343Y-79274990D02*
X53000000Y-73543333D01*
X39274990Y-79274990D02*
X47268343Y-79274990D01*
X39000000Y-79000000D02*
X39274990Y-79274990D01*
X32000000Y-122000000D02*
X32000000Y-121620000D01*
X39000000Y-129000000D02*
X32000000Y-122000000D01*
X53000000Y-123543333D02*
X53000000Y-121620000D01*
X47268343Y-129274990D02*
X53000000Y-123543333D01*
X39274990Y-129274990D02*
X47268343Y-129274990D01*
X39000000Y-129000000D02*
X39274990Y-129274990D01*
X57000000Y-72000000D02*
X57000000Y-71620000D01*
X78000000Y-73543333D02*
X78000000Y-71620000D01*
X72268343Y-79274990D02*
X78000000Y-73543333D01*
X64000000Y-79000000D02*
X57000000Y-72000000D01*
X64274990Y-79274990D02*
X72268343Y-79274990D01*
X64000000Y-79000000D02*
X64274990Y-79274990D01*
X64000000Y-129000000D02*
X57000000Y-122000000D01*
X57000000Y-122000000D02*
X57000000Y-121620000D01*
X72268343Y-129274990D02*
X78000000Y-123543333D01*
X64000000Y-129000000D02*
X64274990Y-129274990D01*
X78000000Y-123543333D02*
X78000000Y-121620000D01*
X64274990Y-129274990D02*
X72268343Y-129274990D01*
X82000000Y-72000000D02*
X82000000Y-71620000D01*
X103000000Y-73543333D02*
X103000000Y-71620000D01*
X97268343Y-79274990D02*
X103000000Y-73543333D01*
X89000000Y-79000000D02*
X82000000Y-72000000D01*
X89274990Y-79274990D02*
X97268343Y-79274990D01*
X89000000Y-79000000D02*
X89274990Y-79274990D01*
X89000000Y-129000000D02*
X82000000Y-122000000D01*
X82000000Y-122000000D02*
X82000000Y-121620000D01*
X122268343Y-79274990D02*
X128000000Y-73543333D01*
X128000000Y-73543333D02*
X128000000Y-71620000D01*
X97268343Y-129274990D02*
X103000000Y-123543333D01*
X89000000Y-129000000D02*
X89274990Y-129274990D01*
X103000000Y-123543333D02*
X103000000Y-121620000D01*
X89274990Y-129274990D02*
X97268343Y-129274990D01*
X107000000Y-72000000D02*
X107000000Y-71620000D01*
X114000000Y-79000000D02*
X107000000Y-72000000D01*
X114000000Y-79000000D02*
X114274990Y-79274990D01*
X114274990Y-79274990D02*
X122268343Y-79274990D01*
X122268343Y-129274990D02*
X128000000Y-123543333D01*
X107000000Y-122000000D02*
X107000000Y-121620000D01*
X114274990Y-129274990D02*
X122268343Y-129274990D01*
X114000000Y-129000000D02*
X107000000Y-122000000D01*
X114000000Y-129000000D02*
X114274990Y-129274990D01*
X128000000Y-123543333D02*
X128000000Y-121620000D01*
X39000000Y-73585787D02*
X34264213Y-68850000D01*
X34264213Y-68850000D02*
X32000000Y-68850000D01*
X39000000Y-75000000D02*
X39000000Y-73585787D01*
X50559999Y-70136666D02*
X51846665Y-68850000D01*
X50559999Y-70956003D02*
X50559999Y-70136666D01*
X46516002Y-75000000D02*
X50559999Y-70956003D01*
X51846665Y-68850000D02*
X53000000Y-68850000D01*
X39000000Y-75000000D02*
X46516002Y-75000000D01*
X39000000Y-123585787D02*
X34264213Y-118850000D01*
X34264213Y-118850000D02*
X32000000Y-118850000D01*
X39000000Y-125000000D02*
X39000000Y-123585787D01*
X50559999Y-120136666D02*
X51846665Y-118850000D01*
X50559999Y-120956003D02*
X50559999Y-120136666D01*
X46516002Y-125000000D02*
X50559999Y-120956003D01*
X51846665Y-118850000D02*
X53000000Y-118850000D01*
X39000000Y-125000000D02*
X46516002Y-125000000D01*
X71516002Y-75000000D02*
X75559999Y-70956003D01*
X75559999Y-70136666D02*
X76846665Y-68850000D01*
X59264213Y-68850000D02*
X57000000Y-68850000D01*
X64000000Y-75000000D02*
X71516002Y-75000000D01*
X64000000Y-73585787D02*
X59264213Y-68850000D01*
X76846665Y-68850000D02*
X78000000Y-68850000D01*
X64000000Y-75000000D02*
X64000000Y-73585787D01*
X75559999Y-70956003D02*
X75559999Y-70136666D01*
X59264213Y-118850000D02*
X57000000Y-118850000D01*
X64000000Y-125000000D02*
X64000000Y-123585787D01*
X75559999Y-120136666D02*
X76846665Y-118850000D01*
X64000000Y-123585787D02*
X59264213Y-118850000D01*
X71516002Y-125000000D02*
X75559999Y-120956003D01*
X76846665Y-118850000D02*
X78000000Y-118850000D01*
X64000000Y-125000000D02*
X71516002Y-125000000D01*
X75559999Y-120956003D02*
X75559999Y-120136666D01*
X96516002Y-75000000D02*
X100559999Y-70956003D01*
X100559999Y-70136666D02*
X101846665Y-68850000D01*
X84264213Y-68850000D02*
X82000000Y-68850000D01*
X89000000Y-75000000D02*
X96516002Y-75000000D01*
X89000000Y-73585787D02*
X84264213Y-68850000D01*
X101846665Y-68850000D02*
X103000000Y-68850000D01*
X89000000Y-75000000D02*
X89000000Y-73585787D01*
X100559999Y-70956003D02*
X100559999Y-70136666D01*
X126846665Y-68850000D02*
X128000000Y-68850000D01*
X125559999Y-70136666D02*
X126846665Y-68850000D01*
X109264213Y-68850000D02*
X107000000Y-68850000D01*
X114000000Y-75000000D02*
X114000000Y-73585787D01*
X114000000Y-75000000D02*
X121516002Y-75000000D01*
X114000000Y-73585787D02*
X109264213Y-68850000D01*
X84264213Y-118850000D02*
X82000000Y-118850000D01*
X89000000Y-125000000D02*
X89000000Y-123585787D01*
X100559999Y-120136666D02*
X101846665Y-118850000D01*
X89000000Y-123585787D02*
X84264213Y-118850000D01*
X96516002Y-125000000D02*
X100559999Y-120956003D01*
X101846665Y-118850000D02*
X103000000Y-118850000D01*
X89000000Y-125000000D02*
X96516002Y-125000000D01*
X100559999Y-120956003D02*
X100559999Y-120136666D01*
X121516002Y-75000000D02*
X125559999Y-70956003D01*
X125559999Y-70956003D02*
X125559999Y-70136666D01*
X114000000Y-125000000D02*
X114000000Y-123585787D01*
X125559999Y-120136666D02*
X126846665Y-118850000D01*
X121516002Y-125000000D02*
X125559999Y-120956003D01*
X126846665Y-118850000D02*
X128000000Y-118850000D01*
X125559999Y-120956003D02*
X125559999Y-120136666D01*
X109264213Y-118850000D02*
X107000000Y-118850000D01*
X114000000Y-125000000D02*
X121516002Y-125000000D01*
X114000000Y-123585787D02*
X109264213Y-118850000D01*
X34080000Y-66080000D02*
X32000000Y-66080000D01*
X39000000Y-71000000D02*
X34080000Y-66080000D01*
X51846665Y-66080000D02*
X53000000Y-66080000D01*
X46926665Y-71000000D02*
X51846665Y-66080000D01*
X39000000Y-71000000D02*
X46926665Y-71000000D01*
X34080000Y-116080000D02*
X32000000Y-116080000D01*
X39000000Y-121000000D02*
X34080000Y-116080000D01*
X51846665Y-116080000D02*
X53000000Y-116080000D01*
X46926665Y-121000000D02*
X51846665Y-116080000D01*
X39000000Y-121000000D02*
X46926665Y-121000000D01*
X71926665Y-71000000D02*
X76846665Y-66080000D01*
X59080000Y-66080000D02*
X57000000Y-66080000D01*
X76846665Y-66080000D02*
X78000000Y-66080000D01*
X64000000Y-71000000D02*
X59080000Y-66080000D01*
X64000000Y-71000000D02*
X71926665Y-71000000D01*
X59080000Y-116080000D02*
X57000000Y-116080000D01*
X64000000Y-121000000D02*
X71926665Y-121000000D01*
X76846665Y-116080000D02*
X78000000Y-116080000D01*
X71926665Y-121000000D02*
X76846665Y-116080000D01*
X64000000Y-121000000D02*
X59080000Y-116080000D01*
X96926665Y-71000000D02*
X101846665Y-66080000D01*
X84080000Y-66080000D02*
X82000000Y-66080000D01*
X101846665Y-66080000D02*
X103000000Y-66080000D01*
X89000000Y-71000000D02*
X84080000Y-66080000D01*
X89000000Y-71000000D02*
X96926665Y-71000000D01*
X121926665Y-71000000D02*
X126846665Y-66080000D01*
X109080000Y-66080000D02*
X107000000Y-66080000D01*
X84080000Y-116080000D02*
X82000000Y-116080000D01*
X89000000Y-121000000D02*
X96926665Y-121000000D01*
X101846665Y-116080000D02*
X103000000Y-116080000D01*
X96926665Y-121000000D02*
X101846665Y-116080000D01*
X89000000Y-121000000D02*
X84080000Y-116080000D01*
X126846665Y-66080000D02*
X128000000Y-66080000D01*
X114000000Y-71000000D02*
X109080000Y-66080000D01*
X114000000Y-71000000D02*
X121926665Y-71000000D01*
X121926665Y-121000000D02*
X126846665Y-116080000D01*
X126846665Y-116080000D02*
X128000000Y-116080000D01*
X109080000Y-116080000D02*
X107000000Y-116080000D01*
X114000000Y-121000000D02*
X121926665Y-121000000D01*
X114000000Y-121000000D02*
X109080000Y-116080000D01*
X35310000Y-63310000D02*
X32000000Y-63310000D01*
X39000000Y-67000000D02*
X35310000Y-63310000D01*
X51846665Y-63310000D02*
X53000000Y-63310000D01*
X48156665Y-67000000D02*
X51846665Y-63310000D01*
X39000000Y-67000000D02*
X48156665Y-67000000D01*
X35310000Y-113310000D02*
X32000000Y-113310000D01*
X39000000Y-117000000D02*
X35310000Y-113310000D01*
X51846665Y-113310000D02*
X53000000Y-113310000D01*
X48156665Y-117000000D02*
X51846665Y-113310000D01*
X39000000Y-117000000D02*
X48156665Y-117000000D01*
X76846665Y-63310000D02*
X78000000Y-63310000D01*
X73156665Y-67000000D02*
X76846665Y-63310000D01*
X64000000Y-67000000D02*
X73156665Y-67000000D01*
X60310000Y-63310000D02*
X57000000Y-63310000D01*
X64000000Y-67000000D02*
X60310000Y-63310000D01*
X64000000Y-117000000D02*
X60310000Y-113310000D01*
X76846665Y-113310000D02*
X78000000Y-113310000D01*
X60310000Y-113310000D02*
X57000000Y-113310000D01*
X73156665Y-117000000D02*
X76846665Y-113310000D01*
X64000000Y-117000000D02*
X73156665Y-117000000D01*
X101846665Y-63310000D02*
X103000000Y-63310000D01*
X98156665Y-67000000D02*
X101846665Y-63310000D01*
X89000000Y-67000000D02*
X98156665Y-67000000D01*
X85310000Y-63310000D02*
X82000000Y-63310000D01*
X89000000Y-67000000D02*
X85310000Y-63310000D01*
X114000000Y-67000000D02*
X123156665Y-67000000D01*
X110310000Y-63310000D02*
X107000000Y-63310000D01*
X123156665Y-67000000D02*
X126846665Y-63310000D01*
X126846665Y-63310000D02*
X128000000Y-63310000D01*
X89000000Y-117000000D02*
X85310000Y-113310000D01*
X101846665Y-113310000D02*
X103000000Y-113310000D01*
X85310000Y-113310000D02*
X82000000Y-113310000D01*
X98156665Y-117000000D02*
X101846665Y-113310000D01*
X89000000Y-117000000D02*
X98156665Y-117000000D01*
X114000000Y-67000000D02*
X110310000Y-63310000D01*
X110310000Y-113310000D02*
X107000000Y-113310000D01*
X114000000Y-117000000D02*
X123156665Y-117000000D01*
X114000000Y-117000000D02*
X110310000Y-113310000D01*
X123156665Y-117000000D02*
X126846665Y-113310000D01*
X126846665Y-113310000D02*
X128000000Y-113310000D01*
X36540000Y-60540000D02*
X32000000Y-60540000D01*
X39000000Y-63000000D02*
X36540000Y-60540000D01*
X51846665Y-60540000D02*
X53000000Y-60540000D01*
X49386665Y-63000000D02*
X51846665Y-60540000D01*
X39000000Y-63000000D02*
X49386665Y-63000000D01*
X36540000Y-110540000D02*
X32000000Y-110540000D01*
X39000000Y-113000000D02*
X36540000Y-110540000D01*
X51846665Y-110540000D02*
X53000000Y-110540000D01*
X49386665Y-113000000D02*
X51846665Y-110540000D01*
X39000000Y-113000000D02*
X49386665Y-113000000D01*
X64000000Y-63000000D02*
X74386665Y-63000000D01*
X76846665Y-60540000D02*
X78000000Y-60540000D01*
X64000000Y-63000000D02*
X61540000Y-60540000D01*
X74386665Y-63000000D02*
X76846665Y-60540000D01*
X61540000Y-60540000D02*
X57000000Y-60540000D01*
X64000000Y-113000000D02*
X74386665Y-113000000D01*
X61540000Y-110540000D02*
X57000000Y-110540000D01*
X64000000Y-113000000D02*
X61540000Y-110540000D01*
X76846665Y-110540000D02*
X78000000Y-110540000D01*
X74386665Y-113000000D02*
X76846665Y-110540000D01*
X89000000Y-63000000D02*
X99386665Y-63000000D01*
X101846665Y-60540000D02*
X103000000Y-60540000D01*
X89000000Y-63000000D02*
X86540000Y-60540000D01*
X99386665Y-63000000D02*
X101846665Y-60540000D01*
X86540000Y-60540000D02*
X82000000Y-60540000D01*
X114000000Y-63000000D02*
X111540000Y-60540000D01*
X114000000Y-63000000D02*
X124386665Y-63000000D01*
X126846665Y-60540000D02*
X128000000Y-60540000D01*
X89000000Y-113000000D02*
X99386665Y-113000000D01*
X86540000Y-110540000D02*
X82000000Y-110540000D01*
X89000000Y-113000000D02*
X86540000Y-110540000D01*
X101846665Y-110540000D02*
X103000000Y-110540000D01*
X99386665Y-113000000D02*
X101846665Y-110540000D01*
X111540000Y-60540000D02*
X107000000Y-60540000D01*
X124386665Y-63000000D02*
X126846665Y-60540000D01*
X114000000Y-113000000D02*
X124386665Y-113000000D01*
X124386665Y-113000000D02*
X126846665Y-110540000D01*
X114000000Y-113000000D02*
X111540000Y-110540000D01*
X126846665Y-110540000D02*
X128000000Y-110540000D01*
X111540000Y-110540000D02*
X107000000Y-110540000D01*
X37770000Y-57770000D02*
X32000000Y-57770000D01*
X39000000Y-59000000D02*
X37770000Y-57770000D01*
X50260000Y-57770000D02*
X53000000Y-57770000D01*
X49113334Y-58916666D02*
X50260000Y-57770000D01*
X40497547Y-58916666D02*
X49113334Y-58916666D01*
X40414213Y-59000000D02*
X40497547Y-58916666D01*
X39000000Y-59000000D02*
X40414213Y-59000000D01*
X37770000Y-107770000D02*
X32000000Y-107770000D01*
X39000000Y-109000000D02*
X37770000Y-107770000D01*
X50260000Y-107770000D02*
X53000000Y-107770000D01*
X49113334Y-108916666D02*
X50260000Y-107770000D01*
X40497547Y-108916666D02*
X49113334Y-108916666D01*
X40414213Y-109000000D02*
X40497547Y-108916666D01*
X39000000Y-109000000D02*
X40414213Y-109000000D01*
X64000000Y-59000000D02*
X62770000Y-57770000D01*
X74113334Y-58916666D02*
X75260000Y-57770000D01*
X65497547Y-58916666D02*
X74113334Y-58916666D01*
X62770000Y-57770000D02*
X57000000Y-57770000D01*
X75260000Y-57770000D02*
X78000000Y-57770000D01*
X65414213Y-59000000D02*
X65497547Y-58916666D01*
X64000000Y-59000000D02*
X65414213Y-59000000D01*
X65414213Y-109000000D02*
X65497547Y-108916666D01*
X64000000Y-109000000D02*
X62770000Y-107770000D01*
X62770000Y-107770000D02*
X57000000Y-107770000D01*
X74113334Y-108916666D02*
X75260000Y-107770000D01*
X64000000Y-109000000D02*
X65414213Y-109000000D01*
X75260000Y-107770000D02*
X78000000Y-107770000D01*
X65497547Y-108916666D02*
X74113334Y-108916666D01*
X89000000Y-59000000D02*
X87770000Y-57770000D01*
X99113334Y-58916666D02*
X100260000Y-57770000D01*
X90497547Y-58916666D02*
X99113334Y-58916666D01*
X87770000Y-57770000D02*
X82000000Y-57770000D01*
X100260000Y-57770000D02*
X103000000Y-57770000D01*
X90414213Y-59000000D02*
X90497547Y-58916666D01*
X89000000Y-59000000D02*
X90414213Y-59000000D01*
X112770000Y-57770000D02*
X107000000Y-57770000D01*
X115414213Y-59000000D02*
X115497547Y-58916666D01*
X114000000Y-59000000D02*
X115414213Y-59000000D01*
X125260000Y-57770000D02*
X128000000Y-57770000D01*
X115497547Y-58916666D02*
X124113334Y-58916666D01*
X90414213Y-109000000D02*
X90497547Y-108916666D01*
X89000000Y-109000000D02*
X87770000Y-107770000D01*
X87770000Y-107770000D02*
X82000000Y-107770000D01*
X99113334Y-108916666D02*
X100260000Y-107770000D01*
X89000000Y-109000000D02*
X90414213Y-109000000D01*
X100260000Y-107770000D02*
X103000000Y-107770000D01*
X90497547Y-108916666D02*
X99113334Y-108916666D01*
X114000000Y-59000000D02*
X112770000Y-57770000D01*
X124113334Y-58916666D02*
X125260000Y-57770000D01*
X115414213Y-109000000D02*
X115497547Y-108916666D01*
X114000000Y-109000000D02*
X112770000Y-107770000D01*
X114000000Y-109000000D02*
X115414213Y-109000000D01*
X124113334Y-108916666D02*
X125260000Y-107770000D01*
X112770000Y-107770000D02*
X107000000Y-107770000D01*
X115497547Y-108916666D02*
X124113334Y-108916666D01*
X125260000Y-107770000D02*
X128000000Y-107770000D01*
X32000000Y-55000000D02*
X39000000Y-55000000D01*
X39000000Y-55000000D02*
X53000000Y-55000000D01*
X32000000Y-105000000D02*
X39000000Y-105000000D01*
X39000000Y-105000000D02*
X53000000Y-105000000D01*
X57000000Y-55000000D02*
X64000000Y-55000000D01*
X64000000Y-55000000D02*
X78000000Y-55000000D01*
X57000000Y-105000000D02*
X64000000Y-105000000D01*
X64000000Y-105000000D02*
X78000000Y-105000000D01*
X82000000Y-55000000D02*
X89000000Y-55000000D01*
X89000000Y-55000000D02*
X103000000Y-55000000D01*
X107000000Y-55000000D02*
X114000000Y-55000000D01*
X82000000Y-105000000D02*
X89000000Y-105000000D01*
X89000000Y-105000000D02*
X103000000Y-105000000D01*
X114000000Y-55000000D02*
X128000000Y-55000000D01*
X107000000Y-105000000D02*
X114000000Y-105000000D01*
X114000000Y-105000000D02*
X128000000Y-105000000D01*
X37770000Y-52230000D02*
X32000000Y-52230000D01*
X39000000Y-51000000D02*
X37770000Y-52230000D01*
X50260000Y-52230000D02*
X53000000Y-52230000D01*
X49113335Y-51083335D02*
X50260000Y-52230000D01*
X40497548Y-51083335D02*
X49113335Y-51083335D01*
X40414213Y-51000000D02*
X40497548Y-51083335D01*
X39000000Y-51000000D02*
X40414213Y-51000000D01*
X37770000Y-102230000D02*
X32000000Y-102230000D01*
X39000000Y-101000000D02*
X37770000Y-102230000D01*
X50260000Y-102230000D02*
X53000000Y-102230000D01*
X49113335Y-101083335D02*
X50260000Y-102230000D01*
X40497548Y-101083335D02*
X49113335Y-101083335D01*
X40414213Y-101000000D02*
X40497548Y-101083335D01*
X39000000Y-101000000D02*
X40414213Y-101000000D01*
X62770000Y-52230000D02*
X57000000Y-52230000D01*
X75260000Y-52230000D02*
X78000000Y-52230000D01*
X64000000Y-51000000D02*
X65414213Y-51000000D01*
X74113335Y-51083335D02*
X75260000Y-52230000D01*
X65414213Y-51000000D02*
X65497548Y-51083335D01*
X64000000Y-51000000D02*
X62770000Y-52230000D01*
X65497548Y-51083335D02*
X74113335Y-51083335D01*
X75260000Y-102230000D02*
X78000000Y-102230000D01*
X74113335Y-101083335D02*
X75260000Y-102230000D01*
X64000000Y-101000000D02*
X62770000Y-102230000D01*
X65414213Y-101000000D02*
X65497548Y-101083335D01*
X64000000Y-101000000D02*
X65414213Y-101000000D01*
X62770000Y-102230000D02*
X57000000Y-102230000D01*
X65497548Y-101083335D02*
X74113335Y-101083335D01*
X87770000Y-52230000D02*
X82000000Y-52230000D01*
X100260000Y-52230000D02*
X103000000Y-52230000D01*
X89000000Y-51000000D02*
X90414213Y-51000000D01*
X99113335Y-51083335D02*
X100260000Y-52230000D01*
X90414213Y-51000000D02*
X90497548Y-51083335D01*
X89000000Y-51000000D02*
X87770000Y-52230000D01*
X90497548Y-51083335D02*
X99113335Y-51083335D01*
X114000000Y-51000000D02*
X115414213Y-51000000D01*
X124113335Y-51083335D02*
X125260000Y-52230000D01*
X100260000Y-102230000D02*
X103000000Y-102230000D01*
X99113335Y-101083335D02*
X100260000Y-102230000D01*
X89000000Y-101000000D02*
X87770000Y-102230000D01*
X90414213Y-101000000D02*
X90497548Y-101083335D01*
X89000000Y-101000000D02*
X90414213Y-101000000D01*
X87770000Y-102230000D02*
X82000000Y-102230000D01*
X90497548Y-101083335D02*
X99113335Y-101083335D01*
X112770000Y-52230000D02*
X107000000Y-52230000D01*
X125260000Y-52230000D02*
X128000000Y-52230000D01*
X115414213Y-51000000D02*
X115497548Y-51083335D01*
X114000000Y-51000000D02*
X112770000Y-52230000D01*
X115497548Y-51083335D02*
X124113335Y-51083335D01*
X114000000Y-101000000D02*
X115414213Y-101000000D01*
X114000000Y-101000000D02*
X112770000Y-102230000D01*
X125260000Y-102230000D02*
X128000000Y-102230000D01*
X124113335Y-101083335D02*
X125260000Y-102230000D01*
X115414213Y-101000000D02*
X115497548Y-101083335D01*
X112770000Y-102230000D02*
X107000000Y-102230000D01*
X115497548Y-101083335D02*
X124113335Y-101083335D01*
X36540000Y-49460000D02*
X32000000Y-49460000D01*
X39000000Y-47000000D02*
X36540000Y-49460000D01*
X51846664Y-49460000D02*
X53000000Y-49460000D01*
X49386664Y-47000000D02*
X51846664Y-49460000D01*
X39000000Y-47000000D02*
X49386664Y-47000000D01*
X36540000Y-99460000D02*
X32000000Y-99460000D01*
X39000000Y-97000000D02*
X36540000Y-99460000D01*
X51846664Y-99460000D02*
X53000000Y-99460000D01*
X49386664Y-97000000D02*
X51846664Y-99460000D01*
X39000000Y-97000000D02*
X49386664Y-97000000D01*
X64000000Y-47000000D02*
X74386664Y-47000000D01*
X64000000Y-47000000D02*
X61540000Y-49460000D01*
X76846664Y-49460000D02*
X78000000Y-49460000D01*
X61540000Y-49460000D02*
X57000000Y-49460000D01*
X74386664Y-47000000D02*
X76846664Y-49460000D01*
X64000000Y-97000000D02*
X74386664Y-97000000D01*
X74386664Y-97000000D02*
X76846664Y-99460000D01*
X61540000Y-99460000D02*
X57000000Y-99460000D01*
X64000000Y-97000000D02*
X61540000Y-99460000D01*
X76846664Y-99460000D02*
X78000000Y-99460000D01*
X89000000Y-47000000D02*
X99386664Y-47000000D01*
X89000000Y-47000000D02*
X86540000Y-49460000D01*
X101846664Y-49460000D02*
X103000000Y-49460000D01*
X86540000Y-49460000D02*
X82000000Y-49460000D01*
X99386664Y-47000000D02*
X101846664Y-49460000D01*
X114000000Y-47000000D02*
X111540000Y-49460000D01*
X114000000Y-47000000D02*
X124386664Y-47000000D01*
X89000000Y-97000000D02*
X99386664Y-97000000D01*
X99386664Y-97000000D02*
X101846664Y-99460000D01*
X86540000Y-99460000D02*
X82000000Y-99460000D01*
X89000000Y-97000000D02*
X86540000Y-99460000D01*
X101846664Y-99460000D02*
X103000000Y-99460000D01*
X126846664Y-49460000D02*
X128000000Y-49460000D01*
X111540000Y-49460000D02*
X107000000Y-49460000D01*
X124386664Y-47000000D02*
X126846664Y-49460000D01*
X124386664Y-97000000D02*
X126846664Y-99460000D01*
X114000000Y-97000000D02*
X124386664Y-97000000D01*
X114000000Y-97000000D02*
X111540000Y-99460000D01*
X126846664Y-99460000D02*
X128000000Y-99460000D01*
X111540000Y-99460000D02*
X107000000Y-99460000D01*
X35310000Y-46690000D02*
X32000000Y-46690000D01*
X39000000Y-43000000D02*
X35310000Y-46690000D01*
X51846664Y-46690000D02*
X53000000Y-46690000D01*
X48156664Y-43000000D02*
X51846664Y-46690000D01*
X39000000Y-43000000D02*
X48156664Y-43000000D01*
X35310000Y-96690000D02*
X32000000Y-96690000D01*
X39000000Y-93000000D02*
X35310000Y-96690000D01*
X51846664Y-96690000D02*
X53000000Y-96690000D01*
X48156664Y-93000000D02*
X51846664Y-96690000D01*
X39000000Y-93000000D02*
X48156664Y-93000000D01*
X60310000Y-46690000D02*
X57000000Y-46690000D01*
X64000000Y-43000000D02*
X60310000Y-46690000D01*
X76846664Y-46690000D02*
X78000000Y-46690000D01*
X73156664Y-43000000D02*
X76846664Y-46690000D01*
X64000000Y-43000000D02*
X73156664Y-43000000D01*
X73156664Y-93000000D02*
X76846664Y-96690000D01*
X60310000Y-96690000D02*
X57000000Y-96690000D01*
X76846664Y-96690000D02*
X78000000Y-96690000D01*
X64000000Y-93000000D02*
X73156664Y-93000000D01*
X64000000Y-93000000D02*
X60310000Y-96690000D01*
X85310000Y-46690000D02*
X82000000Y-46690000D01*
X89000000Y-43000000D02*
X85310000Y-46690000D01*
X101846664Y-46690000D02*
X103000000Y-46690000D01*
X98156664Y-43000000D02*
X101846664Y-46690000D01*
X89000000Y-43000000D02*
X98156664Y-43000000D01*
X98156664Y-93000000D02*
X101846664Y-96690000D01*
X85310000Y-96690000D02*
X82000000Y-96690000D01*
X101846664Y-96690000D02*
X103000000Y-96690000D01*
X89000000Y-93000000D02*
X98156664Y-93000000D01*
X89000000Y-93000000D02*
X85310000Y-96690000D01*
X123156664Y-43000000D02*
X126846664Y-46690000D01*
X114000000Y-43000000D02*
X123156664Y-43000000D01*
X110310000Y-46690000D02*
X107000000Y-46690000D01*
X126846664Y-46690000D02*
X128000000Y-46690000D01*
X114000000Y-43000000D02*
X110310000Y-46690000D01*
X123156664Y-93000000D02*
X126846664Y-96690000D01*
X110310000Y-96690000D02*
X107000000Y-96690000D01*
X126846664Y-96690000D02*
X128000000Y-96690000D01*
X114000000Y-93000000D02*
X123156664Y-93000000D01*
X114000000Y-93000000D02*
X110310000Y-96690000D01*
X34080000Y-43920000D02*
X32000000Y-43920000D01*
X39000000Y-39000000D02*
X34080000Y-43920000D01*
X51846664Y-43920000D02*
X53000000Y-43920000D01*
X46926664Y-39000000D02*
X51846664Y-43920000D01*
X39000000Y-39000000D02*
X46926664Y-39000000D01*
X34080000Y-93920000D02*
X32000000Y-93920000D01*
X39000000Y-89000000D02*
X34080000Y-93920000D01*
X51846664Y-93920000D02*
X53000000Y-93920000D01*
X46926664Y-89000000D02*
X51846664Y-93920000D01*
X39000000Y-89000000D02*
X46926664Y-89000000D01*
X71926664Y-39000000D02*
X76846664Y-43920000D01*
X64000000Y-39000000D02*
X71926664Y-39000000D01*
X59080000Y-43920000D02*
X57000000Y-43920000D01*
X64000000Y-39000000D02*
X59080000Y-43920000D01*
X76846664Y-43920000D02*
X78000000Y-43920000D01*
X59080000Y-93920000D02*
X57000000Y-93920000D01*
X76846664Y-93920000D02*
X78000000Y-93920000D01*
X64000000Y-89000000D02*
X71926664Y-89000000D01*
X64000000Y-89000000D02*
X59080000Y-93920000D01*
X71926664Y-89000000D02*
X76846664Y-93920000D01*
X96926664Y-39000000D02*
X101846664Y-43920000D01*
X89000000Y-39000000D02*
X96926664Y-39000000D01*
X84080000Y-43920000D02*
X82000000Y-43920000D01*
X89000000Y-39000000D02*
X84080000Y-43920000D01*
X101846664Y-43920000D02*
X103000000Y-43920000D01*
X84080000Y-93920000D02*
X82000000Y-93920000D01*
X101846664Y-93920000D02*
X103000000Y-93920000D01*
X89000000Y-89000000D02*
X96926664Y-89000000D01*
X89000000Y-89000000D02*
X84080000Y-93920000D01*
X96926664Y-89000000D02*
X101846664Y-93920000D01*
X121926664Y-39000000D02*
X126846664Y-43920000D01*
X109080000Y-43920000D02*
X107000000Y-43920000D01*
X114000000Y-39000000D02*
X121926664Y-39000000D01*
X114000000Y-39000000D02*
X109080000Y-43920000D01*
X126846664Y-43920000D02*
X128000000Y-43920000D01*
X114000000Y-89000000D02*
X121926664Y-89000000D01*
X114000000Y-89000000D02*
X109080000Y-93920000D01*
X109080000Y-93920000D02*
X107000000Y-93920000D01*
X121926664Y-89000000D02*
X126846664Y-93920000D01*
X126846664Y-93920000D02*
X128000000Y-93920000D01*
X34264213Y-41150000D02*
X32000000Y-41150000D01*
X39000000Y-36414213D02*
X34264213Y-41150000D01*
X39000000Y-35000000D02*
X39000000Y-36414213D01*
X51846664Y-41150000D02*
X53000000Y-41150000D01*
X50559999Y-39863335D02*
X51846664Y-41150000D01*
X50559999Y-39043997D02*
X50559999Y-39863335D01*
X46516002Y-35000000D02*
X50559999Y-39043997D01*
X39000000Y-35000000D02*
X46516002Y-35000000D01*
X34264213Y-91150000D02*
X32000000Y-91150000D01*
X39000000Y-86414213D02*
X34264213Y-91150000D01*
X39000000Y-85000000D02*
X39000000Y-86414213D01*
X51846664Y-91150000D02*
X53000000Y-91150000D01*
X50559999Y-89863335D02*
X51846664Y-91150000D01*
X50559999Y-89043997D02*
X50559999Y-89863335D01*
X46516002Y-85000000D02*
X50559999Y-89043997D01*
X39000000Y-85000000D02*
X46516002Y-85000000D01*
X59264213Y-41150000D02*
X57000000Y-41150000D01*
X64000000Y-36414213D02*
X59264213Y-41150000D01*
X64000000Y-35000000D02*
X64000000Y-36414213D01*
X75559999Y-39043997D02*
X75559999Y-39863335D01*
X75559999Y-39863335D02*
X76846664Y-41150000D01*
X64000000Y-35000000D02*
X71516002Y-35000000D01*
X76846664Y-41150000D02*
X78000000Y-41150000D01*
X71516002Y-35000000D02*
X75559999Y-39043997D01*
X64000000Y-85000000D02*
X64000000Y-86414213D01*
X71516002Y-85000000D02*
X75559999Y-89043997D01*
X59264213Y-91150000D02*
X57000000Y-91150000D01*
X75559999Y-89043997D02*
X75559999Y-89863335D01*
X76846664Y-91150000D02*
X78000000Y-91150000D01*
X64000000Y-85000000D02*
X71516002Y-85000000D01*
X64000000Y-86414213D02*
X59264213Y-91150000D01*
X75559999Y-89863335D02*
X76846664Y-91150000D01*
X84264213Y-41150000D02*
X82000000Y-41150000D01*
X89000000Y-36414213D02*
X84264213Y-41150000D01*
X89000000Y-35000000D02*
X89000000Y-36414213D01*
X100559999Y-39043997D02*
X100559999Y-39863335D01*
X100559999Y-39863335D02*
X101846664Y-41150000D01*
X89000000Y-35000000D02*
X96516002Y-35000000D01*
X101846664Y-41150000D02*
X103000000Y-41150000D01*
X96516002Y-35000000D02*
X100559999Y-39043997D01*
X89000000Y-85000000D02*
X89000000Y-86414213D01*
X96516002Y-85000000D02*
X100559999Y-89043997D01*
X84264213Y-91150000D02*
X82000000Y-91150000D01*
X100559999Y-89043997D02*
X100559999Y-89863335D01*
X101846664Y-91150000D02*
X103000000Y-91150000D01*
X89000000Y-85000000D02*
X96516002Y-85000000D01*
X89000000Y-86414213D02*
X84264213Y-91150000D01*
X100559999Y-89863335D02*
X101846664Y-91150000D01*
X114000000Y-36414213D02*
X109264213Y-41150000D01*
X109264213Y-41150000D02*
X107000000Y-41150000D01*
X114000000Y-35000000D02*
X114000000Y-36414213D01*
X125559999Y-39043997D02*
X125559999Y-39863335D01*
X125559999Y-39863335D02*
X126846664Y-41150000D01*
X126846664Y-41150000D02*
X128000000Y-41150000D01*
X114000000Y-35000000D02*
X121516002Y-35000000D01*
X121516002Y-35000000D02*
X125559999Y-39043997D01*
X125559999Y-89043997D02*
X125559999Y-89863335D01*
X114000000Y-85000000D02*
X121516002Y-85000000D01*
X109264213Y-91150000D02*
X107000000Y-91150000D01*
X126846664Y-91150000D02*
X128000000Y-91150000D01*
X121516002Y-85000000D02*
X125559999Y-89043997D01*
X114000000Y-85000000D02*
X114000000Y-86414213D01*
X125559999Y-89863335D02*
X126846664Y-91150000D01*
X114000000Y-86414213D02*
X109264213Y-91150000D01*
X32000000Y-38000000D02*
X32000000Y-38380000D01*
X39000000Y-31000000D02*
X32000000Y-38000000D01*
X53000000Y-36456667D02*
X53000000Y-38380000D01*
X47543333Y-31000000D02*
X53000000Y-36456667D01*
X39000000Y-31000000D02*
X47543333Y-31000000D01*
X32000000Y-88000000D02*
X32000000Y-88380000D01*
X39000000Y-81000000D02*
X32000000Y-88000000D01*
X53000000Y-86456667D02*
X53000000Y-88380000D01*
X47543333Y-81000000D02*
X53000000Y-86456667D01*
X39000000Y-81000000D02*
X47543333Y-81000000D01*
X64000000Y-31000000D02*
X72543333Y-31000000D01*
X78000000Y-36456667D02*
X78000000Y-38380000D01*
X72543333Y-31000000D02*
X78000000Y-36456667D01*
X64000000Y-31000000D02*
X57000000Y-38000000D01*
X57000000Y-38000000D02*
X57000000Y-38380000D01*
X57000000Y-88000000D02*
X57000000Y-88380000D01*
X64000000Y-81000000D02*
X72543333Y-81000000D01*
X72543333Y-81000000D02*
X78000000Y-86456667D01*
X64000000Y-81000000D02*
X57000000Y-88000000D01*
X78000000Y-86456667D02*
X78000000Y-88380000D01*
X89000000Y-31000000D02*
X97543333Y-31000000D01*
X103000000Y-36456667D02*
X103000000Y-38380000D01*
X97543333Y-31000000D02*
X103000000Y-36456667D01*
X89000000Y-31000000D02*
X82000000Y-38000000D01*
X82000000Y-38000000D02*
X82000000Y-38380000D01*
X82000000Y-88000000D02*
X82000000Y-88380000D01*
X89000000Y-81000000D02*
X97543333Y-81000000D01*
X97543333Y-81000000D02*
X103000000Y-86456667D01*
X89000000Y-81000000D02*
X82000000Y-88000000D01*
X103000000Y-86456667D02*
X103000000Y-88380000D01*
X114000000Y-31000000D02*
X122543333Y-31000000D01*
X122543333Y-31000000D02*
X128000000Y-36456667D01*
X128000000Y-36456667D02*
X128000000Y-38380000D01*
X107000000Y-38000000D02*
X107000000Y-38380000D01*
X114000000Y-31000000D02*
X107000000Y-38000000D01*
X122543333Y-81000000D02*
X128000000Y-86456667D01*
X107000000Y-88000000D02*
X107000000Y-88380000D01*
X114000000Y-81000000D02*
X122543333Y-81000000D01*
X128000000Y-86456667D02*
X128000000Y-88380000D01*
X114000000Y-81000000D02*
X107000000Y-88000000D01*
M02*
