G04 #@! TF.GenerationSoftware,KiCad,Pcbnew,(5.1.5)-3*
G04 #@! TF.CreationDate,2021-03-24T18:55:27+09:00*
G04 #@! TF.ProjectId,DSub25TestPoint(2x4),44537562-3235-4546-9573-74506f696e74,rev?*
G04 #@! TF.SameCoordinates,Original*
G04 #@! TF.FileFunction,Legend,Top*
G04 #@! TF.FilePolarity,Positive*
%FSLAX46Y46*%
G04 Gerber Fmt 4.6, Leading zero omitted, Abs format (unit mm)*
G04 Created by KiCad (PCBNEW (5.1.5)-3) date 2021-03-24 18:55:27*
%MOMM*%
%LPD*%
G04 APERTURE LIST*
%ADD10C,0.150000*%
%ADD11C,0.120000*%
%ADD12C,0.300000*%
G04 APERTURE END LIST*
D10*
X150928571Y-79785714D02*
X150166666Y-80071428D01*
X150928571Y-80357142D01*
X151404761Y-80071428D02*
X152166666Y-80071428D01*
X153261904Y-79452380D02*
X153595238Y-80452380D01*
X153928571Y-79452380D01*
X154261904Y-80071428D02*
X155023809Y-80071428D01*
X156071428Y-80357142D02*
X156023809Y-80404761D01*
X155880952Y-80452380D01*
X155785714Y-80452380D01*
X155642857Y-80404761D01*
X155547619Y-80309523D01*
X155500000Y-80214285D01*
X155452380Y-80023809D01*
X155452380Y-79880952D01*
X155500000Y-79690476D01*
X155547619Y-79595238D01*
X155642857Y-79500000D01*
X155785714Y-79452380D01*
X155880952Y-79452380D01*
X156023809Y-79500000D01*
X156071428Y-79547619D01*
X156500000Y-79452380D02*
X156500000Y-80261904D01*
X156547619Y-80357142D01*
X156595238Y-80404761D01*
X156690476Y-80452380D01*
X156880952Y-80452380D01*
X156976190Y-80404761D01*
X157023809Y-80357142D01*
X157071428Y-80261904D01*
X157071428Y-79452380D01*
X157404761Y-79452380D02*
X157976190Y-79452380D01*
X157690476Y-80452380D02*
X157690476Y-79452380D01*
X105928571Y-138785714D02*
X105166666Y-139071428D01*
X105928571Y-139357142D01*
X106404761Y-139071428D02*
X107166666Y-139071428D01*
X108261904Y-138452380D02*
X108595238Y-139452380D01*
X108928571Y-138452380D01*
X109261904Y-139071428D02*
X110023809Y-139071428D01*
X111071428Y-139357142D02*
X111023809Y-139404761D01*
X110880952Y-139452380D01*
X110785714Y-139452380D01*
X110642857Y-139404761D01*
X110547619Y-139309523D01*
X110500000Y-139214285D01*
X110452380Y-139023809D01*
X110452380Y-138880952D01*
X110500000Y-138690476D01*
X110547619Y-138595238D01*
X110642857Y-138500000D01*
X110785714Y-138452380D01*
X110880952Y-138452380D01*
X111023809Y-138500000D01*
X111071428Y-138547619D01*
X111500000Y-138452380D02*
X111500000Y-139261904D01*
X111547619Y-139357142D01*
X111595238Y-139404761D01*
X111690476Y-139452380D01*
X111880952Y-139452380D01*
X111976190Y-139404761D01*
X112023809Y-139357142D01*
X112071428Y-139261904D01*
X112071428Y-138452380D01*
X112404761Y-138452380D02*
X112976190Y-138452380D01*
X112690476Y-139452380D02*
X112690476Y-138452380D01*
X80928571Y-138785714D02*
X80166666Y-139071428D01*
X80928571Y-139357142D01*
X81404761Y-139071428D02*
X82166666Y-139071428D01*
X83261904Y-138452380D02*
X83595238Y-139452380D01*
X83928571Y-138452380D01*
X84261904Y-139071428D02*
X85023809Y-139071428D01*
X86071428Y-139357142D02*
X86023809Y-139404761D01*
X85880952Y-139452380D01*
X85785714Y-139452380D01*
X85642857Y-139404761D01*
X85547619Y-139309523D01*
X85500000Y-139214285D01*
X85452380Y-139023809D01*
X85452380Y-138880952D01*
X85500000Y-138690476D01*
X85547619Y-138595238D01*
X85642857Y-138500000D01*
X85785714Y-138452380D01*
X85880952Y-138452380D01*
X86023809Y-138500000D01*
X86071428Y-138547619D01*
X86500000Y-138452380D02*
X86500000Y-139261904D01*
X86547619Y-139357142D01*
X86595238Y-139404761D01*
X86690476Y-139452380D01*
X86880952Y-139452380D01*
X86976190Y-139404761D01*
X87023809Y-139357142D01*
X87071428Y-139261904D01*
X87071428Y-138452380D01*
X87404761Y-138452380D02*
X87976190Y-138452380D01*
X87690476Y-139452380D02*
X87690476Y-138452380D01*
X55928571Y-138785714D02*
X55166666Y-139071428D01*
X55928571Y-139357142D01*
X56404761Y-139071428D02*
X57166666Y-139071428D01*
X58261904Y-138452380D02*
X58595238Y-139452380D01*
X58928571Y-138452380D01*
X59261904Y-139071428D02*
X60023809Y-139071428D01*
X61071428Y-139357142D02*
X61023809Y-139404761D01*
X60880952Y-139452380D01*
X60785714Y-139452380D01*
X60642857Y-139404761D01*
X60547619Y-139309523D01*
X60500000Y-139214285D01*
X60452380Y-139023809D01*
X60452380Y-138880952D01*
X60500000Y-138690476D01*
X60547619Y-138595238D01*
X60642857Y-138500000D01*
X60785714Y-138452380D01*
X60880952Y-138452380D01*
X61023809Y-138500000D01*
X61071428Y-138547619D01*
X61500000Y-138452380D02*
X61500000Y-139261904D01*
X61547619Y-139357142D01*
X61595238Y-139404761D01*
X61690476Y-139452380D01*
X61880952Y-139452380D01*
X61976190Y-139404761D01*
X62023809Y-139357142D01*
X62071428Y-139261904D01*
X62071428Y-138452380D01*
X62404761Y-138452380D02*
X62976190Y-138452380D01*
X62690476Y-139452380D02*
X62690476Y-138452380D01*
X105809523Y-36452380D02*
X105238095Y-36452380D01*
X105523809Y-36452380D02*
X105523809Y-35452380D01*
X105428571Y-35595238D01*
X105333333Y-35690476D01*
X105238095Y-35738095D01*
X106142857Y-35452380D02*
X106761904Y-35452380D01*
X106428571Y-35833333D01*
X106571428Y-35833333D01*
X106666666Y-35880952D01*
X106714285Y-35928571D01*
X106761904Y-36023809D01*
X106761904Y-36261904D01*
X106714285Y-36357142D01*
X106666666Y-36404761D01*
X106571428Y-36452380D01*
X106285714Y-36452380D01*
X106190476Y-36404761D01*
X106142857Y-36357142D01*
X129285714Y-124452380D02*
X128714285Y-124452380D01*
X129000000Y-124452380D02*
X129000000Y-123452380D01*
X128904761Y-123595238D01*
X128809523Y-123690476D01*
X128714285Y-123738095D01*
X128809523Y-36452380D02*
X128238095Y-36452380D01*
X128523809Y-36452380D02*
X128523809Y-35452380D01*
X128428571Y-35595238D01*
X128333333Y-35690476D01*
X128238095Y-35738095D01*
X129142857Y-35452380D02*
X129761904Y-35452380D01*
X129428571Y-35833333D01*
X129571428Y-35833333D01*
X129666666Y-35880952D01*
X129714285Y-35928571D01*
X129761904Y-36023809D01*
X129761904Y-36261904D01*
X129714285Y-36357142D01*
X129666666Y-36404761D01*
X129571428Y-36452380D01*
X129285714Y-36452380D01*
X129190476Y-36404761D01*
X129142857Y-36357142D01*
X129285714Y-74452380D02*
X128714285Y-74452380D01*
X129000000Y-74452380D02*
X129000000Y-73452380D01*
X128904761Y-73595238D01*
X128809523Y-73690476D01*
X128714285Y-73738095D01*
X105809523Y-86452380D02*
X105238095Y-86452380D01*
X105523809Y-86452380D02*
X105523809Y-85452380D01*
X105428571Y-85595238D01*
X105333333Y-85690476D01*
X105238095Y-85738095D01*
X106142857Y-85452380D02*
X106761904Y-85452380D01*
X106428571Y-85833333D01*
X106571428Y-85833333D01*
X106666666Y-85880952D01*
X106714285Y-85928571D01*
X106761904Y-86023809D01*
X106761904Y-86261904D01*
X106714285Y-86357142D01*
X106666666Y-86404761D01*
X106571428Y-86452380D01*
X106285714Y-86452380D01*
X106190476Y-86404761D01*
X106142857Y-86357142D01*
X106285714Y-124452380D02*
X105714285Y-124452380D01*
X106000000Y-124452380D02*
X106000000Y-123452380D01*
X105904761Y-123595238D01*
X105809523Y-123690476D01*
X105714285Y-123738095D01*
X116976190Y-129452380D02*
X116976190Y-128452380D01*
X117214285Y-128452380D01*
X117357142Y-128500000D01*
X117452380Y-128595238D01*
X117500000Y-128690476D01*
X117547619Y-128880952D01*
X117547619Y-129023809D01*
X117500000Y-129214285D01*
X117452380Y-129309523D01*
X117357142Y-129404761D01*
X117214285Y-129452380D01*
X116976190Y-129452380D01*
X117928571Y-129404761D02*
X118071428Y-129452380D01*
X118309523Y-129452380D01*
X118404761Y-129404761D01*
X118452380Y-129357142D01*
X118500000Y-129261904D01*
X118500000Y-129166666D01*
X118452380Y-129071428D01*
X118404761Y-129023809D01*
X118309523Y-128976190D01*
X118119047Y-128928571D01*
X118023809Y-128880952D01*
X117976190Y-128833333D01*
X117928571Y-128738095D01*
X117928571Y-128642857D01*
X117976190Y-128547619D01*
X118023809Y-128500000D01*
X118119047Y-128452380D01*
X118357142Y-128452380D01*
X118500000Y-128500000D01*
X119357142Y-128785714D02*
X119357142Y-129452380D01*
X118928571Y-128785714D02*
X118928571Y-129309523D01*
X118976190Y-129404761D01*
X119071428Y-129452380D01*
X119214285Y-129452380D01*
X119309523Y-129404761D01*
X119357142Y-129357142D01*
X119833333Y-129452380D02*
X119833333Y-128452380D01*
X119833333Y-128833333D02*
X119928571Y-128785714D01*
X120119047Y-128785714D01*
X120214285Y-128833333D01*
X120261904Y-128880952D01*
X120309523Y-128976190D01*
X120309523Y-129261904D01*
X120261904Y-129357142D01*
X120214285Y-129404761D01*
X120119047Y-129452380D01*
X119928571Y-129452380D01*
X119833333Y-129404761D01*
X120690476Y-128547619D02*
X120738095Y-128500000D01*
X120833333Y-128452380D01*
X121071428Y-128452380D01*
X121166666Y-128500000D01*
X121214285Y-128547619D01*
X121261904Y-128642857D01*
X121261904Y-128738095D01*
X121214285Y-128880952D01*
X120642857Y-129452380D01*
X121261904Y-129452380D01*
X122166666Y-128452380D02*
X121690476Y-128452380D01*
X121642857Y-128928571D01*
X121690476Y-128880952D01*
X121785714Y-128833333D01*
X122023809Y-128833333D01*
X122119047Y-128880952D01*
X122166666Y-128928571D01*
X122214285Y-129023809D01*
X122214285Y-129261904D01*
X122166666Y-129357142D01*
X122119047Y-129404761D01*
X122023809Y-129452380D01*
X121785714Y-129452380D01*
X121690476Y-129404761D01*
X121642857Y-129357142D01*
X122500000Y-128452380D02*
X123071428Y-128452380D01*
X122785714Y-129452380D02*
X122785714Y-128452380D01*
X123785714Y-129404761D02*
X123690476Y-129452380D01*
X123500000Y-129452380D01*
X123404761Y-129404761D01*
X123357142Y-129309523D01*
X123357142Y-128928571D01*
X123404761Y-128833333D01*
X123500000Y-128785714D01*
X123690476Y-128785714D01*
X123785714Y-128833333D01*
X123833333Y-128928571D01*
X123833333Y-129023809D01*
X123357142Y-129119047D01*
X124214285Y-129404761D02*
X124309523Y-129452380D01*
X124500000Y-129452380D01*
X124595238Y-129404761D01*
X124642857Y-129309523D01*
X124642857Y-129261904D01*
X124595238Y-129166666D01*
X124500000Y-129119047D01*
X124357142Y-129119047D01*
X124261904Y-129071428D01*
X124214285Y-128976190D01*
X124214285Y-128928571D01*
X124261904Y-128833333D01*
X124357142Y-128785714D01*
X124500000Y-128785714D01*
X124595238Y-128833333D01*
X124928571Y-128785714D02*
X125309523Y-128785714D01*
X125071428Y-128452380D02*
X125071428Y-129309523D01*
X125119047Y-129404761D01*
X125214285Y-129452380D01*
X125309523Y-129452380D01*
X125642857Y-129452380D02*
X125642857Y-128452380D01*
X126023809Y-128452380D01*
X126119047Y-128500000D01*
X126166666Y-128547619D01*
X126214285Y-128642857D01*
X126214285Y-128785714D01*
X126166666Y-128880952D01*
X126119047Y-128928571D01*
X126023809Y-128976190D01*
X125642857Y-128976190D01*
X126785714Y-129452380D02*
X126690476Y-129404761D01*
X126642857Y-129357142D01*
X126595238Y-129261904D01*
X126595238Y-128976190D01*
X126642857Y-128880952D01*
X126690476Y-128833333D01*
X126785714Y-128785714D01*
X126928571Y-128785714D01*
X127023809Y-128833333D01*
X127071428Y-128880952D01*
X127119047Y-128976190D01*
X127119047Y-129261904D01*
X127071428Y-129357142D01*
X127023809Y-129404761D01*
X126928571Y-129452380D01*
X126785714Y-129452380D01*
X127547619Y-129452380D02*
X127547619Y-128785714D01*
X127547619Y-128452380D02*
X127500000Y-128500000D01*
X127547619Y-128547619D01*
X127595238Y-128500000D01*
X127547619Y-128452380D01*
X127547619Y-128547619D01*
X128023809Y-128785714D02*
X128023809Y-129452380D01*
X128023809Y-128880952D02*
X128071428Y-128833333D01*
X128166666Y-128785714D01*
X128309523Y-128785714D01*
X128404761Y-128833333D01*
X128452380Y-128928571D01*
X128452380Y-129452380D01*
X128785714Y-128785714D02*
X129166666Y-128785714D01*
X128928571Y-128452380D02*
X128928571Y-129309523D01*
X128976190Y-129404761D01*
X129071428Y-129452380D01*
X129166666Y-129452380D01*
X128809523Y-86452380D02*
X128238095Y-86452380D01*
X128523809Y-86452380D02*
X128523809Y-85452380D01*
X128428571Y-85595238D01*
X128333333Y-85690476D01*
X128238095Y-85738095D01*
X129142857Y-85452380D02*
X129761904Y-85452380D01*
X129428571Y-85833333D01*
X129571428Y-85833333D01*
X129666666Y-85880952D01*
X129714285Y-85928571D01*
X129761904Y-86023809D01*
X129761904Y-86261904D01*
X129714285Y-86357142D01*
X129666666Y-86404761D01*
X129571428Y-86452380D01*
X129285714Y-86452380D01*
X129190476Y-86404761D01*
X129142857Y-86357142D01*
X116976190Y-79452380D02*
X116976190Y-78452380D01*
X117214285Y-78452380D01*
X117357142Y-78500000D01*
X117452380Y-78595238D01*
X117500000Y-78690476D01*
X117547619Y-78880952D01*
X117547619Y-79023809D01*
X117500000Y-79214285D01*
X117452380Y-79309523D01*
X117357142Y-79404761D01*
X117214285Y-79452380D01*
X116976190Y-79452380D01*
X117928571Y-79404761D02*
X118071428Y-79452380D01*
X118309523Y-79452380D01*
X118404761Y-79404761D01*
X118452380Y-79357142D01*
X118500000Y-79261904D01*
X118500000Y-79166666D01*
X118452380Y-79071428D01*
X118404761Y-79023809D01*
X118309523Y-78976190D01*
X118119047Y-78928571D01*
X118023809Y-78880952D01*
X117976190Y-78833333D01*
X117928571Y-78738095D01*
X117928571Y-78642857D01*
X117976190Y-78547619D01*
X118023809Y-78500000D01*
X118119047Y-78452380D01*
X118357142Y-78452380D01*
X118500000Y-78500000D01*
X119357142Y-78785714D02*
X119357142Y-79452380D01*
X118928571Y-78785714D02*
X118928571Y-79309523D01*
X118976190Y-79404761D01*
X119071428Y-79452380D01*
X119214285Y-79452380D01*
X119309523Y-79404761D01*
X119357142Y-79357142D01*
X119833333Y-79452380D02*
X119833333Y-78452380D01*
X119833333Y-78833333D02*
X119928571Y-78785714D01*
X120119047Y-78785714D01*
X120214285Y-78833333D01*
X120261904Y-78880952D01*
X120309523Y-78976190D01*
X120309523Y-79261904D01*
X120261904Y-79357142D01*
X120214285Y-79404761D01*
X120119047Y-79452380D01*
X119928571Y-79452380D01*
X119833333Y-79404761D01*
X120690476Y-78547619D02*
X120738095Y-78500000D01*
X120833333Y-78452380D01*
X121071428Y-78452380D01*
X121166666Y-78500000D01*
X121214285Y-78547619D01*
X121261904Y-78642857D01*
X121261904Y-78738095D01*
X121214285Y-78880952D01*
X120642857Y-79452380D01*
X121261904Y-79452380D01*
X122166666Y-78452380D02*
X121690476Y-78452380D01*
X121642857Y-78928571D01*
X121690476Y-78880952D01*
X121785714Y-78833333D01*
X122023809Y-78833333D01*
X122119047Y-78880952D01*
X122166666Y-78928571D01*
X122214285Y-79023809D01*
X122214285Y-79261904D01*
X122166666Y-79357142D01*
X122119047Y-79404761D01*
X122023809Y-79452380D01*
X121785714Y-79452380D01*
X121690476Y-79404761D01*
X121642857Y-79357142D01*
X122500000Y-78452380D02*
X123071428Y-78452380D01*
X122785714Y-79452380D02*
X122785714Y-78452380D01*
X123785714Y-79404761D02*
X123690476Y-79452380D01*
X123500000Y-79452380D01*
X123404761Y-79404761D01*
X123357142Y-79309523D01*
X123357142Y-78928571D01*
X123404761Y-78833333D01*
X123500000Y-78785714D01*
X123690476Y-78785714D01*
X123785714Y-78833333D01*
X123833333Y-78928571D01*
X123833333Y-79023809D01*
X123357142Y-79119047D01*
X124214285Y-79404761D02*
X124309523Y-79452380D01*
X124500000Y-79452380D01*
X124595238Y-79404761D01*
X124642857Y-79309523D01*
X124642857Y-79261904D01*
X124595238Y-79166666D01*
X124500000Y-79119047D01*
X124357142Y-79119047D01*
X124261904Y-79071428D01*
X124214285Y-78976190D01*
X124214285Y-78928571D01*
X124261904Y-78833333D01*
X124357142Y-78785714D01*
X124500000Y-78785714D01*
X124595238Y-78833333D01*
X124928571Y-78785714D02*
X125309523Y-78785714D01*
X125071428Y-78452380D02*
X125071428Y-79309523D01*
X125119047Y-79404761D01*
X125214285Y-79452380D01*
X125309523Y-79452380D01*
X125642857Y-79452380D02*
X125642857Y-78452380D01*
X126023809Y-78452380D01*
X126119047Y-78500000D01*
X126166666Y-78547619D01*
X126214285Y-78642857D01*
X126214285Y-78785714D01*
X126166666Y-78880952D01*
X126119047Y-78928571D01*
X126023809Y-78976190D01*
X125642857Y-78976190D01*
X126785714Y-79452380D02*
X126690476Y-79404761D01*
X126642857Y-79357142D01*
X126595238Y-79261904D01*
X126595238Y-78976190D01*
X126642857Y-78880952D01*
X126690476Y-78833333D01*
X126785714Y-78785714D01*
X126928571Y-78785714D01*
X127023809Y-78833333D01*
X127071428Y-78880952D01*
X127119047Y-78976190D01*
X127119047Y-79261904D01*
X127071428Y-79357142D01*
X127023809Y-79404761D01*
X126928571Y-79452380D01*
X126785714Y-79452380D01*
X127547619Y-79452380D02*
X127547619Y-78785714D01*
X127547619Y-78452380D02*
X127500000Y-78500000D01*
X127547619Y-78547619D01*
X127595238Y-78500000D01*
X127547619Y-78452380D01*
X127547619Y-78547619D01*
X128023809Y-78785714D02*
X128023809Y-79452380D01*
X128023809Y-78880952D02*
X128071428Y-78833333D01*
X128166666Y-78785714D01*
X128309523Y-78785714D01*
X128404761Y-78833333D01*
X128452380Y-78928571D01*
X128452380Y-79452380D01*
X128785714Y-78785714D02*
X129166666Y-78785714D01*
X128928571Y-78452380D02*
X128928571Y-79309523D01*
X128976190Y-79404761D01*
X129071428Y-79452380D01*
X129166666Y-79452380D01*
X106285714Y-74452380D02*
X105714285Y-74452380D01*
X106000000Y-74452380D02*
X106000000Y-73452380D01*
X105904761Y-73595238D01*
X105809523Y-73690476D01*
X105714285Y-73738095D01*
X81285714Y-124452380D02*
X80714285Y-124452380D01*
X81000000Y-124452380D02*
X81000000Y-123452380D01*
X80904761Y-123595238D01*
X80809523Y-123690476D01*
X80714285Y-123738095D01*
X91976190Y-129452380D02*
X91976190Y-128452380D01*
X92214285Y-128452380D01*
X92357142Y-128500000D01*
X92452380Y-128595238D01*
X92500000Y-128690476D01*
X92547619Y-128880952D01*
X92547619Y-129023809D01*
X92500000Y-129214285D01*
X92452380Y-129309523D01*
X92357142Y-129404761D01*
X92214285Y-129452380D01*
X91976190Y-129452380D01*
X92928571Y-129404761D02*
X93071428Y-129452380D01*
X93309523Y-129452380D01*
X93404761Y-129404761D01*
X93452380Y-129357142D01*
X93500000Y-129261904D01*
X93500000Y-129166666D01*
X93452380Y-129071428D01*
X93404761Y-129023809D01*
X93309523Y-128976190D01*
X93119047Y-128928571D01*
X93023809Y-128880952D01*
X92976190Y-128833333D01*
X92928571Y-128738095D01*
X92928571Y-128642857D01*
X92976190Y-128547619D01*
X93023809Y-128500000D01*
X93119047Y-128452380D01*
X93357142Y-128452380D01*
X93500000Y-128500000D01*
X94357142Y-128785714D02*
X94357142Y-129452380D01*
X93928571Y-128785714D02*
X93928571Y-129309523D01*
X93976190Y-129404761D01*
X94071428Y-129452380D01*
X94214285Y-129452380D01*
X94309523Y-129404761D01*
X94357142Y-129357142D01*
X94833333Y-129452380D02*
X94833333Y-128452380D01*
X94833333Y-128833333D02*
X94928571Y-128785714D01*
X95119047Y-128785714D01*
X95214285Y-128833333D01*
X95261904Y-128880952D01*
X95309523Y-128976190D01*
X95309523Y-129261904D01*
X95261904Y-129357142D01*
X95214285Y-129404761D01*
X95119047Y-129452380D01*
X94928571Y-129452380D01*
X94833333Y-129404761D01*
X95690476Y-128547619D02*
X95738095Y-128500000D01*
X95833333Y-128452380D01*
X96071428Y-128452380D01*
X96166666Y-128500000D01*
X96214285Y-128547619D01*
X96261904Y-128642857D01*
X96261904Y-128738095D01*
X96214285Y-128880952D01*
X95642857Y-129452380D01*
X96261904Y-129452380D01*
X97166666Y-128452380D02*
X96690476Y-128452380D01*
X96642857Y-128928571D01*
X96690476Y-128880952D01*
X96785714Y-128833333D01*
X97023809Y-128833333D01*
X97119047Y-128880952D01*
X97166666Y-128928571D01*
X97214285Y-129023809D01*
X97214285Y-129261904D01*
X97166666Y-129357142D01*
X97119047Y-129404761D01*
X97023809Y-129452380D01*
X96785714Y-129452380D01*
X96690476Y-129404761D01*
X96642857Y-129357142D01*
X97500000Y-128452380D02*
X98071428Y-128452380D01*
X97785714Y-129452380D02*
X97785714Y-128452380D01*
X98785714Y-129404761D02*
X98690476Y-129452380D01*
X98500000Y-129452380D01*
X98404761Y-129404761D01*
X98357142Y-129309523D01*
X98357142Y-128928571D01*
X98404761Y-128833333D01*
X98500000Y-128785714D01*
X98690476Y-128785714D01*
X98785714Y-128833333D01*
X98833333Y-128928571D01*
X98833333Y-129023809D01*
X98357142Y-129119047D01*
X99214285Y-129404761D02*
X99309523Y-129452380D01*
X99500000Y-129452380D01*
X99595238Y-129404761D01*
X99642857Y-129309523D01*
X99642857Y-129261904D01*
X99595238Y-129166666D01*
X99500000Y-129119047D01*
X99357142Y-129119047D01*
X99261904Y-129071428D01*
X99214285Y-128976190D01*
X99214285Y-128928571D01*
X99261904Y-128833333D01*
X99357142Y-128785714D01*
X99500000Y-128785714D01*
X99595238Y-128833333D01*
X99928571Y-128785714D02*
X100309523Y-128785714D01*
X100071428Y-128452380D02*
X100071428Y-129309523D01*
X100119047Y-129404761D01*
X100214285Y-129452380D01*
X100309523Y-129452380D01*
X100642857Y-129452380D02*
X100642857Y-128452380D01*
X101023809Y-128452380D01*
X101119047Y-128500000D01*
X101166666Y-128547619D01*
X101214285Y-128642857D01*
X101214285Y-128785714D01*
X101166666Y-128880952D01*
X101119047Y-128928571D01*
X101023809Y-128976190D01*
X100642857Y-128976190D01*
X101785714Y-129452380D02*
X101690476Y-129404761D01*
X101642857Y-129357142D01*
X101595238Y-129261904D01*
X101595238Y-128976190D01*
X101642857Y-128880952D01*
X101690476Y-128833333D01*
X101785714Y-128785714D01*
X101928571Y-128785714D01*
X102023809Y-128833333D01*
X102071428Y-128880952D01*
X102119047Y-128976190D01*
X102119047Y-129261904D01*
X102071428Y-129357142D01*
X102023809Y-129404761D01*
X101928571Y-129452380D01*
X101785714Y-129452380D01*
X102547619Y-129452380D02*
X102547619Y-128785714D01*
X102547619Y-128452380D02*
X102500000Y-128500000D01*
X102547619Y-128547619D01*
X102595238Y-128500000D01*
X102547619Y-128452380D01*
X102547619Y-128547619D01*
X103023809Y-128785714D02*
X103023809Y-129452380D01*
X103023809Y-128880952D02*
X103071428Y-128833333D01*
X103166666Y-128785714D01*
X103309523Y-128785714D01*
X103404761Y-128833333D01*
X103452380Y-128928571D01*
X103452380Y-129452380D01*
X103785714Y-128785714D02*
X104166666Y-128785714D01*
X103928571Y-128452380D02*
X103928571Y-129309523D01*
X103976190Y-129404761D01*
X104071428Y-129452380D01*
X104166666Y-129452380D01*
X103809523Y-86452380D02*
X103238095Y-86452380D01*
X103523809Y-86452380D02*
X103523809Y-85452380D01*
X103428571Y-85595238D01*
X103333333Y-85690476D01*
X103238095Y-85738095D01*
X104142857Y-85452380D02*
X104761904Y-85452380D01*
X104428571Y-85833333D01*
X104571428Y-85833333D01*
X104666666Y-85880952D01*
X104714285Y-85928571D01*
X104761904Y-86023809D01*
X104761904Y-86261904D01*
X104714285Y-86357142D01*
X104666666Y-86404761D01*
X104571428Y-86452380D01*
X104285714Y-86452380D01*
X104190476Y-86404761D01*
X104142857Y-86357142D01*
X104285714Y-124452380D02*
X103714285Y-124452380D01*
X104000000Y-124452380D02*
X104000000Y-123452380D01*
X103904761Y-123595238D01*
X103809523Y-123690476D01*
X103714285Y-123738095D01*
X80809523Y-86452380D02*
X80238095Y-86452380D01*
X80523809Y-86452380D02*
X80523809Y-85452380D01*
X80428571Y-85595238D01*
X80333333Y-85690476D01*
X80238095Y-85738095D01*
X81142857Y-85452380D02*
X81761904Y-85452380D01*
X81428571Y-85833333D01*
X81571428Y-85833333D01*
X81666666Y-85880952D01*
X81714285Y-85928571D01*
X81761904Y-86023809D01*
X81761904Y-86261904D01*
X81714285Y-86357142D01*
X81666666Y-86404761D01*
X81571428Y-86452380D01*
X81285714Y-86452380D01*
X81190476Y-86404761D01*
X81142857Y-86357142D01*
X103809523Y-36452380D02*
X103238095Y-36452380D01*
X103523809Y-36452380D02*
X103523809Y-35452380D01*
X103428571Y-35595238D01*
X103333333Y-35690476D01*
X103238095Y-35738095D01*
X104142857Y-35452380D02*
X104761904Y-35452380D01*
X104428571Y-35833333D01*
X104571428Y-35833333D01*
X104666666Y-35880952D01*
X104714285Y-35928571D01*
X104761904Y-36023809D01*
X104761904Y-36261904D01*
X104714285Y-36357142D01*
X104666666Y-36404761D01*
X104571428Y-36452380D01*
X104285714Y-36452380D01*
X104190476Y-36404761D01*
X104142857Y-36357142D01*
X80809523Y-36452380D02*
X80238095Y-36452380D01*
X80523809Y-36452380D02*
X80523809Y-35452380D01*
X80428571Y-35595238D01*
X80333333Y-35690476D01*
X80238095Y-35738095D01*
X81142857Y-35452380D02*
X81761904Y-35452380D01*
X81428571Y-35833333D01*
X81571428Y-35833333D01*
X81666666Y-35880952D01*
X81714285Y-35928571D01*
X81761904Y-36023809D01*
X81761904Y-36261904D01*
X81714285Y-36357142D01*
X81666666Y-36404761D01*
X81571428Y-36452380D01*
X81285714Y-36452380D01*
X81190476Y-36404761D01*
X81142857Y-36357142D01*
X104285714Y-74452380D02*
X103714285Y-74452380D01*
X104000000Y-74452380D02*
X104000000Y-73452380D01*
X103904761Y-73595238D01*
X103809523Y-73690476D01*
X103714285Y-73738095D01*
X81285714Y-74452380D02*
X80714285Y-74452380D01*
X81000000Y-74452380D02*
X81000000Y-73452380D01*
X80904761Y-73595238D01*
X80809523Y-73690476D01*
X80714285Y-73738095D01*
X91976190Y-79452380D02*
X91976190Y-78452380D01*
X92214285Y-78452380D01*
X92357142Y-78500000D01*
X92452380Y-78595238D01*
X92500000Y-78690476D01*
X92547619Y-78880952D01*
X92547619Y-79023809D01*
X92500000Y-79214285D01*
X92452380Y-79309523D01*
X92357142Y-79404761D01*
X92214285Y-79452380D01*
X91976190Y-79452380D01*
X92928571Y-79404761D02*
X93071428Y-79452380D01*
X93309523Y-79452380D01*
X93404761Y-79404761D01*
X93452380Y-79357142D01*
X93500000Y-79261904D01*
X93500000Y-79166666D01*
X93452380Y-79071428D01*
X93404761Y-79023809D01*
X93309523Y-78976190D01*
X93119047Y-78928571D01*
X93023809Y-78880952D01*
X92976190Y-78833333D01*
X92928571Y-78738095D01*
X92928571Y-78642857D01*
X92976190Y-78547619D01*
X93023809Y-78500000D01*
X93119047Y-78452380D01*
X93357142Y-78452380D01*
X93500000Y-78500000D01*
X94357142Y-78785714D02*
X94357142Y-79452380D01*
X93928571Y-78785714D02*
X93928571Y-79309523D01*
X93976190Y-79404761D01*
X94071428Y-79452380D01*
X94214285Y-79452380D01*
X94309523Y-79404761D01*
X94357142Y-79357142D01*
X94833333Y-79452380D02*
X94833333Y-78452380D01*
X94833333Y-78833333D02*
X94928571Y-78785714D01*
X95119047Y-78785714D01*
X95214285Y-78833333D01*
X95261904Y-78880952D01*
X95309523Y-78976190D01*
X95309523Y-79261904D01*
X95261904Y-79357142D01*
X95214285Y-79404761D01*
X95119047Y-79452380D01*
X94928571Y-79452380D01*
X94833333Y-79404761D01*
X95690476Y-78547619D02*
X95738095Y-78500000D01*
X95833333Y-78452380D01*
X96071428Y-78452380D01*
X96166666Y-78500000D01*
X96214285Y-78547619D01*
X96261904Y-78642857D01*
X96261904Y-78738095D01*
X96214285Y-78880952D01*
X95642857Y-79452380D01*
X96261904Y-79452380D01*
X97166666Y-78452380D02*
X96690476Y-78452380D01*
X96642857Y-78928571D01*
X96690476Y-78880952D01*
X96785714Y-78833333D01*
X97023809Y-78833333D01*
X97119047Y-78880952D01*
X97166666Y-78928571D01*
X97214285Y-79023809D01*
X97214285Y-79261904D01*
X97166666Y-79357142D01*
X97119047Y-79404761D01*
X97023809Y-79452380D01*
X96785714Y-79452380D01*
X96690476Y-79404761D01*
X96642857Y-79357142D01*
X97500000Y-78452380D02*
X98071428Y-78452380D01*
X97785714Y-79452380D02*
X97785714Y-78452380D01*
X98785714Y-79404761D02*
X98690476Y-79452380D01*
X98500000Y-79452380D01*
X98404761Y-79404761D01*
X98357142Y-79309523D01*
X98357142Y-78928571D01*
X98404761Y-78833333D01*
X98500000Y-78785714D01*
X98690476Y-78785714D01*
X98785714Y-78833333D01*
X98833333Y-78928571D01*
X98833333Y-79023809D01*
X98357142Y-79119047D01*
X99214285Y-79404761D02*
X99309523Y-79452380D01*
X99500000Y-79452380D01*
X99595238Y-79404761D01*
X99642857Y-79309523D01*
X99642857Y-79261904D01*
X99595238Y-79166666D01*
X99500000Y-79119047D01*
X99357142Y-79119047D01*
X99261904Y-79071428D01*
X99214285Y-78976190D01*
X99214285Y-78928571D01*
X99261904Y-78833333D01*
X99357142Y-78785714D01*
X99500000Y-78785714D01*
X99595238Y-78833333D01*
X99928571Y-78785714D02*
X100309523Y-78785714D01*
X100071428Y-78452380D02*
X100071428Y-79309523D01*
X100119047Y-79404761D01*
X100214285Y-79452380D01*
X100309523Y-79452380D01*
X100642857Y-79452380D02*
X100642857Y-78452380D01*
X101023809Y-78452380D01*
X101119047Y-78500000D01*
X101166666Y-78547619D01*
X101214285Y-78642857D01*
X101214285Y-78785714D01*
X101166666Y-78880952D01*
X101119047Y-78928571D01*
X101023809Y-78976190D01*
X100642857Y-78976190D01*
X101785714Y-79452380D02*
X101690476Y-79404761D01*
X101642857Y-79357142D01*
X101595238Y-79261904D01*
X101595238Y-78976190D01*
X101642857Y-78880952D01*
X101690476Y-78833333D01*
X101785714Y-78785714D01*
X101928571Y-78785714D01*
X102023809Y-78833333D01*
X102071428Y-78880952D01*
X102119047Y-78976190D01*
X102119047Y-79261904D01*
X102071428Y-79357142D01*
X102023809Y-79404761D01*
X101928571Y-79452380D01*
X101785714Y-79452380D01*
X102547619Y-79452380D02*
X102547619Y-78785714D01*
X102547619Y-78452380D02*
X102500000Y-78500000D01*
X102547619Y-78547619D01*
X102595238Y-78500000D01*
X102547619Y-78452380D01*
X102547619Y-78547619D01*
X103023809Y-78785714D02*
X103023809Y-79452380D01*
X103023809Y-78880952D02*
X103071428Y-78833333D01*
X103166666Y-78785714D01*
X103309523Y-78785714D01*
X103404761Y-78833333D01*
X103452380Y-78928571D01*
X103452380Y-79452380D01*
X103785714Y-78785714D02*
X104166666Y-78785714D01*
X103928571Y-78452380D02*
X103928571Y-79309523D01*
X103976190Y-79404761D01*
X104071428Y-79452380D01*
X104166666Y-79452380D01*
X56285714Y-124452380D02*
X55714285Y-124452380D01*
X56000000Y-124452380D02*
X56000000Y-123452380D01*
X55904761Y-123595238D01*
X55809523Y-123690476D01*
X55714285Y-123738095D01*
X66976190Y-129452380D02*
X66976190Y-128452380D01*
X67214285Y-128452380D01*
X67357142Y-128500000D01*
X67452380Y-128595238D01*
X67500000Y-128690476D01*
X67547619Y-128880952D01*
X67547619Y-129023809D01*
X67500000Y-129214285D01*
X67452380Y-129309523D01*
X67357142Y-129404761D01*
X67214285Y-129452380D01*
X66976190Y-129452380D01*
X67928571Y-129404761D02*
X68071428Y-129452380D01*
X68309523Y-129452380D01*
X68404761Y-129404761D01*
X68452380Y-129357142D01*
X68500000Y-129261904D01*
X68500000Y-129166666D01*
X68452380Y-129071428D01*
X68404761Y-129023809D01*
X68309523Y-128976190D01*
X68119047Y-128928571D01*
X68023809Y-128880952D01*
X67976190Y-128833333D01*
X67928571Y-128738095D01*
X67928571Y-128642857D01*
X67976190Y-128547619D01*
X68023809Y-128500000D01*
X68119047Y-128452380D01*
X68357142Y-128452380D01*
X68500000Y-128500000D01*
X69357142Y-128785714D02*
X69357142Y-129452380D01*
X68928571Y-128785714D02*
X68928571Y-129309523D01*
X68976190Y-129404761D01*
X69071428Y-129452380D01*
X69214285Y-129452380D01*
X69309523Y-129404761D01*
X69357142Y-129357142D01*
X69833333Y-129452380D02*
X69833333Y-128452380D01*
X69833333Y-128833333D02*
X69928571Y-128785714D01*
X70119047Y-128785714D01*
X70214285Y-128833333D01*
X70261904Y-128880952D01*
X70309523Y-128976190D01*
X70309523Y-129261904D01*
X70261904Y-129357142D01*
X70214285Y-129404761D01*
X70119047Y-129452380D01*
X69928571Y-129452380D01*
X69833333Y-129404761D01*
X70690476Y-128547619D02*
X70738095Y-128500000D01*
X70833333Y-128452380D01*
X71071428Y-128452380D01*
X71166666Y-128500000D01*
X71214285Y-128547619D01*
X71261904Y-128642857D01*
X71261904Y-128738095D01*
X71214285Y-128880952D01*
X70642857Y-129452380D01*
X71261904Y-129452380D01*
X72166666Y-128452380D02*
X71690476Y-128452380D01*
X71642857Y-128928571D01*
X71690476Y-128880952D01*
X71785714Y-128833333D01*
X72023809Y-128833333D01*
X72119047Y-128880952D01*
X72166666Y-128928571D01*
X72214285Y-129023809D01*
X72214285Y-129261904D01*
X72166666Y-129357142D01*
X72119047Y-129404761D01*
X72023809Y-129452380D01*
X71785714Y-129452380D01*
X71690476Y-129404761D01*
X71642857Y-129357142D01*
X72500000Y-128452380D02*
X73071428Y-128452380D01*
X72785714Y-129452380D02*
X72785714Y-128452380D01*
X73785714Y-129404761D02*
X73690476Y-129452380D01*
X73500000Y-129452380D01*
X73404761Y-129404761D01*
X73357142Y-129309523D01*
X73357142Y-128928571D01*
X73404761Y-128833333D01*
X73500000Y-128785714D01*
X73690476Y-128785714D01*
X73785714Y-128833333D01*
X73833333Y-128928571D01*
X73833333Y-129023809D01*
X73357142Y-129119047D01*
X74214285Y-129404761D02*
X74309523Y-129452380D01*
X74500000Y-129452380D01*
X74595238Y-129404761D01*
X74642857Y-129309523D01*
X74642857Y-129261904D01*
X74595238Y-129166666D01*
X74500000Y-129119047D01*
X74357142Y-129119047D01*
X74261904Y-129071428D01*
X74214285Y-128976190D01*
X74214285Y-128928571D01*
X74261904Y-128833333D01*
X74357142Y-128785714D01*
X74500000Y-128785714D01*
X74595238Y-128833333D01*
X74928571Y-128785714D02*
X75309523Y-128785714D01*
X75071428Y-128452380D02*
X75071428Y-129309523D01*
X75119047Y-129404761D01*
X75214285Y-129452380D01*
X75309523Y-129452380D01*
X75642857Y-129452380D02*
X75642857Y-128452380D01*
X76023809Y-128452380D01*
X76119047Y-128500000D01*
X76166666Y-128547619D01*
X76214285Y-128642857D01*
X76214285Y-128785714D01*
X76166666Y-128880952D01*
X76119047Y-128928571D01*
X76023809Y-128976190D01*
X75642857Y-128976190D01*
X76785714Y-129452380D02*
X76690476Y-129404761D01*
X76642857Y-129357142D01*
X76595238Y-129261904D01*
X76595238Y-128976190D01*
X76642857Y-128880952D01*
X76690476Y-128833333D01*
X76785714Y-128785714D01*
X76928571Y-128785714D01*
X77023809Y-128833333D01*
X77071428Y-128880952D01*
X77119047Y-128976190D01*
X77119047Y-129261904D01*
X77071428Y-129357142D01*
X77023809Y-129404761D01*
X76928571Y-129452380D01*
X76785714Y-129452380D01*
X77547619Y-129452380D02*
X77547619Y-128785714D01*
X77547619Y-128452380D02*
X77500000Y-128500000D01*
X77547619Y-128547619D01*
X77595238Y-128500000D01*
X77547619Y-128452380D01*
X77547619Y-128547619D01*
X78023809Y-128785714D02*
X78023809Y-129452380D01*
X78023809Y-128880952D02*
X78071428Y-128833333D01*
X78166666Y-128785714D01*
X78309523Y-128785714D01*
X78404761Y-128833333D01*
X78452380Y-128928571D01*
X78452380Y-129452380D01*
X78785714Y-128785714D02*
X79166666Y-128785714D01*
X78928571Y-128452380D02*
X78928571Y-129309523D01*
X78976190Y-129404761D01*
X79071428Y-129452380D01*
X79166666Y-129452380D01*
X78809523Y-86452380D02*
X78238095Y-86452380D01*
X78523809Y-86452380D02*
X78523809Y-85452380D01*
X78428571Y-85595238D01*
X78333333Y-85690476D01*
X78238095Y-85738095D01*
X79142857Y-85452380D02*
X79761904Y-85452380D01*
X79428571Y-85833333D01*
X79571428Y-85833333D01*
X79666666Y-85880952D01*
X79714285Y-85928571D01*
X79761904Y-86023809D01*
X79761904Y-86261904D01*
X79714285Y-86357142D01*
X79666666Y-86404761D01*
X79571428Y-86452380D01*
X79285714Y-86452380D01*
X79190476Y-86404761D01*
X79142857Y-86357142D01*
X79285714Y-124452380D02*
X78714285Y-124452380D01*
X79000000Y-124452380D02*
X79000000Y-123452380D01*
X78904761Y-123595238D01*
X78809523Y-123690476D01*
X78714285Y-123738095D01*
X55809523Y-86452380D02*
X55238095Y-86452380D01*
X55523809Y-86452380D02*
X55523809Y-85452380D01*
X55428571Y-85595238D01*
X55333333Y-85690476D01*
X55238095Y-85738095D01*
X56142857Y-85452380D02*
X56761904Y-85452380D01*
X56428571Y-85833333D01*
X56571428Y-85833333D01*
X56666666Y-85880952D01*
X56714285Y-85928571D01*
X56761904Y-86023809D01*
X56761904Y-86261904D01*
X56714285Y-86357142D01*
X56666666Y-86404761D01*
X56571428Y-86452380D01*
X56285714Y-86452380D01*
X56190476Y-86404761D01*
X56142857Y-86357142D01*
X78809523Y-36452380D02*
X78238095Y-36452380D01*
X78523809Y-36452380D02*
X78523809Y-35452380D01*
X78428571Y-35595238D01*
X78333333Y-35690476D01*
X78238095Y-35738095D01*
X79142857Y-35452380D02*
X79761904Y-35452380D01*
X79428571Y-35833333D01*
X79571428Y-35833333D01*
X79666666Y-35880952D01*
X79714285Y-35928571D01*
X79761904Y-36023809D01*
X79761904Y-36261904D01*
X79714285Y-36357142D01*
X79666666Y-36404761D01*
X79571428Y-36452380D01*
X79285714Y-36452380D01*
X79190476Y-36404761D01*
X79142857Y-36357142D01*
X55809523Y-36452380D02*
X55238095Y-36452380D01*
X55523809Y-36452380D02*
X55523809Y-35452380D01*
X55428571Y-35595238D01*
X55333333Y-35690476D01*
X55238095Y-35738095D01*
X56142857Y-35452380D02*
X56761904Y-35452380D01*
X56428571Y-35833333D01*
X56571428Y-35833333D01*
X56666666Y-35880952D01*
X56714285Y-35928571D01*
X56761904Y-36023809D01*
X56761904Y-36261904D01*
X56714285Y-36357142D01*
X56666666Y-36404761D01*
X56571428Y-36452380D01*
X56285714Y-36452380D01*
X56190476Y-36404761D01*
X56142857Y-36357142D01*
X79285714Y-74452380D02*
X78714285Y-74452380D01*
X79000000Y-74452380D02*
X79000000Y-73452380D01*
X78904761Y-73595238D01*
X78809523Y-73690476D01*
X78714285Y-73738095D01*
X56285714Y-74452380D02*
X55714285Y-74452380D01*
X56000000Y-74452380D02*
X56000000Y-73452380D01*
X55904761Y-73595238D01*
X55809523Y-73690476D01*
X55714285Y-73738095D01*
X66976190Y-79452380D02*
X66976190Y-78452380D01*
X67214285Y-78452380D01*
X67357142Y-78500000D01*
X67452380Y-78595238D01*
X67500000Y-78690476D01*
X67547619Y-78880952D01*
X67547619Y-79023809D01*
X67500000Y-79214285D01*
X67452380Y-79309523D01*
X67357142Y-79404761D01*
X67214285Y-79452380D01*
X66976190Y-79452380D01*
X67928571Y-79404761D02*
X68071428Y-79452380D01*
X68309523Y-79452380D01*
X68404761Y-79404761D01*
X68452380Y-79357142D01*
X68500000Y-79261904D01*
X68500000Y-79166666D01*
X68452380Y-79071428D01*
X68404761Y-79023809D01*
X68309523Y-78976190D01*
X68119047Y-78928571D01*
X68023809Y-78880952D01*
X67976190Y-78833333D01*
X67928571Y-78738095D01*
X67928571Y-78642857D01*
X67976190Y-78547619D01*
X68023809Y-78500000D01*
X68119047Y-78452380D01*
X68357142Y-78452380D01*
X68500000Y-78500000D01*
X69357142Y-78785714D02*
X69357142Y-79452380D01*
X68928571Y-78785714D02*
X68928571Y-79309523D01*
X68976190Y-79404761D01*
X69071428Y-79452380D01*
X69214285Y-79452380D01*
X69309523Y-79404761D01*
X69357142Y-79357142D01*
X69833333Y-79452380D02*
X69833333Y-78452380D01*
X69833333Y-78833333D02*
X69928571Y-78785714D01*
X70119047Y-78785714D01*
X70214285Y-78833333D01*
X70261904Y-78880952D01*
X70309523Y-78976190D01*
X70309523Y-79261904D01*
X70261904Y-79357142D01*
X70214285Y-79404761D01*
X70119047Y-79452380D01*
X69928571Y-79452380D01*
X69833333Y-79404761D01*
X70690476Y-78547619D02*
X70738095Y-78500000D01*
X70833333Y-78452380D01*
X71071428Y-78452380D01*
X71166666Y-78500000D01*
X71214285Y-78547619D01*
X71261904Y-78642857D01*
X71261904Y-78738095D01*
X71214285Y-78880952D01*
X70642857Y-79452380D01*
X71261904Y-79452380D01*
X72166666Y-78452380D02*
X71690476Y-78452380D01*
X71642857Y-78928571D01*
X71690476Y-78880952D01*
X71785714Y-78833333D01*
X72023809Y-78833333D01*
X72119047Y-78880952D01*
X72166666Y-78928571D01*
X72214285Y-79023809D01*
X72214285Y-79261904D01*
X72166666Y-79357142D01*
X72119047Y-79404761D01*
X72023809Y-79452380D01*
X71785714Y-79452380D01*
X71690476Y-79404761D01*
X71642857Y-79357142D01*
X72500000Y-78452380D02*
X73071428Y-78452380D01*
X72785714Y-79452380D02*
X72785714Y-78452380D01*
X73785714Y-79404761D02*
X73690476Y-79452380D01*
X73500000Y-79452380D01*
X73404761Y-79404761D01*
X73357142Y-79309523D01*
X73357142Y-78928571D01*
X73404761Y-78833333D01*
X73500000Y-78785714D01*
X73690476Y-78785714D01*
X73785714Y-78833333D01*
X73833333Y-78928571D01*
X73833333Y-79023809D01*
X73357142Y-79119047D01*
X74214285Y-79404761D02*
X74309523Y-79452380D01*
X74500000Y-79452380D01*
X74595238Y-79404761D01*
X74642857Y-79309523D01*
X74642857Y-79261904D01*
X74595238Y-79166666D01*
X74500000Y-79119047D01*
X74357142Y-79119047D01*
X74261904Y-79071428D01*
X74214285Y-78976190D01*
X74214285Y-78928571D01*
X74261904Y-78833333D01*
X74357142Y-78785714D01*
X74500000Y-78785714D01*
X74595238Y-78833333D01*
X74928571Y-78785714D02*
X75309523Y-78785714D01*
X75071428Y-78452380D02*
X75071428Y-79309523D01*
X75119047Y-79404761D01*
X75214285Y-79452380D01*
X75309523Y-79452380D01*
X75642857Y-79452380D02*
X75642857Y-78452380D01*
X76023809Y-78452380D01*
X76119047Y-78500000D01*
X76166666Y-78547619D01*
X76214285Y-78642857D01*
X76214285Y-78785714D01*
X76166666Y-78880952D01*
X76119047Y-78928571D01*
X76023809Y-78976190D01*
X75642857Y-78976190D01*
X76785714Y-79452380D02*
X76690476Y-79404761D01*
X76642857Y-79357142D01*
X76595238Y-79261904D01*
X76595238Y-78976190D01*
X76642857Y-78880952D01*
X76690476Y-78833333D01*
X76785714Y-78785714D01*
X76928571Y-78785714D01*
X77023809Y-78833333D01*
X77071428Y-78880952D01*
X77119047Y-78976190D01*
X77119047Y-79261904D01*
X77071428Y-79357142D01*
X77023809Y-79404761D01*
X76928571Y-79452380D01*
X76785714Y-79452380D01*
X77547619Y-79452380D02*
X77547619Y-78785714D01*
X77547619Y-78452380D02*
X77500000Y-78500000D01*
X77547619Y-78547619D01*
X77595238Y-78500000D01*
X77547619Y-78452380D01*
X77547619Y-78547619D01*
X78023809Y-78785714D02*
X78023809Y-79452380D01*
X78023809Y-78880952D02*
X78071428Y-78833333D01*
X78166666Y-78785714D01*
X78309523Y-78785714D01*
X78404761Y-78833333D01*
X78452380Y-78928571D01*
X78452380Y-79452380D01*
X78785714Y-78785714D02*
X79166666Y-78785714D01*
X78928571Y-78452380D02*
X78928571Y-79309523D01*
X78976190Y-79404761D01*
X79071428Y-79452380D01*
X79166666Y-79452380D01*
X41976190Y-79452380D02*
X41976190Y-78452380D01*
X42214285Y-78452380D01*
X42357142Y-78500000D01*
X42452380Y-78595238D01*
X42500000Y-78690476D01*
X42547619Y-78880952D01*
X42547619Y-79023809D01*
X42500000Y-79214285D01*
X42452380Y-79309523D01*
X42357142Y-79404761D01*
X42214285Y-79452380D01*
X41976190Y-79452380D01*
X42928571Y-79404761D02*
X43071428Y-79452380D01*
X43309523Y-79452380D01*
X43404761Y-79404761D01*
X43452380Y-79357142D01*
X43500000Y-79261904D01*
X43500000Y-79166666D01*
X43452380Y-79071428D01*
X43404761Y-79023809D01*
X43309523Y-78976190D01*
X43119047Y-78928571D01*
X43023809Y-78880952D01*
X42976190Y-78833333D01*
X42928571Y-78738095D01*
X42928571Y-78642857D01*
X42976190Y-78547619D01*
X43023809Y-78500000D01*
X43119047Y-78452380D01*
X43357142Y-78452380D01*
X43500000Y-78500000D01*
X44357142Y-78785714D02*
X44357142Y-79452380D01*
X43928571Y-78785714D02*
X43928571Y-79309523D01*
X43976190Y-79404761D01*
X44071428Y-79452380D01*
X44214285Y-79452380D01*
X44309523Y-79404761D01*
X44357142Y-79357142D01*
X44833333Y-79452380D02*
X44833333Y-78452380D01*
X44833333Y-78833333D02*
X44928571Y-78785714D01*
X45119047Y-78785714D01*
X45214285Y-78833333D01*
X45261904Y-78880952D01*
X45309523Y-78976190D01*
X45309523Y-79261904D01*
X45261904Y-79357142D01*
X45214285Y-79404761D01*
X45119047Y-79452380D01*
X44928571Y-79452380D01*
X44833333Y-79404761D01*
X45690476Y-78547619D02*
X45738095Y-78500000D01*
X45833333Y-78452380D01*
X46071428Y-78452380D01*
X46166666Y-78500000D01*
X46214285Y-78547619D01*
X46261904Y-78642857D01*
X46261904Y-78738095D01*
X46214285Y-78880952D01*
X45642857Y-79452380D01*
X46261904Y-79452380D01*
X47166666Y-78452380D02*
X46690476Y-78452380D01*
X46642857Y-78928571D01*
X46690476Y-78880952D01*
X46785714Y-78833333D01*
X47023809Y-78833333D01*
X47119047Y-78880952D01*
X47166666Y-78928571D01*
X47214285Y-79023809D01*
X47214285Y-79261904D01*
X47166666Y-79357142D01*
X47119047Y-79404761D01*
X47023809Y-79452380D01*
X46785714Y-79452380D01*
X46690476Y-79404761D01*
X46642857Y-79357142D01*
X47500000Y-78452380D02*
X48071428Y-78452380D01*
X47785714Y-79452380D02*
X47785714Y-78452380D01*
X48785714Y-79404761D02*
X48690476Y-79452380D01*
X48500000Y-79452380D01*
X48404761Y-79404761D01*
X48357142Y-79309523D01*
X48357142Y-78928571D01*
X48404761Y-78833333D01*
X48500000Y-78785714D01*
X48690476Y-78785714D01*
X48785714Y-78833333D01*
X48833333Y-78928571D01*
X48833333Y-79023809D01*
X48357142Y-79119047D01*
X49214285Y-79404761D02*
X49309523Y-79452380D01*
X49500000Y-79452380D01*
X49595238Y-79404761D01*
X49642857Y-79309523D01*
X49642857Y-79261904D01*
X49595238Y-79166666D01*
X49500000Y-79119047D01*
X49357142Y-79119047D01*
X49261904Y-79071428D01*
X49214285Y-78976190D01*
X49214285Y-78928571D01*
X49261904Y-78833333D01*
X49357142Y-78785714D01*
X49500000Y-78785714D01*
X49595238Y-78833333D01*
X49928571Y-78785714D02*
X50309523Y-78785714D01*
X50071428Y-78452380D02*
X50071428Y-79309523D01*
X50119047Y-79404761D01*
X50214285Y-79452380D01*
X50309523Y-79452380D01*
X50642857Y-79452380D02*
X50642857Y-78452380D01*
X51023809Y-78452380D01*
X51119047Y-78500000D01*
X51166666Y-78547619D01*
X51214285Y-78642857D01*
X51214285Y-78785714D01*
X51166666Y-78880952D01*
X51119047Y-78928571D01*
X51023809Y-78976190D01*
X50642857Y-78976190D01*
X51785714Y-79452380D02*
X51690476Y-79404761D01*
X51642857Y-79357142D01*
X51595238Y-79261904D01*
X51595238Y-78976190D01*
X51642857Y-78880952D01*
X51690476Y-78833333D01*
X51785714Y-78785714D01*
X51928571Y-78785714D01*
X52023809Y-78833333D01*
X52071428Y-78880952D01*
X52119047Y-78976190D01*
X52119047Y-79261904D01*
X52071428Y-79357142D01*
X52023809Y-79404761D01*
X51928571Y-79452380D01*
X51785714Y-79452380D01*
X52547619Y-79452380D02*
X52547619Y-78785714D01*
X52547619Y-78452380D02*
X52500000Y-78500000D01*
X52547619Y-78547619D01*
X52595238Y-78500000D01*
X52547619Y-78452380D01*
X52547619Y-78547619D01*
X53023809Y-78785714D02*
X53023809Y-79452380D01*
X53023809Y-78880952D02*
X53071428Y-78833333D01*
X53166666Y-78785714D01*
X53309523Y-78785714D01*
X53404761Y-78833333D01*
X53452380Y-78928571D01*
X53452380Y-79452380D01*
X53785714Y-78785714D02*
X54166666Y-78785714D01*
X53928571Y-78452380D02*
X53928571Y-79309523D01*
X53976190Y-79404761D01*
X54071428Y-79452380D01*
X54166666Y-79452380D01*
X53809523Y-36452380D02*
X53238095Y-36452380D01*
X53523809Y-36452380D02*
X53523809Y-35452380D01*
X53428571Y-35595238D01*
X53333333Y-35690476D01*
X53238095Y-35738095D01*
X54142857Y-35452380D02*
X54761904Y-35452380D01*
X54428571Y-35833333D01*
X54571428Y-35833333D01*
X54666666Y-35880952D01*
X54714285Y-35928571D01*
X54761904Y-36023809D01*
X54761904Y-36261904D01*
X54714285Y-36357142D01*
X54666666Y-36404761D01*
X54571428Y-36452380D01*
X54285714Y-36452380D01*
X54190476Y-36404761D01*
X54142857Y-36357142D01*
X30809523Y-36452380D02*
X30238095Y-36452380D01*
X30523809Y-36452380D02*
X30523809Y-35452380D01*
X30428571Y-35595238D01*
X30333333Y-35690476D01*
X30238095Y-35738095D01*
X31142857Y-35452380D02*
X31761904Y-35452380D01*
X31428571Y-35833333D01*
X31571428Y-35833333D01*
X31666666Y-35880952D01*
X31714285Y-35928571D01*
X31761904Y-36023809D01*
X31761904Y-36261904D01*
X31714285Y-36357142D01*
X31666666Y-36404761D01*
X31571428Y-36452380D01*
X31285714Y-36452380D01*
X31190476Y-36404761D01*
X31142857Y-36357142D01*
X54285714Y-74452380D02*
X53714285Y-74452380D01*
X54000000Y-74452380D02*
X54000000Y-73452380D01*
X53904761Y-73595238D01*
X53809523Y-73690476D01*
X53714285Y-73738095D01*
X31285714Y-74452380D02*
X30714285Y-74452380D01*
X31000000Y-74452380D02*
X31000000Y-73452380D01*
X30904761Y-73595238D01*
X30809523Y-73690476D01*
X30714285Y-73738095D01*
X41976190Y-129452380D02*
X41976190Y-128452380D01*
X42214285Y-128452380D01*
X42357142Y-128500000D01*
X42452380Y-128595238D01*
X42500000Y-128690476D01*
X42547619Y-128880952D01*
X42547619Y-129023809D01*
X42500000Y-129214285D01*
X42452380Y-129309523D01*
X42357142Y-129404761D01*
X42214285Y-129452380D01*
X41976190Y-129452380D01*
X42928571Y-129404761D02*
X43071428Y-129452380D01*
X43309523Y-129452380D01*
X43404761Y-129404761D01*
X43452380Y-129357142D01*
X43500000Y-129261904D01*
X43500000Y-129166666D01*
X43452380Y-129071428D01*
X43404761Y-129023809D01*
X43309523Y-128976190D01*
X43119047Y-128928571D01*
X43023809Y-128880952D01*
X42976190Y-128833333D01*
X42928571Y-128738095D01*
X42928571Y-128642857D01*
X42976190Y-128547619D01*
X43023809Y-128500000D01*
X43119047Y-128452380D01*
X43357142Y-128452380D01*
X43500000Y-128500000D01*
X44357142Y-128785714D02*
X44357142Y-129452380D01*
X43928571Y-128785714D02*
X43928571Y-129309523D01*
X43976190Y-129404761D01*
X44071428Y-129452380D01*
X44214285Y-129452380D01*
X44309523Y-129404761D01*
X44357142Y-129357142D01*
X44833333Y-129452380D02*
X44833333Y-128452380D01*
X44833333Y-128833333D02*
X44928571Y-128785714D01*
X45119047Y-128785714D01*
X45214285Y-128833333D01*
X45261904Y-128880952D01*
X45309523Y-128976190D01*
X45309523Y-129261904D01*
X45261904Y-129357142D01*
X45214285Y-129404761D01*
X45119047Y-129452380D01*
X44928571Y-129452380D01*
X44833333Y-129404761D01*
X45690476Y-128547619D02*
X45738095Y-128500000D01*
X45833333Y-128452380D01*
X46071428Y-128452380D01*
X46166666Y-128500000D01*
X46214285Y-128547619D01*
X46261904Y-128642857D01*
X46261904Y-128738095D01*
X46214285Y-128880952D01*
X45642857Y-129452380D01*
X46261904Y-129452380D01*
X47166666Y-128452380D02*
X46690476Y-128452380D01*
X46642857Y-128928571D01*
X46690476Y-128880952D01*
X46785714Y-128833333D01*
X47023809Y-128833333D01*
X47119047Y-128880952D01*
X47166666Y-128928571D01*
X47214285Y-129023809D01*
X47214285Y-129261904D01*
X47166666Y-129357142D01*
X47119047Y-129404761D01*
X47023809Y-129452380D01*
X46785714Y-129452380D01*
X46690476Y-129404761D01*
X46642857Y-129357142D01*
X47500000Y-128452380D02*
X48071428Y-128452380D01*
X47785714Y-129452380D02*
X47785714Y-128452380D01*
X48785714Y-129404761D02*
X48690476Y-129452380D01*
X48500000Y-129452380D01*
X48404761Y-129404761D01*
X48357142Y-129309523D01*
X48357142Y-128928571D01*
X48404761Y-128833333D01*
X48500000Y-128785714D01*
X48690476Y-128785714D01*
X48785714Y-128833333D01*
X48833333Y-128928571D01*
X48833333Y-129023809D01*
X48357142Y-129119047D01*
X49214285Y-129404761D02*
X49309523Y-129452380D01*
X49500000Y-129452380D01*
X49595238Y-129404761D01*
X49642857Y-129309523D01*
X49642857Y-129261904D01*
X49595238Y-129166666D01*
X49500000Y-129119047D01*
X49357142Y-129119047D01*
X49261904Y-129071428D01*
X49214285Y-128976190D01*
X49214285Y-128928571D01*
X49261904Y-128833333D01*
X49357142Y-128785714D01*
X49500000Y-128785714D01*
X49595238Y-128833333D01*
X49928571Y-128785714D02*
X50309523Y-128785714D01*
X50071428Y-128452380D02*
X50071428Y-129309523D01*
X50119047Y-129404761D01*
X50214285Y-129452380D01*
X50309523Y-129452380D01*
X50642857Y-129452380D02*
X50642857Y-128452380D01*
X51023809Y-128452380D01*
X51119047Y-128500000D01*
X51166666Y-128547619D01*
X51214285Y-128642857D01*
X51214285Y-128785714D01*
X51166666Y-128880952D01*
X51119047Y-128928571D01*
X51023809Y-128976190D01*
X50642857Y-128976190D01*
X51785714Y-129452380D02*
X51690476Y-129404761D01*
X51642857Y-129357142D01*
X51595238Y-129261904D01*
X51595238Y-128976190D01*
X51642857Y-128880952D01*
X51690476Y-128833333D01*
X51785714Y-128785714D01*
X51928571Y-128785714D01*
X52023809Y-128833333D01*
X52071428Y-128880952D01*
X52119047Y-128976190D01*
X52119047Y-129261904D01*
X52071428Y-129357142D01*
X52023809Y-129404761D01*
X51928571Y-129452380D01*
X51785714Y-129452380D01*
X52547619Y-129452380D02*
X52547619Y-128785714D01*
X52547619Y-128452380D02*
X52500000Y-128500000D01*
X52547619Y-128547619D01*
X52595238Y-128500000D01*
X52547619Y-128452380D01*
X52547619Y-128547619D01*
X53023809Y-128785714D02*
X53023809Y-129452380D01*
X53023809Y-128880952D02*
X53071428Y-128833333D01*
X53166666Y-128785714D01*
X53309523Y-128785714D01*
X53404761Y-128833333D01*
X53452380Y-128928571D01*
X53452380Y-129452380D01*
X53785714Y-128785714D02*
X54166666Y-128785714D01*
X53928571Y-128452380D02*
X53928571Y-129309523D01*
X53976190Y-129404761D01*
X54071428Y-129452380D01*
X54166666Y-129452380D01*
X53809523Y-86452380D02*
X53238095Y-86452380D01*
X53523809Y-86452380D02*
X53523809Y-85452380D01*
X53428571Y-85595238D01*
X53333333Y-85690476D01*
X53238095Y-85738095D01*
X54142857Y-85452380D02*
X54761904Y-85452380D01*
X54428571Y-85833333D01*
X54571428Y-85833333D01*
X54666666Y-85880952D01*
X54714285Y-85928571D01*
X54761904Y-86023809D01*
X54761904Y-86261904D01*
X54714285Y-86357142D01*
X54666666Y-86404761D01*
X54571428Y-86452380D01*
X54285714Y-86452380D01*
X54190476Y-86404761D01*
X54142857Y-86357142D01*
X30809523Y-86452380D02*
X30238095Y-86452380D01*
X30523809Y-86452380D02*
X30523809Y-85452380D01*
X30428571Y-85595238D01*
X30333333Y-85690476D01*
X30238095Y-85738095D01*
X31142857Y-85452380D02*
X31761904Y-85452380D01*
X31428571Y-85833333D01*
X31571428Y-85833333D01*
X31666666Y-85880952D01*
X31714285Y-85928571D01*
X31761904Y-86023809D01*
X31761904Y-86261904D01*
X31714285Y-86357142D01*
X31666666Y-86404761D01*
X31571428Y-86452380D01*
X31285714Y-86452380D01*
X31190476Y-86404761D01*
X31142857Y-86357142D01*
X54285714Y-124452380D02*
X53714285Y-124452380D01*
X54000000Y-124452380D02*
X54000000Y-123452380D01*
X53904761Y-123595238D01*
X53809523Y-123690476D01*
X53714285Y-123738095D01*
X31285714Y-124452380D02*
X30714285Y-124452380D01*
X31000000Y-124452380D02*
X31000000Y-123452380D01*
X30904761Y-123595238D01*
X30809523Y-123690476D01*
X30714285Y-123738095D01*
D11*
X122200000Y-99000000D02*
G75*
G03X122200000Y-99000000I-1200000J0D01*
G01*
X115200000Y-101000000D02*
G75*
G03X115200000Y-101000000I-1200000J0D01*
G01*
X122200000Y-127000000D02*
G75*
G03X122200000Y-127000000I-1200000J0D01*
G01*
X122200000Y-115000000D02*
G75*
G03X122200000Y-115000000I-1200000J0D01*
G01*
X122200000Y-103000000D02*
G75*
G03X122200000Y-103000000I-1200000J0D01*
G01*
X122200000Y-119000000D02*
G75*
G03X122200000Y-119000000I-1200000J0D01*
G01*
X115200000Y-89000000D02*
G75*
G03X115200000Y-89000000I-1200000J0D01*
G01*
X122200000Y-111000000D02*
G75*
G03X122200000Y-111000000I-1200000J0D01*
G01*
X122200000Y-83000000D02*
G75*
G03X122200000Y-83000000I-1200000J0D01*
G01*
X115200000Y-85000000D02*
G75*
G03X115200000Y-85000000I-1200000J0D01*
G01*
X115200000Y-81000000D02*
G75*
G03X115200000Y-81000000I-1200000J0D01*
G01*
X122200000Y-107000000D02*
G75*
G03X122200000Y-107000000I-1200000J0D01*
G01*
X122200000Y-123000000D02*
G75*
G03X122200000Y-123000000I-1200000J0D01*
G01*
X115200000Y-97000000D02*
G75*
G03X115200000Y-97000000I-1200000J0D01*
G01*
X115200000Y-93000000D02*
G75*
G03X115200000Y-93000000I-1200000J0D01*
G01*
X122200000Y-87000000D02*
G75*
G03X122200000Y-87000000I-1200000J0D01*
G01*
X122200000Y-91000000D02*
G75*
G03X122200000Y-91000000I-1200000J0D01*
G01*
X122200000Y-95000000D02*
G75*
G03X122200000Y-95000000I-1200000J0D01*
G01*
X122200000Y-61000000D02*
G75*
G03X122200000Y-61000000I-1200000J0D01*
G01*
X115200000Y-109000000D02*
G75*
G03X115200000Y-109000000I-1200000J0D01*
G01*
X122200000Y-41000000D02*
G75*
G03X122200000Y-41000000I-1200000J0D01*
G01*
X115200000Y-129000000D02*
G75*
G03X115200000Y-129000000I-1200000J0D01*
G01*
X115200000Y-117000000D02*
G75*
G03X115200000Y-117000000I-1200000J0D01*
G01*
X122200000Y-69000000D02*
G75*
G03X122200000Y-69000000I-1200000J0D01*
G01*
X129740000Y-87196667D02*
X126000000Y-87196667D01*
X126000000Y-87196667D02*
X126000000Y-122803333D01*
X126000000Y-122803333D02*
X129740000Y-122803333D01*
X128000000Y-123043333D02*
X125760000Y-123043333D01*
X125760000Y-123043333D02*
X125760000Y-118850000D01*
X115200000Y-31000000D02*
G75*
G03X115200000Y-31000000I-1200000J0D01*
G01*
X105260000Y-122803333D02*
X109000000Y-122803333D01*
X109000000Y-122803333D02*
X109000000Y-87196667D01*
X109000000Y-87196667D02*
X105260000Y-87196667D01*
X107000000Y-123043333D02*
X109240000Y-123043333D01*
X109240000Y-123043333D02*
X109240000Y-118850000D01*
X115200000Y-113000000D02*
G75*
G03X115200000Y-113000000I-1200000J0D01*
G01*
X115200000Y-121000000D02*
G75*
G03X115200000Y-121000000I-1200000J0D01*
G01*
X122200000Y-37000000D02*
G75*
G03X122200000Y-37000000I-1200000J0D01*
G01*
X122200000Y-73000000D02*
G75*
G03X122200000Y-73000000I-1200000J0D01*
G01*
X122200000Y-53000000D02*
G75*
G03X122200000Y-53000000I-1200000J0D01*
G01*
X122200000Y-65000000D02*
G75*
G03X122200000Y-65000000I-1200000J0D01*
G01*
X115200000Y-125000000D02*
G75*
G03X115200000Y-125000000I-1200000J0D01*
G01*
X115200000Y-105000000D02*
G75*
G03X115200000Y-105000000I-1200000J0D01*
G01*
X115200000Y-51000000D02*
G75*
G03X115200000Y-51000000I-1200000J0D01*
G01*
X115200000Y-47000000D02*
G75*
G03X115200000Y-47000000I-1200000J0D01*
G01*
X129740000Y-37196667D02*
X126000000Y-37196667D01*
X126000000Y-37196667D02*
X126000000Y-72803333D01*
X126000000Y-72803333D02*
X129740000Y-72803333D01*
X128000000Y-73043333D02*
X125760000Y-73043333D01*
X125760000Y-73043333D02*
X125760000Y-68850000D01*
X122200000Y-77000000D02*
G75*
G03X122200000Y-77000000I-1200000J0D01*
G01*
X115200000Y-43000000D02*
G75*
G03X115200000Y-43000000I-1200000J0D01*
G01*
X115200000Y-39000000D02*
G75*
G03X115200000Y-39000000I-1200000J0D01*
G01*
X122200000Y-57000000D02*
G75*
G03X122200000Y-57000000I-1200000J0D01*
G01*
X105260000Y-72803333D02*
X109000000Y-72803333D01*
X109000000Y-72803333D02*
X109000000Y-37196667D01*
X109000000Y-37196667D02*
X105260000Y-37196667D01*
X107000000Y-73043333D02*
X109240000Y-73043333D01*
X109240000Y-73043333D02*
X109240000Y-68850000D01*
X115200000Y-63000000D02*
G75*
G03X115200000Y-63000000I-1200000J0D01*
G01*
X122200000Y-49000000D02*
G75*
G03X122200000Y-49000000I-1200000J0D01*
G01*
X115200000Y-35000000D02*
G75*
G03X115200000Y-35000000I-1200000J0D01*
G01*
X115200000Y-59000000D02*
G75*
G03X115200000Y-59000000I-1200000J0D01*
G01*
X115200000Y-71000000D02*
G75*
G03X115200000Y-71000000I-1200000J0D01*
G01*
X115200000Y-67000000D02*
G75*
G03X115200000Y-67000000I-1200000J0D01*
G01*
X122200000Y-33000000D02*
G75*
G03X122200000Y-33000000I-1200000J0D01*
G01*
X122200000Y-45000000D02*
G75*
G03X122200000Y-45000000I-1200000J0D01*
G01*
X115200000Y-55000000D02*
G75*
G03X115200000Y-55000000I-1200000J0D01*
G01*
X115200000Y-79000000D02*
G75*
G03X115200000Y-79000000I-1200000J0D01*
G01*
X115200000Y-75000000D02*
G75*
G03X115200000Y-75000000I-1200000J0D01*
G01*
X97200000Y-99000000D02*
G75*
G03X97200000Y-99000000I-1200000J0D01*
G01*
X97200000Y-111000000D02*
G75*
G03X97200000Y-111000000I-1200000J0D01*
G01*
X90200000Y-89000000D02*
G75*
G03X90200000Y-89000000I-1200000J0D01*
G01*
X97200000Y-83000000D02*
G75*
G03X97200000Y-83000000I-1200000J0D01*
G01*
X97200000Y-87000000D02*
G75*
G03X97200000Y-87000000I-1200000J0D01*
G01*
X97200000Y-115000000D02*
G75*
G03X97200000Y-115000000I-1200000J0D01*
G01*
X97200000Y-91000000D02*
G75*
G03X97200000Y-91000000I-1200000J0D01*
G01*
X97200000Y-95000000D02*
G75*
G03X97200000Y-95000000I-1200000J0D01*
G01*
X97200000Y-103000000D02*
G75*
G03X97200000Y-103000000I-1200000J0D01*
G01*
X97200000Y-107000000D02*
G75*
G03X97200000Y-107000000I-1200000J0D01*
G01*
X90200000Y-85000000D02*
G75*
G03X90200000Y-85000000I-1200000J0D01*
G01*
X90200000Y-93000000D02*
G75*
G03X90200000Y-93000000I-1200000J0D01*
G01*
X97200000Y-127000000D02*
G75*
G03X97200000Y-127000000I-1200000J0D01*
G01*
X97200000Y-119000000D02*
G75*
G03X97200000Y-119000000I-1200000J0D01*
G01*
X97200000Y-123000000D02*
G75*
G03X97200000Y-123000000I-1200000J0D01*
G01*
X90200000Y-81000000D02*
G75*
G03X90200000Y-81000000I-1200000J0D01*
G01*
X90200000Y-97000000D02*
G75*
G03X90200000Y-97000000I-1200000J0D01*
G01*
X90200000Y-101000000D02*
G75*
G03X90200000Y-101000000I-1200000J0D01*
G01*
X84240000Y-123043333D02*
X84240000Y-118850000D01*
X82000000Y-123043333D02*
X84240000Y-123043333D01*
X84000000Y-87196667D02*
X80260000Y-87196667D01*
X84000000Y-122803333D02*
X84000000Y-87196667D01*
X80260000Y-122803333D02*
X84000000Y-122803333D01*
X90200000Y-113000000D02*
G75*
G03X90200000Y-113000000I-1200000J0D01*
G01*
X90200000Y-125000000D02*
G75*
G03X90200000Y-125000000I-1200000J0D01*
G01*
X90200000Y-129000000D02*
G75*
G03X90200000Y-129000000I-1200000J0D01*
G01*
X90200000Y-105000000D02*
G75*
G03X90200000Y-105000000I-1200000J0D01*
G01*
X90200000Y-109000000D02*
G75*
G03X90200000Y-109000000I-1200000J0D01*
G01*
X90200000Y-121000000D02*
G75*
G03X90200000Y-121000000I-1200000J0D01*
G01*
X90200000Y-117000000D02*
G75*
G03X90200000Y-117000000I-1200000J0D01*
G01*
X100760000Y-123043333D02*
X100760000Y-118850000D01*
X103000000Y-123043333D02*
X100760000Y-123043333D01*
X101000000Y-122803333D02*
X104740000Y-122803333D01*
X101000000Y-87196667D02*
X101000000Y-122803333D01*
X104740000Y-87196667D02*
X101000000Y-87196667D01*
X97200000Y-69000000D02*
G75*
G03X97200000Y-69000000I-1200000J0D01*
G01*
X97200000Y-37000000D02*
G75*
G03X97200000Y-37000000I-1200000J0D01*
G01*
X97200000Y-65000000D02*
G75*
G03X97200000Y-65000000I-1200000J0D01*
G01*
X97200000Y-41000000D02*
G75*
G03X97200000Y-41000000I-1200000J0D01*
G01*
X97200000Y-73000000D02*
G75*
G03X97200000Y-73000000I-1200000J0D01*
G01*
X97200000Y-61000000D02*
G75*
G03X97200000Y-61000000I-1200000J0D01*
G01*
X97200000Y-53000000D02*
G75*
G03X97200000Y-53000000I-1200000J0D01*
G01*
X90200000Y-31000000D02*
G75*
G03X90200000Y-31000000I-1200000J0D01*
G01*
X90200000Y-51000000D02*
G75*
G03X90200000Y-51000000I-1200000J0D01*
G01*
X97200000Y-45000000D02*
G75*
G03X97200000Y-45000000I-1200000J0D01*
G01*
X90200000Y-43000000D02*
G75*
G03X90200000Y-43000000I-1200000J0D01*
G01*
X97200000Y-49000000D02*
G75*
G03X97200000Y-49000000I-1200000J0D01*
G01*
X90200000Y-39000000D02*
G75*
G03X90200000Y-39000000I-1200000J0D01*
G01*
X90200000Y-35000000D02*
G75*
G03X90200000Y-35000000I-1200000J0D01*
G01*
X90200000Y-47000000D02*
G75*
G03X90200000Y-47000000I-1200000J0D01*
G01*
X97200000Y-57000000D02*
G75*
G03X97200000Y-57000000I-1200000J0D01*
G01*
X97200000Y-33000000D02*
G75*
G03X97200000Y-33000000I-1200000J0D01*
G01*
X97200000Y-77000000D02*
G75*
G03X97200000Y-77000000I-1200000J0D01*
G01*
X90200000Y-55000000D02*
G75*
G03X90200000Y-55000000I-1200000J0D01*
G01*
X84240000Y-73043333D02*
X84240000Y-68850000D01*
X82000000Y-73043333D02*
X84240000Y-73043333D01*
X84000000Y-37196667D02*
X80260000Y-37196667D01*
X84000000Y-72803333D02*
X84000000Y-37196667D01*
X80260000Y-72803333D02*
X84000000Y-72803333D01*
X90200000Y-59000000D02*
G75*
G03X90200000Y-59000000I-1200000J0D01*
G01*
X90200000Y-63000000D02*
G75*
G03X90200000Y-63000000I-1200000J0D01*
G01*
X90200000Y-75000000D02*
G75*
G03X90200000Y-75000000I-1200000J0D01*
G01*
X90200000Y-71000000D02*
G75*
G03X90200000Y-71000000I-1200000J0D01*
G01*
X90200000Y-79000000D02*
G75*
G03X90200000Y-79000000I-1200000J0D01*
G01*
X100760000Y-73043333D02*
X100760000Y-68850000D01*
X103000000Y-73043333D02*
X100760000Y-73043333D01*
X101000000Y-72803333D02*
X104740000Y-72803333D01*
X101000000Y-37196667D02*
X101000000Y-72803333D01*
X104740000Y-37196667D02*
X101000000Y-37196667D01*
X90200000Y-67000000D02*
G75*
G03X90200000Y-67000000I-1200000J0D01*
G01*
X72200000Y-99000000D02*
G75*
G03X72200000Y-99000000I-1200000J0D01*
G01*
X72200000Y-111000000D02*
G75*
G03X72200000Y-111000000I-1200000J0D01*
G01*
X65200000Y-89000000D02*
G75*
G03X65200000Y-89000000I-1200000J0D01*
G01*
X72200000Y-83000000D02*
G75*
G03X72200000Y-83000000I-1200000J0D01*
G01*
X72200000Y-87000000D02*
G75*
G03X72200000Y-87000000I-1200000J0D01*
G01*
X72200000Y-115000000D02*
G75*
G03X72200000Y-115000000I-1200000J0D01*
G01*
X72200000Y-91000000D02*
G75*
G03X72200000Y-91000000I-1200000J0D01*
G01*
X72200000Y-95000000D02*
G75*
G03X72200000Y-95000000I-1200000J0D01*
G01*
X72200000Y-103000000D02*
G75*
G03X72200000Y-103000000I-1200000J0D01*
G01*
X72200000Y-107000000D02*
G75*
G03X72200000Y-107000000I-1200000J0D01*
G01*
X65200000Y-85000000D02*
G75*
G03X65200000Y-85000000I-1200000J0D01*
G01*
X65200000Y-93000000D02*
G75*
G03X65200000Y-93000000I-1200000J0D01*
G01*
X72200000Y-127000000D02*
G75*
G03X72200000Y-127000000I-1200000J0D01*
G01*
X72200000Y-119000000D02*
G75*
G03X72200000Y-119000000I-1200000J0D01*
G01*
X72200000Y-123000000D02*
G75*
G03X72200000Y-123000000I-1200000J0D01*
G01*
X65200000Y-81000000D02*
G75*
G03X65200000Y-81000000I-1200000J0D01*
G01*
X65200000Y-97000000D02*
G75*
G03X65200000Y-97000000I-1200000J0D01*
G01*
X65200000Y-101000000D02*
G75*
G03X65200000Y-101000000I-1200000J0D01*
G01*
X59240000Y-123043333D02*
X59240000Y-118850000D01*
X57000000Y-123043333D02*
X59240000Y-123043333D01*
X59000000Y-87196667D02*
X55260000Y-87196667D01*
X59000000Y-122803333D02*
X59000000Y-87196667D01*
X55260000Y-122803333D02*
X59000000Y-122803333D01*
X65200000Y-113000000D02*
G75*
G03X65200000Y-113000000I-1200000J0D01*
G01*
X65200000Y-125000000D02*
G75*
G03X65200000Y-125000000I-1200000J0D01*
G01*
X65200000Y-129000000D02*
G75*
G03X65200000Y-129000000I-1200000J0D01*
G01*
X65200000Y-105000000D02*
G75*
G03X65200000Y-105000000I-1200000J0D01*
G01*
X65200000Y-109000000D02*
G75*
G03X65200000Y-109000000I-1200000J0D01*
G01*
X65200000Y-121000000D02*
G75*
G03X65200000Y-121000000I-1200000J0D01*
G01*
X65200000Y-117000000D02*
G75*
G03X65200000Y-117000000I-1200000J0D01*
G01*
X75760000Y-123043333D02*
X75760000Y-118850000D01*
X78000000Y-123043333D02*
X75760000Y-123043333D01*
X76000000Y-122803333D02*
X79740000Y-122803333D01*
X76000000Y-87196667D02*
X76000000Y-122803333D01*
X79740000Y-87196667D02*
X76000000Y-87196667D01*
X72200000Y-69000000D02*
G75*
G03X72200000Y-69000000I-1200000J0D01*
G01*
X72200000Y-37000000D02*
G75*
G03X72200000Y-37000000I-1200000J0D01*
G01*
X72200000Y-65000000D02*
G75*
G03X72200000Y-65000000I-1200000J0D01*
G01*
X72200000Y-41000000D02*
G75*
G03X72200000Y-41000000I-1200000J0D01*
G01*
X72200000Y-73000000D02*
G75*
G03X72200000Y-73000000I-1200000J0D01*
G01*
X72200000Y-61000000D02*
G75*
G03X72200000Y-61000000I-1200000J0D01*
G01*
X72200000Y-53000000D02*
G75*
G03X72200000Y-53000000I-1200000J0D01*
G01*
X65200000Y-31000000D02*
G75*
G03X65200000Y-31000000I-1200000J0D01*
G01*
X65200000Y-51000000D02*
G75*
G03X65200000Y-51000000I-1200000J0D01*
G01*
X72200000Y-45000000D02*
G75*
G03X72200000Y-45000000I-1200000J0D01*
G01*
X65200000Y-43000000D02*
G75*
G03X65200000Y-43000000I-1200000J0D01*
G01*
X72200000Y-49000000D02*
G75*
G03X72200000Y-49000000I-1200000J0D01*
G01*
X65200000Y-39000000D02*
G75*
G03X65200000Y-39000000I-1200000J0D01*
G01*
X65200000Y-35000000D02*
G75*
G03X65200000Y-35000000I-1200000J0D01*
G01*
X65200000Y-47000000D02*
G75*
G03X65200000Y-47000000I-1200000J0D01*
G01*
X72200000Y-57000000D02*
G75*
G03X72200000Y-57000000I-1200000J0D01*
G01*
X72200000Y-33000000D02*
G75*
G03X72200000Y-33000000I-1200000J0D01*
G01*
X72200000Y-77000000D02*
G75*
G03X72200000Y-77000000I-1200000J0D01*
G01*
X65200000Y-55000000D02*
G75*
G03X65200000Y-55000000I-1200000J0D01*
G01*
X59240000Y-73043333D02*
X59240000Y-68850000D01*
X57000000Y-73043333D02*
X59240000Y-73043333D01*
X59000000Y-37196667D02*
X55260000Y-37196667D01*
X59000000Y-72803333D02*
X59000000Y-37196667D01*
X55260000Y-72803333D02*
X59000000Y-72803333D01*
X65200000Y-59000000D02*
G75*
G03X65200000Y-59000000I-1200000J0D01*
G01*
X65200000Y-63000000D02*
G75*
G03X65200000Y-63000000I-1200000J0D01*
G01*
X65200000Y-75000000D02*
G75*
G03X65200000Y-75000000I-1200000J0D01*
G01*
X65200000Y-71000000D02*
G75*
G03X65200000Y-71000000I-1200000J0D01*
G01*
X65200000Y-79000000D02*
G75*
G03X65200000Y-79000000I-1200000J0D01*
G01*
X75760000Y-73043333D02*
X75760000Y-68850000D01*
X78000000Y-73043333D02*
X75760000Y-73043333D01*
X76000000Y-72803333D02*
X79740000Y-72803333D01*
X76000000Y-37196667D02*
X76000000Y-72803333D01*
X79740000Y-37196667D02*
X76000000Y-37196667D01*
X65200000Y-67000000D02*
G75*
G03X65200000Y-67000000I-1200000J0D01*
G01*
X30260000Y-72803333D02*
X34000000Y-72803333D01*
X34000000Y-72803333D02*
X34000000Y-37196667D01*
X34000000Y-37196667D02*
X30260000Y-37196667D01*
X32000000Y-73043333D02*
X34240000Y-73043333D01*
X34240000Y-73043333D02*
X34240000Y-68850000D01*
X54740000Y-37196667D02*
X51000000Y-37196667D01*
X51000000Y-37196667D02*
X51000000Y-72803333D01*
X51000000Y-72803333D02*
X54740000Y-72803333D01*
X53000000Y-73043333D02*
X50760000Y-73043333D01*
X50760000Y-73043333D02*
X50760000Y-68850000D01*
X40200000Y-79000000D02*
G75*
G03X40200000Y-79000000I-1200000J0D01*
G01*
X40200000Y-75000000D02*
G75*
G03X40200000Y-75000000I-1200000J0D01*
G01*
X40200000Y-71000000D02*
G75*
G03X40200000Y-71000000I-1200000J0D01*
G01*
X40200000Y-67000000D02*
G75*
G03X40200000Y-67000000I-1200000J0D01*
G01*
X40200000Y-63000000D02*
G75*
G03X40200000Y-63000000I-1200000J0D01*
G01*
X40200000Y-59000000D02*
G75*
G03X40200000Y-59000000I-1200000J0D01*
G01*
X40200000Y-55000000D02*
G75*
G03X40200000Y-55000000I-1200000J0D01*
G01*
X40200000Y-51000000D02*
G75*
G03X40200000Y-51000000I-1200000J0D01*
G01*
X40200000Y-47000000D02*
G75*
G03X40200000Y-47000000I-1200000J0D01*
G01*
X40200000Y-43000000D02*
G75*
G03X40200000Y-43000000I-1200000J0D01*
G01*
X40200000Y-39000000D02*
G75*
G03X40200000Y-39000000I-1200000J0D01*
G01*
X40200000Y-35000000D02*
G75*
G03X40200000Y-35000000I-1200000J0D01*
G01*
X40200000Y-31000000D02*
G75*
G03X40200000Y-31000000I-1200000J0D01*
G01*
X47200000Y-77000000D02*
G75*
G03X47200000Y-77000000I-1200000J0D01*
G01*
X47200000Y-73000000D02*
G75*
G03X47200000Y-73000000I-1200000J0D01*
G01*
X47200000Y-69000000D02*
G75*
G03X47200000Y-69000000I-1200000J0D01*
G01*
X47200000Y-65000000D02*
G75*
G03X47200000Y-65000000I-1200000J0D01*
G01*
X47200000Y-61000000D02*
G75*
G03X47200000Y-61000000I-1200000J0D01*
G01*
X47200000Y-57000000D02*
G75*
G03X47200000Y-57000000I-1200000J0D01*
G01*
X47200000Y-53000000D02*
G75*
G03X47200000Y-53000000I-1200000J0D01*
G01*
X47200000Y-49000000D02*
G75*
G03X47200000Y-49000000I-1200000J0D01*
G01*
X47200000Y-45000000D02*
G75*
G03X47200000Y-45000000I-1200000J0D01*
G01*
X47200000Y-41000000D02*
G75*
G03X47200000Y-41000000I-1200000J0D01*
G01*
X47200000Y-37000000D02*
G75*
G03X47200000Y-37000000I-1200000J0D01*
G01*
X47200000Y-33000000D02*
G75*
G03X47200000Y-33000000I-1200000J0D01*
G01*
X30260000Y-122803333D02*
X34000000Y-122803333D01*
X34000000Y-122803333D02*
X34000000Y-87196667D01*
X34000000Y-87196667D02*
X30260000Y-87196667D01*
X32000000Y-123043333D02*
X34240000Y-123043333D01*
X34240000Y-123043333D02*
X34240000Y-118850000D01*
X54740000Y-87196667D02*
X51000000Y-87196667D01*
X51000000Y-87196667D02*
X51000000Y-122803333D01*
X51000000Y-122803333D02*
X54740000Y-122803333D01*
X53000000Y-123043333D02*
X50760000Y-123043333D01*
X50760000Y-123043333D02*
X50760000Y-118850000D01*
X40200000Y-129000000D02*
G75*
G03X40200000Y-129000000I-1200000J0D01*
G01*
X40200000Y-125000000D02*
G75*
G03X40200000Y-125000000I-1200000J0D01*
G01*
X40200000Y-121000000D02*
G75*
G03X40200000Y-121000000I-1200000J0D01*
G01*
X40200000Y-117000000D02*
G75*
G03X40200000Y-117000000I-1200000J0D01*
G01*
X40200000Y-113000000D02*
G75*
G03X40200000Y-113000000I-1200000J0D01*
G01*
X40200000Y-109000000D02*
G75*
G03X40200000Y-109000000I-1200000J0D01*
G01*
X40200000Y-105000000D02*
G75*
G03X40200000Y-105000000I-1200000J0D01*
G01*
X40200000Y-101000000D02*
G75*
G03X40200000Y-101000000I-1200000J0D01*
G01*
X40200000Y-97000000D02*
G75*
G03X40200000Y-97000000I-1200000J0D01*
G01*
X40200000Y-93000000D02*
G75*
G03X40200000Y-93000000I-1200000J0D01*
G01*
X40200000Y-89000000D02*
G75*
G03X40200000Y-89000000I-1200000J0D01*
G01*
X40200000Y-85000000D02*
G75*
G03X40200000Y-85000000I-1200000J0D01*
G01*
X40200000Y-81000000D02*
G75*
G03X40200000Y-81000000I-1200000J0D01*
G01*
X47200000Y-127000000D02*
G75*
G03X47200000Y-127000000I-1200000J0D01*
G01*
X47200000Y-123000000D02*
G75*
G03X47200000Y-123000000I-1200000J0D01*
G01*
X47200000Y-119000000D02*
G75*
G03X47200000Y-119000000I-1200000J0D01*
G01*
X47200000Y-115000000D02*
G75*
G03X47200000Y-115000000I-1200000J0D01*
G01*
X47200000Y-111000000D02*
G75*
G03X47200000Y-111000000I-1200000J0D01*
G01*
X47200000Y-107000000D02*
G75*
G03X47200000Y-107000000I-1200000J0D01*
G01*
X47200000Y-103000000D02*
G75*
G03X47200000Y-103000000I-1200000J0D01*
G01*
X47200000Y-99000000D02*
G75*
G03X47200000Y-99000000I-1200000J0D01*
G01*
X47200000Y-95000000D02*
G75*
G03X47200000Y-95000000I-1200000J0D01*
G01*
X47200000Y-91000000D02*
G75*
G03X47200000Y-91000000I-1200000J0D01*
G01*
X47200000Y-87000000D02*
G75*
G03X47200000Y-87000000I-1200000J0D01*
G01*
X47200000Y-83000000D02*
G75*
G03X47200000Y-83000000I-1200000J0D01*
G01*
D12*
X122476190Y-98095238D02*
X122571428Y-98000000D01*
X122761904Y-97904761D01*
X123238095Y-97904761D01*
X123428571Y-98000000D01*
X123523809Y-98095238D01*
X123619047Y-98285714D01*
X123619047Y-98476190D01*
X123523809Y-98761904D01*
X122380952Y-99904761D01*
X123619047Y-99904761D01*
X125523809Y-99904761D02*
X124380952Y-99904761D01*
X124952380Y-99904761D02*
X124952380Y-97904761D01*
X124761904Y-98190476D01*
X124571428Y-98380952D01*
X124380952Y-98476190D01*
X110809523Y-100761904D02*
X110619047Y-100666666D01*
X110523809Y-100571428D01*
X110428571Y-100380952D01*
X110428571Y-100285714D01*
X110523809Y-100095238D01*
X110619047Y-100000000D01*
X110809523Y-99904761D01*
X111190476Y-99904761D01*
X111380952Y-100000000D01*
X111476190Y-100095238D01*
X111571428Y-100285714D01*
X111571428Y-100380952D01*
X111476190Y-100571428D01*
X111380952Y-100666666D01*
X111190476Y-100761904D01*
X110809523Y-100761904D01*
X110619047Y-100857142D01*
X110523809Y-100952380D01*
X110428571Y-101142857D01*
X110428571Y-101523809D01*
X110523809Y-101714285D01*
X110619047Y-101809523D01*
X110809523Y-101904761D01*
X111190476Y-101904761D01*
X111380952Y-101809523D01*
X111476190Y-101714285D01*
X111571428Y-101523809D01*
X111571428Y-101142857D01*
X111476190Y-100952380D01*
X111380952Y-100857142D01*
X111190476Y-100761904D01*
X123619047Y-127904761D02*
X122476190Y-127904761D01*
X123047619Y-127904761D02*
X123047619Y-125904761D01*
X122857142Y-126190476D01*
X122666666Y-126380952D01*
X122476190Y-126476190D01*
X125333333Y-126571428D02*
X125333333Y-127904761D01*
X124857142Y-125809523D02*
X124380952Y-127238095D01*
X125619047Y-127238095D01*
X123619047Y-115904761D02*
X122476190Y-115904761D01*
X123047619Y-115904761D02*
X123047619Y-113904761D01*
X122857142Y-114190476D01*
X122666666Y-114380952D01*
X122476190Y-114476190D01*
X124285714Y-113904761D02*
X125619047Y-113904761D01*
X124761904Y-115904761D01*
X122476190Y-102095238D02*
X122571428Y-102000000D01*
X122761904Y-101904761D01*
X123238095Y-101904761D01*
X123428571Y-102000000D01*
X123523809Y-102095238D01*
X123619047Y-102285714D01*
X123619047Y-102476190D01*
X123523809Y-102761904D01*
X122380952Y-103904761D01*
X123619047Y-103904761D01*
X124857142Y-101904761D02*
X125047619Y-101904761D01*
X125238095Y-102000000D01*
X125333333Y-102095238D01*
X125428571Y-102285714D01*
X125523809Y-102666666D01*
X125523809Y-103142857D01*
X125428571Y-103523809D01*
X125333333Y-103714285D01*
X125238095Y-103809523D01*
X125047619Y-103904761D01*
X124857142Y-103904761D01*
X124666666Y-103809523D01*
X124571428Y-103714285D01*
X124476190Y-103523809D01*
X124380952Y-103142857D01*
X124380952Y-102666666D01*
X124476190Y-102285714D01*
X124571428Y-102095238D01*
X124666666Y-102000000D01*
X124857142Y-101904761D01*
X123619047Y-119904761D02*
X122476190Y-119904761D01*
X123047619Y-119904761D02*
X123047619Y-117904761D01*
X122857142Y-118190476D01*
X122666666Y-118380952D01*
X122476190Y-118476190D01*
X125333333Y-117904761D02*
X124952380Y-117904761D01*
X124761904Y-118000000D01*
X124666666Y-118095238D01*
X124476190Y-118380952D01*
X124380952Y-118761904D01*
X124380952Y-119523809D01*
X124476190Y-119714285D01*
X124571428Y-119809523D01*
X124761904Y-119904761D01*
X125142857Y-119904761D01*
X125333333Y-119809523D01*
X125428571Y-119714285D01*
X125523809Y-119523809D01*
X125523809Y-119047619D01*
X125428571Y-118857142D01*
X125333333Y-118761904D01*
X125142857Y-118666666D01*
X124761904Y-118666666D01*
X124571428Y-118761904D01*
X124476190Y-118857142D01*
X124380952Y-119047619D01*
X110619047Y-89904761D02*
X109476190Y-89904761D01*
X110047619Y-89904761D02*
X110047619Y-87904761D01*
X109857142Y-88190476D01*
X109666666Y-88380952D01*
X109476190Y-88476190D01*
X112523809Y-89904761D02*
X111380952Y-89904761D01*
X111952380Y-89904761D02*
X111952380Y-87904761D01*
X111761904Y-88190476D01*
X111571428Y-88380952D01*
X111380952Y-88476190D01*
X123619047Y-111904761D02*
X122476190Y-111904761D01*
X123047619Y-111904761D02*
X123047619Y-109904761D01*
X122857142Y-110190476D01*
X122666666Y-110380952D01*
X122476190Y-110476190D01*
X124761904Y-110761904D02*
X124571428Y-110666666D01*
X124476190Y-110571428D01*
X124380952Y-110380952D01*
X124380952Y-110285714D01*
X124476190Y-110095238D01*
X124571428Y-110000000D01*
X124761904Y-109904761D01*
X125142857Y-109904761D01*
X125333333Y-110000000D01*
X125428571Y-110095238D01*
X125523809Y-110285714D01*
X125523809Y-110380952D01*
X125428571Y-110571428D01*
X125333333Y-110666666D01*
X125142857Y-110761904D01*
X124761904Y-110761904D01*
X124571428Y-110857142D01*
X124476190Y-110952380D01*
X124380952Y-111142857D01*
X124380952Y-111523809D01*
X124476190Y-111714285D01*
X124571428Y-111809523D01*
X124761904Y-111904761D01*
X125142857Y-111904761D01*
X125333333Y-111809523D01*
X125428571Y-111714285D01*
X125523809Y-111523809D01*
X125523809Y-111142857D01*
X125428571Y-110952380D01*
X125333333Y-110857142D01*
X125142857Y-110761904D01*
X122476190Y-82095238D02*
X122571428Y-82000000D01*
X122761904Y-81904761D01*
X123238095Y-81904761D01*
X123428571Y-82000000D01*
X123523809Y-82095238D01*
X123619047Y-82285714D01*
X123619047Y-82476190D01*
X123523809Y-82761904D01*
X122380952Y-83904761D01*
X123619047Y-83904761D01*
X125428571Y-81904761D02*
X124476190Y-81904761D01*
X124380952Y-82857142D01*
X124476190Y-82761904D01*
X124666666Y-82666666D01*
X125142857Y-82666666D01*
X125333333Y-82761904D01*
X125428571Y-82857142D01*
X125523809Y-83047619D01*
X125523809Y-83523809D01*
X125428571Y-83714285D01*
X125333333Y-83809523D01*
X125142857Y-83904761D01*
X124666666Y-83904761D01*
X124476190Y-83809523D01*
X124380952Y-83714285D01*
X110619047Y-85904761D02*
X109476190Y-85904761D01*
X110047619Y-85904761D02*
X110047619Y-83904761D01*
X109857142Y-84190476D01*
X109666666Y-84380952D01*
X109476190Y-84476190D01*
X111380952Y-84095238D02*
X111476190Y-84000000D01*
X111666666Y-83904761D01*
X112142857Y-83904761D01*
X112333333Y-84000000D01*
X112428571Y-84095238D01*
X112523809Y-84285714D01*
X112523809Y-84476190D01*
X112428571Y-84761904D01*
X111285714Y-85904761D01*
X112523809Y-85904761D01*
X110619047Y-81904761D02*
X109476190Y-81904761D01*
X110047619Y-81904761D02*
X110047619Y-79904761D01*
X109857142Y-80190476D01*
X109666666Y-80380952D01*
X109476190Y-80476190D01*
X111285714Y-79904761D02*
X112523809Y-79904761D01*
X111857142Y-80666666D01*
X112142857Y-80666666D01*
X112333333Y-80761904D01*
X112428571Y-80857142D01*
X112523809Y-81047619D01*
X112523809Y-81523809D01*
X112428571Y-81714285D01*
X112333333Y-81809523D01*
X112142857Y-81904761D01*
X111571428Y-81904761D01*
X111380952Y-81809523D01*
X111285714Y-81714285D01*
X123619047Y-107904761D02*
X122476190Y-107904761D01*
X123047619Y-107904761D02*
X123047619Y-105904761D01*
X122857142Y-106190476D01*
X122666666Y-106380952D01*
X122476190Y-106476190D01*
X124571428Y-107904761D02*
X124952380Y-107904761D01*
X125142857Y-107809523D01*
X125238095Y-107714285D01*
X125428571Y-107428571D01*
X125523809Y-107047619D01*
X125523809Y-106285714D01*
X125428571Y-106095238D01*
X125333333Y-106000000D01*
X125142857Y-105904761D01*
X124761904Y-105904761D01*
X124571428Y-106000000D01*
X124476190Y-106095238D01*
X124380952Y-106285714D01*
X124380952Y-106761904D01*
X124476190Y-106952380D01*
X124571428Y-107047619D01*
X124761904Y-107142857D01*
X125142857Y-107142857D01*
X125333333Y-107047619D01*
X125428571Y-106952380D01*
X125523809Y-106761904D01*
X123619047Y-123904761D02*
X122476190Y-123904761D01*
X123047619Y-123904761D02*
X123047619Y-121904761D01*
X122857142Y-122190476D01*
X122666666Y-122380952D01*
X122476190Y-122476190D01*
X125428571Y-121904761D02*
X124476190Y-121904761D01*
X124380952Y-122857142D01*
X124476190Y-122761904D01*
X124666666Y-122666666D01*
X125142857Y-122666666D01*
X125333333Y-122761904D01*
X125428571Y-122857142D01*
X125523809Y-123047619D01*
X125523809Y-123523809D01*
X125428571Y-123714285D01*
X125333333Y-123809523D01*
X125142857Y-123904761D01*
X124666666Y-123904761D01*
X124476190Y-123809523D01*
X124380952Y-123714285D01*
X110619047Y-97904761D02*
X111000000Y-97904761D01*
X111190476Y-97809523D01*
X111285714Y-97714285D01*
X111476190Y-97428571D01*
X111571428Y-97047619D01*
X111571428Y-96285714D01*
X111476190Y-96095238D01*
X111380952Y-96000000D01*
X111190476Y-95904761D01*
X110809523Y-95904761D01*
X110619047Y-96000000D01*
X110523809Y-96095238D01*
X110428571Y-96285714D01*
X110428571Y-96761904D01*
X110523809Y-96952380D01*
X110619047Y-97047619D01*
X110809523Y-97142857D01*
X111190476Y-97142857D01*
X111380952Y-97047619D01*
X111476190Y-96952380D01*
X111571428Y-96761904D01*
X110619047Y-93904761D02*
X109476190Y-93904761D01*
X110047619Y-93904761D02*
X110047619Y-91904761D01*
X109857142Y-92190476D01*
X109666666Y-92380952D01*
X109476190Y-92476190D01*
X111857142Y-91904761D02*
X112047619Y-91904761D01*
X112238095Y-92000000D01*
X112333333Y-92095238D01*
X112428571Y-92285714D01*
X112523809Y-92666666D01*
X112523809Y-93142857D01*
X112428571Y-93523809D01*
X112333333Y-93714285D01*
X112238095Y-93809523D01*
X112047619Y-93904761D01*
X111857142Y-93904761D01*
X111666666Y-93809523D01*
X111571428Y-93714285D01*
X111476190Y-93523809D01*
X111380952Y-93142857D01*
X111380952Y-92666666D01*
X111476190Y-92285714D01*
X111571428Y-92095238D01*
X111666666Y-92000000D01*
X111857142Y-91904761D01*
X122476190Y-86095238D02*
X122571428Y-86000000D01*
X122761904Y-85904761D01*
X123238095Y-85904761D01*
X123428571Y-86000000D01*
X123523809Y-86095238D01*
X123619047Y-86285714D01*
X123619047Y-86476190D01*
X123523809Y-86761904D01*
X122380952Y-87904761D01*
X123619047Y-87904761D01*
X125333333Y-86571428D02*
X125333333Y-87904761D01*
X124857142Y-85809523D02*
X124380952Y-87238095D01*
X125619047Y-87238095D01*
X122476190Y-90095238D02*
X122571428Y-90000000D01*
X122761904Y-89904761D01*
X123238095Y-89904761D01*
X123428571Y-90000000D01*
X123523809Y-90095238D01*
X123619047Y-90285714D01*
X123619047Y-90476190D01*
X123523809Y-90761904D01*
X122380952Y-91904761D01*
X123619047Y-91904761D01*
X124285714Y-89904761D02*
X125523809Y-89904761D01*
X124857142Y-90666666D01*
X125142857Y-90666666D01*
X125333333Y-90761904D01*
X125428571Y-90857142D01*
X125523809Y-91047619D01*
X125523809Y-91523809D01*
X125428571Y-91714285D01*
X125333333Y-91809523D01*
X125142857Y-91904761D01*
X124571428Y-91904761D01*
X124380952Y-91809523D01*
X124285714Y-91714285D01*
X122476190Y-94095238D02*
X122571428Y-94000000D01*
X122761904Y-93904761D01*
X123238095Y-93904761D01*
X123428571Y-94000000D01*
X123523809Y-94095238D01*
X123619047Y-94285714D01*
X123619047Y-94476190D01*
X123523809Y-94761904D01*
X122380952Y-95904761D01*
X123619047Y-95904761D01*
X124380952Y-94095238D02*
X124476190Y-94000000D01*
X124666666Y-93904761D01*
X125142857Y-93904761D01*
X125333333Y-94000000D01*
X125428571Y-94095238D01*
X125523809Y-94285714D01*
X125523809Y-94476190D01*
X125428571Y-94761904D01*
X124285714Y-95904761D01*
X125523809Y-95904761D01*
X123619047Y-61904761D02*
X122476190Y-61904761D01*
X123047619Y-61904761D02*
X123047619Y-59904761D01*
X122857142Y-60190476D01*
X122666666Y-60380952D01*
X122476190Y-60476190D01*
X124761904Y-60761904D02*
X124571428Y-60666666D01*
X124476190Y-60571428D01*
X124380952Y-60380952D01*
X124380952Y-60285714D01*
X124476190Y-60095238D01*
X124571428Y-60000000D01*
X124761904Y-59904761D01*
X125142857Y-59904761D01*
X125333333Y-60000000D01*
X125428571Y-60095238D01*
X125523809Y-60285714D01*
X125523809Y-60380952D01*
X125428571Y-60571428D01*
X125333333Y-60666666D01*
X125142857Y-60761904D01*
X124761904Y-60761904D01*
X124571428Y-60857142D01*
X124476190Y-60952380D01*
X124380952Y-61142857D01*
X124380952Y-61523809D01*
X124476190Y-61714285D01*
X124571428Y-61809523D01*
X124761904Y-61904761D01*
X125142857Y-61904761D01*
X125333333Y-61809523D01*
X125428571Y-61714285D01*
X125523809Y-61523809D01*
X125523809Y-61142857D01*
X125428571Y-60952380D01*
X125333333Y-60857142D01*
X125142857Y-60761904D01*
X111380952Y-107904761D02*
X111000000Y-107904761D01*
X110809523Y-108000000D01*
X110714285Y-108095238D01*
X110523809Y-108380952D01*
X110428571Y-108761904D01*
X110428571Y-109523809D01*
X110523809Y-109714285D01*
X110619047Y-109809523D01*
X110809523Y-109904761D01*
X111190476Y-109904761D01*
X111380952Y-109809523D01*
X111476190Y-109714285D01*
X111571428Y-109523809D01*
X111571428Y-109047619D01*
X111476190Y-108857142D01*
X111380952Y-108761904D01*
X111190476Y-108666666D01*
X110809523Y-108666666D01*
X110619047Y-108761904D01*
X110523809Y-108857142D01*
X110428571Y-109047619D01*
X122476190Y-40095238D02*
X122571428Y-40000000D01*
X122761904Y-39904761D01*
X123238095Y-39904761D01*
X123428571Y-40000000D01*
X123523809Y-40095238D01*
X123619047Y-40285714D01*
X123619047Y-40476190D01*
X123523809Y-40761904D01*
X122380952Y-41904761D01*
X123619047Y-41904761D01*
X124285714Y-39904761D02*
X125523809Y-39904761D01*
X124857142Y-40666666D01*
X125142857Y-40666666D01*
X125333333Y-40761904D01*
X125428571Y-40857142D01*
X125523809Y-41047619D01*
X125523809Y-41523809D01*
X125428571Y-41714285D01*
X125333333Y-41809523D01*
X125142857Y-41904761D01*
X124571428Y-41904761D01*
X124380952Y-41809523D01*
X124285714Y-41714285D01*
X111571428Y-129904761D02*
X110428571Y-129904761D01*
X111000000Y-129904761D02*
X111000000Y-127904761D01*
X110809523Y-128190476D01*
X110619047Y-128380952D01*
X110428571Y-128476190D01*
X111380952Y-116571428D02*
X111380952Y-117904761D01*
X110904761Y-115809523D02*
X110428571Y-117238095D01*
X111666666Y-117238095D01*
X123619047Y-69904761D02*
X122476190Y-69904761D01*
X123047619Y-69904761D02*
X123047619Y-67904761D01*
X122857142Y-68190476D01*
X122666666Y-68380952D01*
X122476190Y-68476190D01*
X125333333Y-67904761D02*
X124952380Y-67904761D01*
X124761904Y-68000000D01*
X124666666Y-68095238D01*
X124476190Y-68380952D01*
X124380952Y-68761904D01*
X124380952Y-69523809D01*
X124476190Y-69714285D01*
X124571428Y-69809523D01*
X124761904Y-69904761D01*
X125142857Y-69904761D01*
X125333333Y-69809523D01*
X125428571Y-69714285D01*
X125523809Y-69523809D01*
X125523809Y-69047619D01*
X125428571Y-68857142D01*
X125333333Y-68761904D01*
X125142857Y-68666666D01*
X124761904Y-68666666D01*
X124571428Y-68761904D01*
X124476190Y-68857142D01*
X124380952Y-69047619D01*
X110619047Y-31904761D02*
X109476190Y-31904761D01*
X110047619Y-31904761D02*
X110047619Y-29904761D01*
X109857142Y-30190476D01*
X109666666Y-30380952D01*
X109476190Y-30476190D01*
X111285714Y-29904761D02*
X112523809Y-29904761D01*
X111857142Y-30666666D01*
X112142857Y-30666666D01*
X112333333Y-30761904D01*
X112428571Y-30857142D01*
X112523809Y-31047619D01*
X112523809Y-31523809D01*
X112428571Y-31714285D01*
X112333333Y-31809523D01*
X112142857Y-31904761D01*
X111571428Y-31904761D01*
X111380952Y-31809523D01*
X111285714Y-31714285D01*
X111476190Y-111904761D02*
X110523809Y-111904761D01*
X110428571Y-112857142D01*
X110523809Y-112761904D01*
X110714285Y-112666666D01*
X111190476Y-112666666D01*
X111380952Y-112761904D01*
X111476190Y-112857142D01*
X111571428Y-113047619D01*
X111571428Y-113523809D01*
X111476190Y-113714285D01*
X111380952Y-113809523D01*
X111190476Y-113904761D01*
X110714285Y-113904761D01*
X110523809Y-113809523D01*
X110428571Y-113714285D01*
X110333333Y-119904761D02*
X111571428Y-119904761D01*
X110904761Y-120666666D01*
X111190476Y-120666666D01*
X111380952Y-120761904D01*
X111476190Y-120857142D01*
X111571428Y-121047619D01*
X111571428Y-121523809D01*
X111476190Y-121714285D01*
X111380952Y-121809523D01*
X111190476Y-121904761D01*
X110619047Y-121904761D01*
X110428571Y-121809523D01*
X110333333Y-121714285D01*
X122476190Y-36095238D02*
X122571428Y-36000000D01*
X122761904Y-35904761D01*
X123238095Y-35904761D01*
X123428571Y-36000000D01*
X123523809Y-36095238D01*
X123619047Y-36285714D01*
X123619047Y-36476190D01*
X123523809Y-36761904D01*
X122380952Y-37904761D01*
X123619047Y-37904761D01*
X125333333Y-36571428D02*
X125333333Y-37904761D01*
X124857142Y-35809523D02*
X124380952Y-37238095D01*
X125619047Y-37238095D01*
X123619047Y-73904761D02*
X122476190Y-73904761D01*
X123047619Y-73904761D02*
X123047619Y-71904761D01*
X122857142Y-72190476D01*
X122666666Y-72380952D01*
X122476190Y-72476190D01*
X125428571Y-71904761D02*
X124476190Y-71904761D01*
X124380952Y-72857142D01*
X124476190Y-72761904D01*
X124666666Y-72666666D01*
X125142857Y-72666666D01*
X125333333Y-72761904D01*
X125428571Y-72857142D01*
X125523809Y-73047619D01*
X125523809Y-73523809D01*
X125428571Y-73714285D01*
X125333333Y-73809523D01*
X125142857Y-73904761D01*
X124666666Y-73904761D01*
X124476190Y-73809523D01*
X124380952Y-73714285D01*
X122476190Y-52095238D02*
X122571428Y-52000000D01*
X122761904Y-51904761D01*
X123238095Y-51904761D01*
X123428571Y-52000000D01*
X123523809Y-52095238D01*
X123619047Y-52285714D01*
X123619047Y-52476190D01*
X123523809Y-52761904D01*
X122380952Y-53904761D01*
X123619047Y-53904761D01*
X124857142Y-51904761D02*
X125047619Y-51904761D01*
X125238095Y-52000000D01*
X125333333Y-52095238D01*
X125428571Y-52285714D01*
X125523809Y-52666666D01*
X125523809Y-53142857D01*
X125428571Y-53523809D01*
X125333333Y-53714285D01*
X125238095Y-53809523D01*
X125047619Y-53904761D01*
X124857142Y-53904761D01*
X124666666Y-53809523D01*
X124571428Y-53714285D01*
X124476190Y-53523809D01*
X124380952Y-53142857D01*
X124380952Y-52666666D01*
X124476190Y-52285714D01*
X124571428Y-52095238D01*
X124666666Y-52000000D01*
X124857142Y-51904761D01*
X123619047Y-65904761D02*
X122476190Y-65904761D01*
X123047619Y-65904761D02*
X123047619Y-63904761D01*
X122857142Y-64190476D01*
X122666666Y-64380952D01*
X122476190Y-64476190D01*
X124285714Y-63904761D02*
X125619047Y-63904761D01*
X124761904Y-65904761D01*
X110428571Y-124095238D02*
X110523809Y-124000000D01*
X110714285Y-123904761D01*
X111190476Y-123904761D01*
X111380952Y-124000000D01*
X111476190Y-124095238D01*
X111571428Y-124285714D01*
X111571428Y-124476190D01*
X111476190Y-124761904D01*
X110333333Y-125904761D01*
X111571428Y-125904761D01*
X110333333Y-103904761D02*
X111666666Y-103904761D01*
X110809523Y-105904761D01*
X110809523Y-50761904D02*
X110619047Y-50666666D01*
X110523809Y-50571428D01*
X110428571Y-50380952D01*
X110428571Y-50285714D01*
X110523809Y-50095238D01*
X110619047Y-50000000D01*
X110809523Y-49904761D01*
X111190476Y-49904761D01*
X111380952Y-50000000D01*
X111476190Y-50095238D01*
X111571428Y-50285714D01*
X111571428Y-50380952D01*
X111476190Y-50571428D01*
X111380952Y-50666666D01*
X111190476Y-50761904D01*
X110809523Y-50761904D01*
X110619047Y-50857142D01*
X110523809Y-50952380D01*
X110428571Y-51142857D01*
X110428571Y-51523809D01*
X110523809Y-51714285D01*
X110619047Y-51809523D01*
X110809523Y-51904761D01*
X111190476Y-51904761D01*
X111380952Y-51809523D01*
X111476190Y-51714285D01*
X111571428Y-51523809D01*
X111571428Y-51142857D01*
X111476190Y-50952380D01*
X111380952Y-50857142D01*
X111190476Y-50761904D01*
X110619047Y-47904761D02*
X111000000Y-47904761D01*
X111190476Y-47809523D01*
X111285714Y-47714285D01*
X111476190Y-47428571D01*
X111571428Y-47047619D01*
X111571428Y-46285714D01*
X111476190Y-46095238D01*
X111380952Y-46000000D01*
X111190476Y-45904761D01*
X110809523Y-45904761D01*
X110619047Y-46000000D01*
X110523809Y-46095238D01*
X110428571Y-46285714D01*
X110428571Y-46761904D01*
X110523809Y-46952380D01*
X110619047Y-47047619D01*
X110809523Y-47142857D01*
X111190476Y-47142857D01*
X111380952Y-47047619D01*
X111476190Y-46952380D01*
X111571428Y-46761904D01*
X123619047Y-77904761D02*
X122476190Y-77904761D01*
X123047619Y-77904761D02*
X123047619Y-75904761D01*
X122857142Y-76190476D01*
X122666666Y-76380952D01*
X122476190Y-76476190D01*
X125333333Y-76571428D02*
X125333333Y-77904761D01*
X124857142Y-75809523D02*
X124380952Y-77238095D01*
X125619047Y-77238095D01*
X110619047Y-43904761D02*
X109476190Y-43904761D01*
X110047619Y-43904761D02*
X110047619Y-41904761D01*
X109857142Y-42190476D01*
X109666666Y-42380952D01*
X109476190Y-42476190D01*
X111857142Y-41904761D02*
X112047619Y-41904761D01*
X112238095Y-42000000D01*
X112333333Y-42095238D01*
X112428571Y-42285714D01*
X112523809Y-42666666D01*
X112523809Y-43142857D01*
X112428571Y-43523809D01*
X112333333Y-43714285D01*
X112238095Y-43809523D01*
X112047619Y-43904761D01*
X111857142Y-43904761D01*
X111666666Y-43809523D01*
X111571428Y-43714285D01*
X111476190Y-43523809D01*
X111380952Y-43142857D01*
X111380952Y-42666666D01*
X111476190Y-42285714D01*
X111571428Y-42095238D01*
X111666666Y-42000000D01*
X111857142Y-41904761D01*
X110619047Y-39904761D02*
X109476190Y-39904761D01*
X110047619Y-39904761D02*
X110047619Y-37904761D01*
X109857142Y-38190476D01*
X109666666Y-38380952D01*
X109476190Y-38476190D01*
X112523809Y-39904761D02*
X111380952Y-39904761D01*
X111952380Y-39904761D02*
X111952380Y-37904761D01*
X111761904Y-38190476D01*
X111571428Y-38380952D01*
X111380952Y-38476190D01*
X123619047Y-57904761D02*
X122476190Y-57904761D01*
X123047619Y-57904761D02*
X123047619Y-55904761D01*
X122857142Y-56190476D01*
X122666666Y-56380952D01*
X122476190Y-56476190D01*
X124571428Y-57904761D02*
X124952380Y-57904761D01*
X125142857Y-57809523D01*
X125238095Y-57714285D01*
X125428571Y-57428571D01*
X125523809Y-57047619D01*
X125523809Y-56285714D01*
X125428571Y-56095238D01*
X125333333Y-56000000D01*
X125142857Y-55904761D01*
X124761904Y-55904761D01*
X124571428Y-56000000D01*
X124476190Y-56095238D01*
X124380952Y-56285714D01*
X124380952Y-56761904D01*
X124476190Y-56952380D01*
X124571428Y-57047619D01*
X124761904Y-57142857D01*
X125142857Y-57142857D01*
X125333333Y-57047619D01*
X125428571Y-56952380D01*
X125523809Y-56761904D01*
X111476190Y-61904761D02*
X110523809Y-61904761D01*
X110428571Y-62857142D01*
X110523809Y-62761904D01*
X110714285Y-62666666D01*
X111190476Y-62666666D01*
X111380952Y-62761904D01*
X111476190Y-62857142D01*
X111571428Y-63047619D01*
X111571428Y-63523809D01*
X111476190Y-63714285D01*
X111380952Y-63809523D01*
X111190476Y-63904761D01*
X110714285Y-63904761D01*
X110523809Y-63809523D01*
X110428571Y-63714285D01*
X122476190Y-48095238D02*
X122571428Y-48000000D01*
X122761904Y-47904761D01*
X123238095Y-47904761D01*
X123428571Y-48000000D01*
X123523809Y-48095238D01*
X123619047Y-48285714D01*
X123619047Y-48476190D01*
X123523809Y-48761904D01*
X122380952Y-49904761D01*
X123619047Y-49904761D01*
X125523809Y-49904761D02*
X124380952Y-49904761D01*
X124952380Y-49904761D02*
X124952380Y-47904761D01*
X124761904Y-48190476D01*
X124571428Y-48380952D01*
X124380952Y-48476190D01*
X110619047Y-35904761D02*
X109476190Y-35904761D01*
X110047619Y-35904761D02*
X110047619Y-33904761D01*
X109857142Y-34190476D01*
X109666666Y-34380952D01*
X109476190Y-34476190D01*
X111380952Y-34095238D02*
X111476190Y-34000000D01*
X111666666Y-33904761D01*
X112142857Y-33904761D01*
X112333333Y-34000000D01*
X112428571Y-34095238D01*
X112523809Y-34285714D01*
X112523809Y-34476190D01*
X112428571Y-34761904D01*
X111285714Y-35904761D01*
X112523809Y-35904761D01*
X111380952Y-57904761D02*
X111000000Y-57904761D01*
X110809523Y-58000000D01*
X110714285Y-58095238D01*
X110523809Y-58380952D01*
X110428571Y-58761904D01*
X110428571Y-59523809D01*
X110523809Y-59714285D01*
X110619047Y-59809523D01*
X110809523Y-59904761D01*
X111190476Y-59904761D01*
X111380952Y-59809523D01*
X111476190Y-59714285D01*
X111571428Y-59523809D01*
X111571428Y-59047619D01*
X111476190Y-58857142D01*
X111380952Y-58761904D01*
X111190476Y-58666666D01*
X110809523Y-58666666D01*
X110619047Y-58761904D01*
X110523809Y-58857142D01*
X110428571Y-59047619D01*
X110333333Y-69904761D02*
X111571428Y-69904761D01*
X110904761Y-70666666D01*
X111190476Y-70666666D01*
X111380952Y-70761904D01*
X111476190Y-70857142D01*
X111571428Y-71047619D01*
X111571428Y-71523809D01*
X111476190Y-71714285D01*
X111380952Y-71809523D01*
X111190476Y-71904761D01*
X110619047Y-71904761D01*
X110428571Y-71809523D01*
X110333333Y-71714285D01*
X111380952Y-66571428D02*
X111380952Y-67904761D01*
X110904761Y-65809523D02*
X110428571Y-67238095D01*
X111666666Y-67238095D01*
X122476190Y-32095238D02*
X122571428Y-32000000D01*
X122761904Y-31904761D01*
X123238095Y-31904761D01*
X123428571Y-32000000D01*
X123523809Y-32095238D01*
X123619047Y-32285714D01*
X123619047Y-32476190D01*
X123523809Y-32761904D01*
X122380952Y-33904761D01*
X123619047Y-33904761D01*
X125428571Y-31904761D02*
X124476190Y-31904761D01*
X124380952Y-32857142D01*
X124476190Y-32761904D01*
X124666666Y-32666666D01*
X125142857Y-32666666D01*
X125333333Y-32761904D01*
X125428571Y-32857142D01*
X125523809Y-33047619D01*
X125523809Y-33523809D01*
X125428571Y-33714285D01*
X125333333Y-33809523D01*
X125142857Y-33904761D01*
X124666666Y-33904761D01*
X124476190Y-33809523D01*
X124380952Y-33714285D01*
X122476190Y-44095238D02*
X122571428Y-44000000D01*
X122761904Y-43904761D01*
X123238095Y-43904761D01*
X123428571Y-44000000D01*
X123523809Y-44095238D01*
X123619047Y-44285714D01*
X123619047Y-44476190D01*
X123523809Y-44761904D01*
X122380952Y-45904761D01*
X123619047Y-45904761D01*
X124380952Y-44095238D02*
X124476190Y-44000000D01*
X124666666Y-43904761D01*
X125142857Y-43904761D01*
X125333333Y-44000000D01*
X125428571Y-44095238D01*
X125523809Y-44285714D01*
X125523809Y-44476190D01*
X125428571Y-44761904D01*
X124285714Y-45904761D01*
X125523809Y-45904761D01*
X110333333Y-53904761D02*
X111666666Y-53904761D01*
X110809523Y-55904761D01*
X111571428Y-79904761D02*
X110428571Y-79904761D01*
X111000000Y-79904761D02*
X111000000Y-77904761D01*
X110809523Y-78190476D01*
X110619047Y-78380952D01*
X110428571Y-78476190D01*
X110428571Y-74095238D02*
X110523809Y-74000000D01*
X110714285Y-73904761D01*
X111190476Y-73904761D01*
X111380952Y-74000000D01*
X111476190Y-74095238D01*
X111571428Y-74285714D01*
X111571428Y-74476190D01*
X111476190Y-74761904D01*
X110333333Y-75904761D01*
X111571428Y-75904761D01*
X97476190Y-98095238D02*
X97571428Y-98000000D01*
X97761904Y-97904761D01*
X98238095Y-97904761D01*
X98428571Y-98000000D01*
X98523809Y-98095238D01*
X98619047Y-98285714D01*
X98619047Y-98476190D01*
X98523809Y-98761904D01*
X97380952Y-99904761D01*
X98619047Y-99904761D01*
X100523809Y-99904761D02*
X99380952Y-99904761D01*
X99952380Y-99904761D02*
X99952380Y-97904761D01*
X99761904Y-98190476D01*
X99571428Y-98380952D01*
X99380952Y-98476190D01*
X98619047Y-111904761D02*
X97476190Y-111904761D01*
X98047619Y-111904761D02*
X98047619Y-109904761D01*
X97857142Y-110190476D01*
X97666666Y-110380952D01*
X97476190Y-110476190D01*
X99761904Y-110761904D02*
X99571428Y-110666666D01*
X99476190Y-110571428D01*
X99380952Y-110380952D01*
X99380952Y-110285714D01*
X99476190Y-110095238D01*
X99571428Y-110000000D01*
X99761904Y-109904761D01*
X100142857Y-109904761D01*
X100333333Y-110000000D01*
X100428571Y-110095238D01*
X100523809Y-110285714D01*
X100523809Y-110380952D01*
X100428571Y-110571428D01*
X100333333Y-110666666D01*
X100142857Y-110761904D01*
X99761904Y-110761904D01*
X99571428Y-110857142D01*
X99476190Y-110952380D01*
X99380952Y-111142857D01*
X99380952Y-111523809D01*
X99476190Y-111714285D01*
X99571428Y-111809523D01*
X99761904Y-111904761D01*
X100142857Y-111904761D01*
X100333333Y-111809523D01*
X100428571Y-111714285D01*
X100523809Y-111523809D01*
X100523809Y-111142857D01*
X100428571Y-110952380D01*
X100333333Y-110857142D01*
X100142857Y-110761904D01*
X85619047Y-89904761D02*
X84476190Y-89904761D01*
X85047619Y-89904761D02*
X85047619Y-87904761D01*
X84857142Y-88190476D01*
X84666666Y-88380952D01*
X84476190Y-88476190D01*
X87523809Y-89904761D02*
X86380952Y-89904761D01*
X86952380Y-89904761D02*
X86952380Y-87904761D01*
X86761904Y-88190476D01*
X86571428Y-88380952D01*
X86380952Y-88476190D01*
X97476190Y-82095238D02*
X97571428Y-82000000D01*
X97761904Y-81904761D01*
X98238095Y-81904761D01*
X98428571Y-82000000D01*
X98523809Y-82095238D01*
X98619047Y-82285714D01*
X98619047Y-82476190D01*
X98523809Y-82761904D01*
X97380952Y-83904761D01*
X98619047Y-83904761D01*
X100428571Y-81904761D02*
X99476190Y-81904761D01*
X99380952Y-82857142D01*
X99476190Y-82761904D01*
X99666666Y-82666666D01*
X100142857Y-82666666D01*
X100333333Y-82761904D01*
X100428571Y-82857142D01*
X100523809Y-83047619D01*
X100523809Y-83523809D01*
X100428571Y-83714285D01*
X100333333Y-83809523D01*
X100142857Y-83904761D01*
X99666666Y-83904761D01*
X99476190Y-83809523D01*
X99380952Y-83714285D01*
X97476190Y-86095238D02*
X97571428Y-86000000D01*
X97761904Y-85904761D01*
X98238095Y-85904761D01*
X98428571Y-86000000D01*
X98523809Y-86095238D01*
X98619047Y-86285714D01*
X98619047Y-86476190D01*
X98523809Y-86761904D01*
X97380952Y-87904761D01*
X98619047Y-87904761D01*
X100333333Y-86571428D02*
X100333333Y-87904761D01*
X99857142Y-85809523D02*
X99380952Y-87238095D01*
X100619047Y-87238095D01*
X98619047Y-115904761D02*
X97476190Y-115904761D01*
X98047619Y-115904761D02*
X98047619Y-113904761D01*
X97857142Y-114190476D01*
X97666666Y-114380952D01*
X97476190Y-114476190D01*
X99285714Y-113904761D02*
X100619047Y-113904761D01*
X99761904Y-115904761D01*
X97476190Y-90095238D02*
X97571428Y-90000000D01*
X97761904Y-89904761D01*
X98238095Y-89904761D01*
X98428571Y-90000000D01*
X98523809Y-90095238D01*
X98619047Y-90285714D01*
X98619047Y-90476190D01*
X98523809Y-90761904D01*
X97380952Y-91904761D01*
X98619047Y-91904761D01*
X99285714Y-89904761D02*
X100523809Y-89904761D01*
X99857142Y-90666666D01*
X100142857Y-90666666D01*
X100333333Y-90761904D01*
X100428571Y-90857142D01*
X100523809Y-91047619D01*
X100523809Y-91523809D01*
X100428571Y-91714285D01*
X100333333Y-91809523D01*
X100142857Y-91904761D01*
X99571428Y-91904761D01*
X99380952Y-91809523D01*
X99285714Y-91714285D01*
X97476190Y-94095238D02*
X97571428Y-94000000D01*
X97761904Y-93904761D01*
X98238095Y-93904761D01*
X98428571Y-94000000D01*
X98523809Y-94095238D01*
X98619047Y-94285714D01*
X98619047Y-94476190D01*
X98523809Y-94761904D01*
X97380952Y-95904761D01*
X98619047Y-95904761D01*
X99380952Y-94095238D02*
X99476190Y-94000000D01*
X99666666Y-93904761D01*
X100142857Y-93904761D01*
X100333333Y-94000000D01*
X100428571Y-94095238D01*
X100523809Y-94285714D01*
X100523809Y-94476190D01*
X100428571Y-94761904D01*
X99285714Y-95904761D01*
X100523809Y-95904761D01*
X97476190Y-102095238D02*
X97571428Y-102000000D01*
X97761904Y-101904761D01*
X98238095Y-101904761D01*
X98428571Y-102000000D01*
X98523809Y-102095238D01*
X98619047Y-102285714D01*
X98619047Y-102476190D01*
X98523809Y-102761904D01*
X97380952Y-103904761D01*
X98619047Y-103904761D01*
X99857142Y-101904761D02*
X100047619Y-101904761D01*
X100238095Y-102000000D01*
X100333333Y-102095238D01*
X100428571Y-102285714D01*
X100523809Y-102666666D01*
X100523809Y-103142857D01*
X100428571Y-103523809D01*
X100333333Y-103714285D01*
X100238095Y-103809523D01*
X100047619Y-103904761D01*
X99857142Y-103904761D01*
X99666666Y-103809523D01*
X99571428Y-103714285D01*
X99476190Y-103523809D01*
X99380952Y-103142857D01*
X99380952Y-102666666D01*
X99476190Y-102285714D01*
X99571428Y-102095238D01*
X99666666Y-102000000D01*
X99857142Y-101904761D01*
X98619047Y-107904761D02*
X97476190Y-107904761D01*
X98047619Y-107904761D02*
X98047619Y-105904761D01*
X97857142Y-106190476D01*
X97666666Y-106380952D01*
X97476190Y-106476190D01*
X99571428Y-107904761D02*
X99952380Y-107904761D01*
X100142857Y-107809523D01*
X100238095Y-107714285D01*
X100428571Y-107428571D01*
X100523809Y-107047619D01*
X100523809Y-106285714D01*
X100428571Y-106095238D01*
X100333333Y-106000000D01*
X100142857Y-105904761D01*
X99761904Y-105904761D01*
X99571428Y-106000000D01*
X99476190Y-106095238D01*
X99380952Y-106285714D01*
X99380952Y-106761904D01*
X99476190Y-106952380D01*
X99571428Y-107047619D01*
X99761904Y-107142857D01*
X100142857Y-107142857D01*
X100333333Y-107047619D01*
X100428571Y-106952380D01*
X100523809Y-106761904D01*
X85619047Y-85904761D02*
X84476190Y-85904761D01*
X85047619Y-85904761D02*
X85047619Y-83904761D01*
X84857142Y-84190476D01*
X84666666Y-84380952D01*
X84476190Y-84476190D01*
X86380952Y-84095238D02*
X86476190Y-84000000D01*
X86666666Y-83904761D01*
X87142857Y-83904761D01*
X87333333Y-84000000D01*
X87428571Y-84095238D01*
X87523809Y-84285714D01*
X87523809Y-84476190D01*
X87428571Y-84761904D01*
X86285714Y-85904761D01*
X87523809Y-85904761D01*
X85619047Y-93904761D02*
X84476190Y-93904761D01*
X85047619Y-93904761D02*
X85047619Y-91904761D01*
X84857142Y-92190476D01*
X84666666Y-92380952D01*
X84476190Y-92476190D01*
X86857142Y-91904761D02*
X87047619Y-91904761D01*
X87238095Y-92000000D01*
X87333333Y-92095238D01*
X87428571Y-92285714D01*
X87523809Y-92666666D01*
X87523809Y-93142857D01*
X87428571Y-93523809D01*
X87333333Y-93714285D01*
X87238095Y-93809523D01*
X87047619Y-93904761D01*
X86857142Y-93904761D01*
X86666666Y-93809523D01*
X86571428Y-93714285D01*
X86476190Y-93523809D01*
X86380952Y-93142857D01*
X86380952Y-92666666D01*
X86476190Y-92285714D01*
X86571428Y-92095238D01*
X86666666Y-92000000D01*
X86857142Y-91904761D01*
X98619047Y-127904761D02*
X97476190Y-127904761D01*
X98047619Y-127904761D02*
X98047619Y-125904761D01*
X97857142Y-126190476D01*
X97666666Y-126380952D01*
X97476190Y-126476190D01*
X100333333Y-126571428D02*
X100333333Y-127904761D01*
X99857142Y-125809523D02*
X99380952Y-127238095D01*
X100619047Y-127238095D01*
X98619047Y-119904761D02*
X97476190Y-119904761D01*
X98047619Y-119904761D02*
X98047619Y-117904761D01*
X97857142Y-118190476D01*
X97666666Y-118380952D01*
X97476190Y-118476190D01*
X100333333Y-117904761D02*
X99952380Y-117904761D01*
X99761904Y-118000000D01*
X99666666Y-118095238D01*
X99476190Y-118380952D01*
X99380952Y-118761904D01*
X99380952Y-119523809D01*
X99476190Y-119714285D01*
X99571428Y-119809523D01*
X99761904Y-119904761D01*
X100142857Y-119904761D01*
X100333333Y-119809523D01*
X100428571Y-119714285D01*
X100523809Y-119523809D01*
X100523809Y-119047619D01*
X100428571Y-118857142D01*
X100333333Y-118761904D01*
X100142857Y-118666666D01*
X99761904Y-118666666D01*
X99571428Y-118761904D01*
X99476190Y-118857142D01*
X99380952Y-119047619D01*
X98619047Y-123904761D02*
X97476190Y-123904761D01*
X98047619Y-123904761D02*
X98047619Y-121904761D01*
X97857142Y-122190476D01*
X97666666Y-122380952D01*
X97476190Y-122476190D01*
X100428571Y-121904761D02*
X99476190Y-121904761D01*
X99380952Y-122857142D01*
X99476190Y-122761904D01*
X99666666Y-122666666D01*
X100142857Y-122666666D01*
X100333333Y-122761904D01*
X100428571Y-122857142D01*
X100523809Y-123047619D01*
X100523809Y-123523809D01*
X100428571Y-123714285D01*
X100333333Y-123809523D01*
X100142857Y-123904761D01*
X99666666Y-123904761D01*
X99476190Y-123809523D01*
X99380952Y-123714285D01*
X85619047Y-81904761D02*
X84476190Y-81904761D01*
X85047619Y-81904761D02*
X85047619Y-79904761D01*
X84857142Y-80190476D01*
X84666666Y-80380952D01*
X84476190Y-80476190D01*
X86285714Y-79904761D02*
X87523809Y-79904761D01*
X86857142Y-80666666D01*
X87142857Y-80666666D01*
X87333333Y-80761904D01*
X87428571Y-80857142D01*
X87523809Y-81047619D01*
X87523809Y-81523809D01*
X87428571Y-81714285D01*
X87333333Y-81809523D01*
X87142857Y-81904761D01*
X86571428Y-81904761D01*
X86380952Y-81809523D01*
X86285714Y-81714285D01*
X85619047Y-97904761D02*
X86000000Y-97904761D01*
X86190476Y-97809523D01*
X86285714Y-97714285D01*
X86476190Y-97428571D01*
X86571428Y-97047619D01*
X86571428Y-96285714D01*
X86476190Y-96095238D01*
X86380952Y-96000000D01*
X86190476Y-95904761D01*
X85809523Y-95904761D01*
X85619047Y-96000000D01*
X85523809Y-96095238D01*
X85428571Y-96285714D01*
X85428571Y-96761904D01*
X85523809Y-96952380D01*
X85619047Y-97047619D01*
X85809523Y-97142857D01*
X86190476Y-97142857D01*
X86380952Y-97047619D01*
X86476190Y-96952380D01*
X86571428Y-96761904D01*
X85809523Y-100761904D02*
X85619047Y-100666666D01*
X85523809Y-100571428D01*
X85428571Y-100380952D01*
X85428571Y-100285714D01*
X85523809Y-100095238D01*
X85619047Y-100000000D01*
X85809523Y-99904761D01*
X86190476Y-99904761D01*
X86380952Y-100000000D01*
X86476190Y-100095238D01*
X86571428Y-100285714D01*
X86571428Y-100380952D01*
X86476190Y-100571428D01*
X86380952Y-100666666D01*
X86190476Y-100761904D01*
X85809523Y-100761904D01*
X85619047Y-100857142D01*
X85523809Y-100952380D01*
X85428571Y-101142857D01*
X85428571Y-101523809D01*
X85523809Y-101714285D01*
X85619047Y-101809523D01*
X85809523Y-101904761D01*
X86190476Y-101904761D01*
X86380952Y-101809523D01*
X86476190Y-101714285D01*
X86571428Y-101523809D01*
X86571428Y-101142857D01*
X86476190Y-100952380D01*
X86380952Y-100857142D01*
X86190476Y-100761904D01*
X86476190Y-111904761D02*
X85523809Y-111904761D01*
X85428571Y-112857142D01*
X85523809Y-112761904D01*
X85714285Y-112666666D01*
X86190476Y-112666666D01*
X86380952Y-112761904D01*
X86476190Y-112857142D01*
X86571428Y-113047619D01*
X86571428Y-113523809D01*
X86476190Y-113714285D01*
X86380952Y-113809523D01*
X86190476Y-113904761D01*
X85714285Y-113904761D01*
X85523809Y-113809523D01*
X85428571Y-113714285D01*
X85428571Y-124095238D02*
X85523809Y-124000000D01*
X85714285Y-123904761D01*
X86190476Y-123904761D01*
X86380952Y-124000000D01*
X86476190Y-124095238D01*
X86571428Y-124285714D01*
X86571428Y-124476190D01*
X86476190Y-124761904D01*
X85333333Y-125904761D01*
X86571428Y-125904761D01*
X86571428Y-129904761D02*
X85428571Y-129904761D01*
X86000000Y-129904761D02*
X86000000Y-127904761D01*
X85809523Y-128190476D01*
X85619047Y-128380952D01*
X85428571Y-128476190D01*
X85333333Y-103904761D02*
X86666666Y-103904761D01*
X85809523Y-105904761D01*
X86380952Y-107904761D02*
X86000000Y-107904761D01*
X85809523Y-108000000D01*
X85714285Y-108095238D01*
X85523809Y-108380952D01*
X85428571Y-108761904D01*
X85428571Y-109523809D01*
X85523809Y-109714285D01*
X85619047Y-109809523D01*
X85809523Y-109904761D01*
X86190476Y-109904761D01*
X86380952Y-109809523D01*
X86476190Y-109714285D01*
X86571428Y-109523809D01*
X86571428Y-109047619D01*
X86476190Y-108857142D01*
X86380952Y-108761904D01*
X86190476Y-108666666D01*
X85809523Y-108666666D01*
X85619047Y-108761904D01*
X85523809Y-108857142D01*
X85428571Y-109047619D01*
X85333333Y-119904761D02*
X86571428Y-119904761D01*
X85904761Y-120666666D01*
X86190476Y-120666666D01*
X86380952Y-120761904D01*
X86476190Y-120857142D01*
X86571428Y-121047619D01*
X86571428Y-121523809D01*
X86476190Y-121714285D01*
X86380952Y-121809523D01*
X86190476Y-121904761D01*
X85619047Y-121904761D01*
X85428571Y-121809523D01*
X85333333Y-121714285D01*
X86380952Y-116571428D02*
X86380952Y-117904761D01*
X85904761Y-115809523D02*
X85428571Y-117238095D01*
X86666666Y-117238095D01*
X98619047Y-69904761D02*
X97476190Y-69904761D01*
X98047619Y-69904761D02*
X98047619Y-67904761D01*
X97857142Y-68190476D01*
X97666666Y-68380952D01*
X97476190Y-68476190D01*
X100333333Y-67904761D02*
X99952380Y-67904761D01*
X99761904Y-68000000D01*
X99666666Y-68095238D01*
X99476190Y-68380952D01*
X99380952Y-68761904D01*
X99380952Y-69523809D01*
X99476190Y-69714285D01*
X99571428Y-69809523D01*
X99761904Y-69904761D01*
X100142857Y-69904761D01*
X100333333Y-69809523D01*
X100428571Y-69714285D01*
X100523809Y-69523809D01*
X100523809Y-69047619D01*
X100428571Y-68857142D01*
X100333333Y-68761904D01*
X100142857Y-68666666D01*
X99761904Y-68666666D01*
X99571428Y-68761904D01*
X99476190Y-68857142D01*
X99380952Y-69047619D01*
X97476190Y-36095238D02*
X97571428Y-36000000D01*
X97761904Y-35904761D01*
X98238095Y-35904761D01*
X98428571Y-36000000D01*
X98523809Y-36095238D01*
X98619047Y-36285714D01*
X98619047Y-36476190D01*
X98523809Y-36761904D01*
X97380952Y-37904761D01*
X98619047Y-37904761D01*
X100333333Y-36571428D02*
X100333333Y-37904761D01*
X99857142Y-35809523D02*
X99380952Y-37238095D01*
X100619047Y-37238095D01*
X98619047Y-65904761D02*
X97476190Y-65904761D01*
X98047619Y-65904761D02*
X98047619Y-63904761D01*
X97857142Y-64190476D01*
X97666666Y-64380952D01*
X97476190Y-64476190D01*
X99285714Y-63904761D02*
X100619047Y-63904761D01*
X99761904Y-65904761D01*
X97476190Y-40095238D02*
X97571428Y-40000000D01*
X97761904Y-39904761D01*
X98238095Y-39904761D01*
X98428571Y-40000000D01*
X98523809Y-40095238D01*
X98619047Y-40285714D01*
X98619047Y-40476190D01*
X98523809Y-40761904D01*
X97380952Y-41904761D01*
X98619047Y-41904761D01*
X99285714Y-39904761D02*
X100523809Y-39904761D01*
X99857142Y-40666666D01*
X100142857Y-40666666D01*
X100333333Y-40761904D01*
X100428571Y-40857142D01*
X100523809Y-41047619D01*
X100523809Y-41523809D01*
X100428571Y-41714285D01*
X100333333Y-41809523D01*
X100142857Y-41904761D01*
X99571428Y-41904761D01*
X99380952Y-41809523D01*
X99285714Y-41714285D01*
X98619047Y-73904761D02*
X97476190Y-73904761D01*
X98047619Y-73904761D02*
X98047619Y-71904761D01*
X97857142Y-72190476D01*
X97666666Y-72380952D01*
X97476190Y-72476190D01*
X100428571Y-71904761D02*
X99476190Y-71904761D01*
X99380952Y-72857142D01*
X99476190Y-72761904D01*
X99666666Y-72666666D01*
X100142857Y-72666666D01*
X100333333Y-72761904D01*
X100428571Y-72857142D01*
X100523809Y-73047619D01*
X100523809Y-73523809D01*
X100428571Y-73714285D01*
X100333333Y-73809523D01*
X100142857Y-73904761D01*
X99666666Y-73904761D01*
X99476190Y-73809523D01*
X99380952Y-73714285D01*
X98619047Y-61904761D02*
X97476190Y-61904761D01*
X98047619Y-61904761D02*
X98047619Y-59904761D01*
X97857142Y-60190476D01*
X97666666Y-60380952D01*
X97476190Y-60476190D01*
X99761904Y-60761904D02*
X99571428Y-60666666D01*
X99476190Y-60571428D01*
X99380952Y-60380952D01*
X99380952Y-60285714D01*
X99476190Y-60095238D01*
X99571428Y-60000000D01*
X99761904Y-59904761D01*
X100142857Y-59904761D01*
X100333333Y-60000000D01*
X100428571Y-60095238D01*
X100523809Y-60285714D01*
X100523809Y-60380952D01*
X100428571Y-60571428D01*
X100333333Y-60666666D01*
X100142857Y-60761904D01*
X99761904Y-60761904D01*
X99571428Y-60857142D01*
X99476190Y-60952380D01*
X99380952Y-61142857D01*
X99380952Y-61523809D01*
X99476190Y-61714285D01*
X99571428Y-61809523D01*
X99761904Y-61904761D01*
X100142857Y-61904761D01*
X100333333Y-61809523D01*
X100428571Y-61714285D01*
X100523809Y-61523809D01*
X100523809Y-61142857D01*
X100428571Y-60952380D01*
X100333333Y-60857142D01*
X100142857Y-60761904D01*
X97476190Y-52095238D02*
X97571428Y-52000000D01*
X97761904Y-51904761D01*
X98238095Y-51904761D01*
X98428571Y-52000000D01*
X98523809Y-52095238D01*
X98619047Y-52285714D01*
X98619047Y-52476190D01*
X98523809Y-52761904D01*
X97380952Y-53904761D01*
X98619047Y-53904761D01*
X99857142Y-51904761D02*
X100047619Y-51904761D01*
X100238095Y-52000000D01*
X100333333Y-52095238D01*
X100428571Y-52285714D01*
X100523809Y-52666666D01*
X100523809Y-53142857D01*
X100428571Y-53523809D01*
X100333333Y-53714285D01*
X100238095Y-53809523D01*
X100047619Y-53904761D01*
X99857142Y-53904761D01*
X99666666Y-53809523D01*
X99571428Y-53714285D01*
X99476190Y-53523809D01*
X99380952Y-53142857D01*
X99380952Y-52666666D01*
X99476190Y-52285714D01*
X99571428Y-52095238D01*
X99666666Y-52000000D01*
X99857142Y-51904761D01*
X85619047Y-31904761D02*
X84476190Y-31904761D01*
X85047619Y-31904761D02*
X85047619Y-29904761D01*
X84857142Y-30190476D01*
X84666666Y-30380952D01*
X84476190Y-30476190D01*
X86285714Y-29904761D02*
X87523809Y-29904761D01*
X86857142Y-30666666D01*
X87142857Y-30666666D01*
X87333333Y-30761904D01*
X87428571Y-30857142D01*
X87523809Y-31047619D01*
X87523809Y-31523809D01*
X87428571Y-31714285D01*
X87333333Y-31809523D01*
X87142857Y-31904761D01*
X86571428Y-31904761D01*
X86380952Y-31809523D01*
X86285714Y-31714285D01*
X85809523Y-50761904D02*
X85619047Y-50666666D01*
X85523809Y-50571428D01*
X85428571Y-50380952D01*
X85428571Y-50285714D01*
X85523809Y-50095238D01*
X85619047Y-50000000D01*
X85809523Y-49904761D01*
X86190476Y-49904761D01*
X86380952Y-50000000D01*
X86476190Y-50095238D01*
X86571428Y-50285714D01*
X86571428Y-50380952D01*
X86476190Y-50571428D01*
X86380952Y-50666666D01*
X86190476Y-50761904D01*
X85809523Y-50761904D01*
X85619047Y-50857142D01*
X85523809Y-50952380D01*
X85428571Y-51142857D01*
X85428571Y-51523809D01*
X85523809Y-51714285D01*
X85619047Y-51809523D01*
X85809523Y-51904761D01*
X86190476Y-51904761D01*
X86380952Y-51809523D01*
X86476190Y-51714285D01*
X86571428Y-51523809D01*
X86571428Y-51142857D01*
X86476190Y-50952380D01*
X86380952Y-50857142D01*
X86190476Y-50761904D01*
X97476190Y-44095238D02*
X97571428Y-44000000D01*
X97761904Y-43904761D01*
X98238095Y-43904761D01*
X98428571Y-44000000D01*
X98523809Y-44095238D01*
X98619047Y-44285714D01*
X98619047Y-44476190D01*
X98523809Y-44761904D01*
X97380952Y-45904761D01*
X98619047Y-45904761D01*
X99380952Y-44095238D02*
X99476190Y-44000000D01*
X99666666Y-43904761D01*
X100142857Y-43904761D01*
X100333333Y-44000000D01*
X100428571Y-44095238D01*
X100523809Y-44285714D01*
X100523809Y-44476190D01*
X100428571Y-44761904D01*
X99285714Y-45904761D01*
X100523809Y-45904761D01*
X85619047Y-43904761D02*
X84476190Y-43904761D01*
X85047619Y-43904761D02*
X85047619Y-41904761D01*
X84857142Y-42190476D01*
X84666666Y-42380952D01*
X84476190Y-42476190D01*
X86857142Y-41904761D02*
X87047619Y-41904761D01*
X87238095Y-42000000D01*
X87333333Y-42095238D01*
X87428571Y-42285714D01*
X87523809Y-42666666D01*
X87523809Y-43142857D01*
X87428571Y-43523809D01*
X87333333Y-43714285D01*
X87238095Y-43809523D01*
X87047619Y-43904761D01*
X86857142Y-43904761D01*
X86666666Y-43809523D01*
X86571428Y-43714285D01*
X86476190Y-43523809D01*
X86380952Y-43142857D01*
X86380952Y-42666666D01*
X86476190Y-42285714D01*
X86571428Y-42095238D01*
X86666666Y-42000000D01*
X86857142Y-41904761D01*
X97476190Y-48095238D02*
X97571428Y-48000000D01*
X97761904Y-47904761D01*
X98238095Y-47904761D01*
X98428571Y-48000000D01*
X98523809Y-48095238D01*
X98619047Y-48285714D01*
X98619047Y-48476190D01*
X98523809Y-48761904D01*
X97380952Y-49904761D01*
X98619047Y-49904761D01*
X100523809Y-49904761D02*
X99380952Y-49904761D01*
X99952380Y-49904761D02*
X99952380Y-47904761D01*
X99761904Y-48190476D01*
X99571428Y-48380952D01*
X99380952Y-48476190D01*
X85619047Y-39904761D02*
X84476190Y-39904761D01*
X85047619Y-39904761D02*
X85047619Y-37904761D01*
X84857142Y-38190476D01*
X84666666Y-38380952D01*
X84476190Y-38476190D01*
X87523809Y-39904761D02*
X86380952Y-39904761D01*
X86952380Y-39904761D02*
X86952380Y-37904761D01*
X86761904Y-38190476D01*
X86571428Y-38380952D01*
X86380952Y-38476190D01*
X85619047Y-35904761D02*
X84476190Y-35904761D01*
X85047619Y-35904761D02*
X85047619Y-33904761D01*
X84857142Y-34190476D01*
X84666666Y-34380952D01*
X84476190Y-34476190D01*
X86380952Y-34095238D02*
X86476190Y-34000000D01*
X86666666Y-33904761D01*
X87142857Y-33904761D01*
X87333333Y-34000000D01*
X87428571Y-34095238D01*
X87523809Y-34285714D01*
X87523809Y-34476190D01*
X87428571Y-34761904D01*
X86285714Y-35904761D01*
X87523809Y-35904761D01*
X85619047Y-47904761D02*
X86000000Y-47904761D01*
X86190476Y-47809523D01*
X86285714Y-47714285D01*
X86476190Y-47428571D01*
X86571428Y-47047619D01*
X86571428Y-46285714D01*
X86476190Y-46095238D01*
X86380952Y-46000000D01*
X86190476Y-45904761D01*
X85809523Y-45904761D01*
X85619047Y-46000000D01*
X85523809Y-46095238D01*
X85428571Y-46285714D01*
X85428571Y-46761904D01*
X85523809Y-46952380D01*
X85619047Y-47047619D01*
X85809523Y-47142857D01*
X86190476Y-47142857D01*
X86380952Y-47047619D01*
X86476190Y-46952380D01*
X86571428Y-46761904D01*
X98619047Y-57904761D02*
X97476190Y-57904761D01*
X98047619Y-57904761D02*
X98047619Y-55904761D01*
X97857142Y-56190476D01*
X97666666Y-56380952D01*
X97476190Y-56476190D01*
X99571428Y-57904761D02*
X99952380Y-57904761D01*
X100142857Y-57809523D01*
X100238095Y-57714285D01*
X100428571Y-57428571D01*
X100523809Y-57047619D01*
X100523809Y-56285714D01*
X100428571Y-56095238D01*
X100333333Y-56000000D01*
X100142857Y-55904761D01*
X99761904Y-55904761D01*
X99571428Y-56000000D01*
X99476190Y-56095238D01*
X99380952Y-56285714D01*
X99380952Y-56761904D01*
X99476190Y-56952380D01*
X99571428Y-57047619D01*
X99761904Y-57142857D01*
X100142857Y-57142857D01*
X100333333Y-57047619D01*
X100428571Y-56952380D01*
X100523809Y-56761904D01*
X97476190Y-32095238D02*
X97571428Y-32000000D01*
X97761904Y-31904761D01*
X98238095Y-31904761D01*
X98428571Y-32000000D01*
X98523809Y-32095238D01*
X98619047Y-32285714D01*
X98619047Y-32476190D01*
X98523809Y-32761904D01*
X97380952Y-33904761D01*
X98619047Y-33904761D01*
X100428571Y-31904761D02*
X99476190Y-31904761D01*
X99380952Y-32857142D01*
X99476190Y-32761904D01*
X99666666Y-32666666D01*
X100142857Y-32666666D01*
X100333333Y-32761904D01*
X100428571Y-32857142D01*
X100523809Y-33047619D01*
X100523809Y-33523809D01*
X100428571Y-33714285D01*
X100333333Y-33809523D01*
X100142857Y-33904761D01*
X99666666Y-33904761D01*
X99476190Y-33809523D01*
X99380952Y-33714285D01*
X98619047Y-77904761D02*
X97476190Y-77904761D01*
X98047619Y-77904761D02*
X98047619Y-75904761D01*
X97857142Y-76190476D01*
X97666666Y-76380952D01*
X97476190Y-76476190D01*
X100333333Y-76571428D02*
X100333333Y-77904761D01*
X99857142Y-75809523D02*
X99380952Y-77238095D01*
X100619047Y-77238095D01*
X85333333Y-53904761D02*
X86666666Y-53904761D01*
X85809523Y-55904761D01*
X86380952Y-57904761D02*
X86000000Y-57904761D01*
X85809523Y-58000000D01*
X85714285Y-58095238D01*
X85523809Y-58380952D01*
X85428571Y-58761904D01*
X85428571Y-59523809D01*
X85523809Y-59714285D01*
X85619047Y-59809523D01*
X85809523Y-59904761D01*
X86190476Y-59904761D01*
X86380952Y-59809523D01*
X86476190Y-59714285D01*
X86571428Y-59523809D01*
X86571428Y-59047619D01*
X86476190Y-58857142D01*
X86380952Y-58761904D01*
X86190476Y-58666666D01*
X85809523Y-58666666D01*
X85619047Y-58761904D01*
X85523809Y-58857142D01*
X85428571Y-59047619D01*
X86476190Y-61904761D02*
X85523809Y-61904761D01*
X85428571Y-62857142D01*
X85523809Y-62761904D01*
X85714285Y-62666666D01*
X86190476Y-62666666D01*
X86380952Y-62761904D01*
X86476190Y-62857142D01*
X86571428Y-63047619D01*
X86571428Y-63523809D01*
X86476190Y-63714285D01*
X86380952Y-63809523D01*
X86190476Y-63904761D01*
X85714285Y-63904761D01*
X85523809Y-63809523D01*
X85428571Y-63714285D01*
X85428571Y-74095238D02*
X85523809Y-74000000D01*
X85714285Y-73904761D01*
X86190476Y-73904761D01*
X86380952Y-74000000D01*
X86476190Y-74095238D01*
X86571428Y-74285714D01*
X86571428Y-74476190D01*
X86476190Y-74761904D01*
X85333333Y-75904761D01*
X86571428Y-75904761D01*
X85333333Y-69904761D02*
X86571428Y-69904761D01*
X85904761Y-70666666D01*
X86190476Y-70666666D01*
X86380952Y-70761904D01*
X86476190Y-70857142D01*
X86571428Y-71047619D01*
X86571428Y-71523809D01*
X86476190Y-71714285D01*
X86380952Y-71809523D01*
X86190476Y-71904761D01*
X85619047Y-71904761D01*
X85428571Y-71809523D01*
X85333333Y-71714285D01*
X86571428Y-79904761D02*
X85428571Y-79904761D01*
X86000000Y-79904761D02*
X86000000Y-77904761D01*
X85809523Y-78190476D01*
X85619047Y-78380952D01*
X85428571Y-78476190D01*
X86380952Y-66571428D02*
X86380952Y-67904761D01*
X85904761Y-65809523D02*
X85428571Y-67238095D01*
X86666666Y-67238095D01*
X72476190Y-98095238D02*
X72571428Y-98000000D01*
X72761904Y-97904761D01*
X73238095Y-97904761D01*
X73428571Y-98000000D01*
X73523809Y-98095238D01*
X73619047Y-98285714D01*
X73619047Y-98476190D01*
X73523809Y-98761904D01*
X72380952Y-99904761D01*
X73619047Y-99904761D01*
X75523809Y-99904761D02*
X74380952Y-99904761D01*
X74952380Y-99904761D02*
X74952380Y-97904761D01*
X74761904Y-98190476D01*
X74571428Y-98380952D01*
X74380952Y-98476190D01*
X73619047Y-111904761D02*
X72476190Y-111904761D01*
X73047619Y-111904761D02*
X73047619Y-109904761D01*
X72857142Y-110190476D01*
X72666666Y-110380952D01*
X72476190Y-110476190D01*
X74761904Y-110761904D02*
X74571428Y-110666666D01*
X74476190Y-110571428D01*
X74380952Y-110380952D01*
X74380952Y-110285714D01*
X74476190Y-110095238D01*
X74571428Y-110000000D01*
X74761904Y-109904761D01*
X75142857Y-109904761D01*
X75333333Y-110000000D01*
X75428571Y-110095238D01*
X75523809Y-110285714D01*
X75523809Y-110380952D01*
X75428571Y-110571428D01*
X75333333Y-110666666D01*
X75142857Y-110761904D01*
X74761904Y-110761904D01*
X74571428Y-110857142D01*
X74476190Y-110952380D01*
X74380952Y-111142857D01*
X74380952Y-111523809D01*
X74476190Y-111714285D01*
X74571428Y-111809523D01*
X74761904Y-111904761D01*
X75142857Y-111904761D01*
X75333333Y-111809523D01*
X75428571Y-111714285D01*
X75523809Y-111523809D01*
X75523809Y-111142857D01*
X75428571Y-110952380D01*
X75333333Y-110857142D01*
X75142857Y-110761904D01*
X60619047Y-89904761D02*
X59476190Y-89904761D01*
X60047619Y-89904761D02*
X60047619Y-87904761D01*
X59857142Y-88190476D01*
X59666666Y-88380952D01*
X59476190Y-88476190D01*
X62523809Y-89904761D02*
X61380952Y-89904761D01*
X61952380Y-89904761D02*
X61952380Y-87904761D01*
X61761904Y-88190476D01*
X61571428Y-88380952D01*
X61380952Y-88476190D01*
X72476190Y-82095238D02*
X72571428Y-82000000D01*
X72761904Y-81904761D01*
X73238095Y-81904761D01*
X73428571Y-82000000D01*
X73523809Y-82095238D01*
X73619047Y-82285714D01*
X73619047Y-82476190D01*
X73523809Y-82761904D01*
X72380952Y-83904761D01*
X73619047Y-83904761D01*
X75428571Y-81904761D02*
X74476190Y-81904761D01*
X74380952Y-82857142D01*
X74476190Y-82761904D01*
X74666666Y-82666666D01*
X75142857Y-82666666D01*
X75333333Y-82761904D01*
X75428571Y-82857142D01*
X75523809Y-83047619D01*
X75523809Y-83523809D01*
X75428571Y-83714285D01*
X75333333Y-83809523D01*
X75142857Y-83904761D01*
X74666666Y-83904761D01*
X74476190Y-83809523D01*
X74380952Y-83714285D01*
X72476190Y-86095238D02*
X72571428Y-86000000D01*
X72761904Y-85904761D01*
X73238095Y-85904761D01*
X73428571Y-86000000D01*
X73523809Y-86095238D01*
X73619047Y-86285714D01*
X73619047Y-86476190D01*
X73523809Y-86761904D01*
X72380952Y-87904761D01*
X73619047Y-87904761D01*
X75333333Y-86571428D02*
X75333333Y-87904761D01*
X74857142Y-85809523D02*
X74380952Y-87238095D01*
X75619047Y-87238095D01*
X73619047Y-115904761D02*
X72476190Y-115904761D01*
X73047619Y-115904761D02*
X73047619Y-113904761D01*
X72857142Y-114190476D01*
X72666666Y-114380952D01*
X72476190Y-114476190D01*
X74285714Y-113904761D02*
X75619047Y-113904761D01*
X74761904Y-115904761D01*
X72476190Y-90095238D02*
X72571428Y-90000000D01*
X72761904Y-89904761D01*
X73238095Y-89904761D01*
X73428571Y-90000000D01*
X73523809Y-90095238D01*
X73619047Y-90285714D01*
X73619047Y-90476190D01*
X73523809Y-90761904D01*
X72380952Y-91904761D01*
X73619047Y-91904761D01*
X74285714Y-89904761D02*
X75523809Y-89904761D01*
X74857142Y-90666666D01*
X75142857Y-90666666D01*
X75333333Y-90761904D01*
X75428571Y-90857142D01*
X75523809Y-91047619D01*
X75523809Y-91523809D01*
X75428571Y-91714285D01*
X75333333Y-91809523D01*
X75142857Y-91904761D01*
X74571428Y-91904761D01*
X74380952Y-91809523D01*
X74285714Y-91714285D01*
X72476190Y-94095238D02*
X72571428Y-94000000D01*
X72761904Y-93904761D01*
X73238095Y-93904761D01*
X73428571Y-94000000D01*
X73523809Y-94095238D01*
X73619047Y-94285714D01*
X73619047Y-94476190D01*
X73523809Y-94761904D01*
X72380952Y-95904761D01*
X73619047Y-95904761D01*
X74380952Y-94095238D02*
X74476190Y-94000000D01*
X74666666Y-93904761D01*
X75142857Y-93904761D01*
X75333333Y-94000000D01*
X75428571Y-94095238D01*
X75523809Y-94285714D01*
X75523809Y-94476190D01*
X75428571Y-94761904D01*
X74285714Y-95904761D01*
X75523809Y-95904761D01*
X72476190Y-102095238D02*
X72571428Y-102000000D01*
X72761904Y-101904761D01*
X73238095Y-101904761D01*
X73428571Y-102000000D01*
X73523809Y-102095238D01*
X73619047Y-102285714D01*
X73619047Y-102476190D01*
X73523809Y-102761904D01*
X72380952Y-103904761D01*
X73619047Y-103904761D01*
X74857142Y-101904761D02*
X75047619Y-101904761D01*
X75238095Y-102000000D01*
X75333333Y-102095238D01*
X75428571Y-102285714D01*
X75523809Y-102666666D01*
X75523809Y-103142857D01*
X75428571Y-103523809D01*
X75333333Y-103714285D01*
X75238095Y-103809523D01*
X75047619Y-103904761D01*
X74857142Y-103904761D01*
X74666666Y-103809523D01*
X74571428Y-103714285D01*
X74476190Y-103523809D01*
X74380952Y-103142857D01*
X74380952Y-102666666D01*
X74476190Y-102285714D01*
X74571428Y-102095238D01*
X74666666Y-102000000D01*
X74857142Y-101904761D01*
X73619047Y-107904761D02*
X72476190Y-107904761D01*
X73047619Y-107904761D02*
X73047619Y-105904761D01*
X72857142Y-106190476D01*
X72666666Y-106380952D01*
X72476190Y-106476190D01*
X74571428Y-107904761D02*
X74952380Y-107904761D01*
X75142857Y-107809523D01*
X75238095Y-107714285D01*
X75428571Y-107428571D01*
X75523809Y-107047619D01*
X75523809Y-106285714D01*
X75428571Y-106095238D01*
X75333333Y-106000000D01*
X75142857Y-105904761D01*
X74761904Y-105904761D01*
X74571428Y-106000000D01*
X74476190Y-106095238D01*
X74380952Y-106285714D01*
X74380952Y-106761904D01*
X74476190Y-106952380D01*
X74571428Y-107047619D01*
X74761904Y-107142857D01*
X75142857Y-107142857D01*
X75333333Y-107047619D01*
X75428571Y-106952380D01*
X75523809Y-106761904D01*
X60619047Y-85904761D02*
X59476190Y-85904761D01*
X60047619Y-85904761D02*
X60047619Y-83904761D01*
X59857142Y-84190476D01*
X59666666Y-84380952D01*
X59476190Y-84476190D01*
X61380952Y-84095238D02*
X61476190Y-84000000D01*
X61666666Y-83904761D01*
X62142857Y-83904761D01*
X62333333Y-84000000D01*
X62428571Y-84095238D01*
X62523809Y-84285714D01*
X62523809Y-84476190D01*
X62428571Y-84761904D01*
X61285714Y-85904761D01*
X62523809Y-85904761D01*
X60619047Y-93904761D02*
X59476190Y-93904761D01*
X60047619Y-93904761D02*
X60047619Y-91904761D01*
X59857142Y-92190476D01*
X59666666Y-92380952D01*
X59476190Y-92476190D01*
X61857142Y-91904761D02*
X62047619Y-91904761D01*
X62238095Y-92000000D01*
X62333333Y-92095238D01*
X62428571Y-92285714D01*
X62523809Y-92666666D01*
X62523809Y-93142857D01*
X62428571Y-93523809D01*
X62333333Y-93714285D01*
X62238095Y-93809523D01*
X62047619Y-93904761D01*
X61857142Y-93904761D01*
X61666666Y-93809523D01*
X61571428Y-93714285D01*
X61476190Y-93523809D01*
X61380952Y-93142857D01*
X61380952Y-92666666D01*
X61476190Y-92285714D01*
X61571428Y-92095238D01*
X61666666Y-92000000D01*
X61857142Y-91904761D01*
X73619047Y-127904761D02*
X72476190Y-127904761D01*
X73047619Y-127904761D02*
X73047619Y-125904761D01*
X72857142Y-126190476D01*
X72666666Y-126380952D01*
X72476190Y-126476190D01*
X75333333Y-126571428D02*
X75333333Y-127904761D01*
X74857142Y-125809523D02*
X74380952Y-127238095D01*
X75619047Y-127238095D01*
X73619047Y-119904761D02*
X72476190Y-119904761D01*
X73047619Y-119904761D02*
X73047619Y-117904761D01*
X72857142Y-118190476D01*
X72666666Y-118380952D01*
X72476190Y-118476190D01*
X75333333Y-117904761D02*
X74952380Y-117904761D01*
X74761904Y-118000000D01*
X74666666Y-118095238D01*
X74476190Y-118380952D01*
X74380952Y-118761904D01*
X74380952Y-119523809D01*
X74476190Y-119714285D01*
X74571428Y-119809523D01*
X74761904Y-119904761D01*
X75142857Y-119904761D01*
X75333333Y-119809523D01*
X75428571Y-119714285D01*
X75523809Y-119523809D01*
X75523809Y-119047619D01*
X75428571Y-118857142D01*
X75333333Y-118761904D01*
X75142857Y-118666666D01*
X74761904Y-118666666D01*
X74571428Y-118761904D01*
X74476190Y-118857142D01*
X74380952Y-119047619D01*
X73619047Y-123904761D02*
X72476190Y-123904761D01*
X73047619Y-123904761D02*
X73047619Y-121904761D01*
X72857142Y-122190476D01*
X72666666Y-122380952D01*
X72476190Y-122476190D01*
X75428571Y-121904761D02*
X74476190Y-121904761D01*
X74380952Y-122857142D01*
X74476190Y-122761904D01*
X74666666Y-122666666D01*
X75142857Y-122666666D01*
X75333333Y-122761904D01*
X75428571Y-122857142D01*
X75523809Y-123047619D01*
X75523809Y-123523809D01*
X75428571Y-123714285D01*
X75333333Y-123809523D01*
X75142857Y-123904761D01*
X74666666Y-123904761D01*
X74476190Y-123809523D01*
X74380952Y-123714285D01*
X60619047Y-81904761D02*
X59476190Y-81904761D01*
X60047619Y-81904761D02*
X60047619Y-79904761D01*
X59857142Y-80190476D01*
X59666666Y-80380952D01*
X59476190Y-80476190D01*
X61285714Y-79904761D02*
X62523809Y-79904761D01*
X61857142Y-80666666D01*
X62142857Y-80666666D01*
X62333333Y-80761904D01*
X62428571Y-80857142D01*
X62523809Y-81047619D01*
X62523809Y-81523809D01*
X62428571Y-81714285D01*
X62333333Y-81809523D01*
X62142857Y-81904761D01*
X61571428Y-81904761D01*
X61380952Y-81809523D01*
X61285714Y-81714285D01*
X60619047Y-97904761D02*
X61000000Y-97904761D01*
X61190476Y-97809523D01*
X61285714Y-97714285D01*
X61476190Y-97428571D01*
X61571428Y-97047619D01*
X61571428Y-96285714D01*
X61476190Y-96095238D01*
X61380952Y-96000000D01*
X61190476Y-95904761D01*
X60809523Y-95904761D01*
X60619047Y-96000000D01*
X60523809Y-96095238D01*
X60428571Y-96285714D01*
X60428571Y-96761904D01*
X60523809Y-96952380D01*
X60619047Y-97047619D01*
X60809523Y-97142857D01*
X61190476Y-97142857D01*
X61380952Y-97047619D01*
X61476190Y-96952380D01*
X61571428Y-96761904D01*
X60809523Y-100761904D02*
X60619047Y-100666666D01*
X60523809Y-100571428D01*
X60428571Y-100380952D01*
X60428571Y-100285714D01*
X60523809Y-100095238D01*
X60619047Y-100000000D01*
X60809523Y-99904761D01*
X61190476Y-99904761D01*
X61380952Y-100000000D01*
X61476190Y-100095238D01*
X61571428Y-100285714D01*
X61571428Y-100380952D01*
X61476190Y-100571428D01*
X61380952Y-100666666D01*
X61190476Y-100761904D01*
X60809523Y-100761904D01*
X60619047Y-100857142D01*
X60523809Y-100952380D01*
X60428571Y-101142857D01*
X60428571Y-101523809D01*
X60523809Y-101714285D01*
X60619047Y-101809523D01*
X60809523Y-101904761D01*
X61190476Y-101904761D01*
X61380952Y-101809523D01*
X61476190Y-101714285D01*
X61571428Y-101523809D01*
X61571428Y-101142857D01*
X61476190Y-100952380D01*
X61380952Y-100857142D01*
X61190476Y-100761904D01*
X61476190Y-111904761D02*
X60523809Y-111904761D01*
X60428571Y-112857142D01*
X60523809Y-112761904D01*
X60714285Y-112666666D01*
X61190476Y-112666666D01*
X61380952Y-112761904D01*
X61476190Y-112857142D01*
X61571428Y-113047619D01*
X61571428Y-113523809D01*
X61476190Y-113714285D01*
X61380952Y-113809523D01*
X61190476Y-113904761D01*
X60714285Y-113904761D01*
X60523809Y-113809523D01*
X60428571Y-113714285D01*
X60428571Y-124095238D02*
X60523809Y-124000000D01*
X60714285Y-123904761D01*
X61190476Y-123904761D01*
X61380952Y-124000000D01*
X61476190Y-124095238D01*
X61571428Y-124285714D01*
X61571428Y-124476190D01*
X61476190Y-124761904D01*
X60333333Y-125904761D01*
X61571428Y-125904761D01*
X61571428Y-129904761D02*
X60428571Y-129904761D01*
X61000000Y-129904761D02*
X61000000Y-127904761D01*
X60809523Y-128190476D01*
X60619047Y-128380952D01*
X60428571Y-128476190D01*
X60333333Y-103904761D02*
X61666666Y-103904761D01*
X60809523Y-105904761D01*
X61380952Y-107904761D02*
X61000000Y-107904761D01*
X60809523Y-108000000D01*
X60714285Y-108095238D01*
X60523809Y-108380952D01*
X60428571Y-108761904D01*
X60428571Y-109523809D01*
X60523809Y-109714285D01*
X60619047Y-109809523D01*
X60809523Y-109904761D01*
X61190476Y-109904761D01*
X61380952Y-109809523D01*
X61476190Y-109714285D01*
X61571428Y-109523809D01*
X61571428Y-109047619D01*
X61476190Y-108857142D01*
X61380952Y-108761904D01*
X61190476Y-108666666D01*
X60809523Y-108666666D01*
X60619047Y-108761904D01*
X60523809Y-108857142D01*
X60428571Y-109047619D01*
X60333333Y-119904761D02*
X61571428Y-119904761D01*
X60904761Y-120666666D01*
X61190476Y-120666666D01*
X61380952Y-120761904D01*
X61476190Y-120857142D01*
X61571428Y-121047619D01*
X61571428Y-121523809D01*
X61476190Y-121714285D01*
X61380952Y-121809523D01*
X61190476Y-121904761D01*
X60619047Y-121904761D01*
X60428571Y-121809523D01*
X60333333Y-121714285D01*
X61380952Y-116571428D02*
X61380952Y-117904761D01*
X60904761Y-115809523D02*
X60428571Y-117238095D01*
X61666666Y-117238095D01*
X73619047Y-69904761D02*
X72476190Y-69904761D01*
X73047619Y-69904761D02*
X73047619Y-67904761D01*
X72857142Y-68190476D01*
X72666666Y-68380952D01*
X72476190Y-68476190D01*
X75333333Y-67904761D02*
X74952380Y-67904761D01*
X74761904Y-68000000D01*
X74666666Y-68095238D01*
X74476190Y-68380952D01*
X74380952Y-68761904D01*
X74380952Y-69523809D01*
X74476190Y-69714285D01*
X74571428Y-69809523D01*
X74761904Y-69904761D01*
X75142857Y-69904761D01*
X75333333Y-69809523D01*
X75428571Y-69714285D01*
X75523809Y-69523809D01*
X75523809Y-69047619D01*
X75428571Y-68857142D01*
X75333333Y-68761904D01*
X75142857Y-68666666D01*
X74761904Y-68666666D01*
X74571428Y-68761904D01*
X74476190Y-68857142D01*
X74380952Y-69047619D01*
X72476190Y-36095238D02*
X72571428Y-36000000D01*
X72761904Y-35904761D01*
X73238095Y-35904761D01*
X73428571Y-36000000D01*
X73523809Y-36095238D01*
X73619047Y-36285714D01*
X73619047Y-36476190D01*
X73523809Y-36761904D01*
X72380952Y-37904761D01*
X73619047Y-37904761D01*
X75333333Y-36571428D02*
X75333333Y-37904761D01*
X74857142Y-35809523D02*
X74380952Y-37238095D01*
X75619047Y-37238095D01*
X73619047Y-65904761D02*
X72476190Y-65904761D01*
X73047619Y-65904761D02*
X73047619Y-63904761D01*
X72857142Y-64190476D01*
X72666666Y-64380952D01*
X72476190Y-64476190D01*
X74285714Y-63904761D02*
X75619047Y-63904761D01*
X74761904Y-65904761D01*
X72476190Y-40095238D02*
X72571428Y-40000000D01*
X72761904Y-39904761D01*
X73238095Y-39904761D01*
X73428571Y-40000000D01*
X73523809Y-40095238D01*
X73619047Y-40285714D01*
X73619047Y-40476190D01*
X73523809Y-40761904D01*
X72380952Y-41904761D01*
X73619047Y-41904761D01*
X74285714Y-39904761D02*
X75523809Y-39904761D01*
X74857142Y-40666666D01*
X75142857Y-40666666D01*
X75333333Y-40761904D01*
X75428571Y-40857142D01*
X75523809Y-41047619D01*
X75523809Y-41523809D01*
X75428571Y-41714285D01*
X75333333Y-41809523D01*
X75142857Y-41904761D01*
X74571428Y-41904761D01*
X74380952Y-41809523D01*
X74285714Y-41714285D01*
X73619047Y-73904761D02*
X72476190Y-73904761D01*
X73047619Y-73904761D02*
X73047619Y-71904761D01*
X72857142Y-72190476D01*
X72666666Y-72380952D01*
X72476190Y-72476190D01*
X75428571Y-71904761D02*
X74476190Y-71904761D01*
X74380952Y-72857142D01*
X74476190Y-72761904D01*
X74666666Y-72666666D01*
X75142857Y-72666666D01*
X75333333Y-72761904D01*
X75428571Y-72857142D01*
X75523809Y-73047619D01*
X75523809Y-73523809D01*
X75428571Y-73714285D01*
X75333333Y-73809523D01*
X75142857Y-73904761D01*
X74666666Y-73904761D01*
X74476190Y-73809523D01*
X74380952Y-73714285D01*
X73619047Y-61904761D02*
X72476190Y-61904761D01*
X73047619Y-61904761D02*
X73047619Y-59904761D01*
X72857142Y-60190476D01*
X72666666Y-60380952D01*
X72476190Y-60476190D01*
X74761904Y-60761904D02*
X74571428Y-60666666D01*
X74476190Y-60571428D01*
X74380952Y-60380952D01*
X74380952Y-60285714D01*
X74476190Y-60095238D01*
X74571428Y-60000000D01*
X74761904Y-59904761D01*
X75142857Y-59904761D01*
X75333333Y-60000000D01*
X75428571Y-60095238D01*
X75523809Y-60285714D01*
X75523809Y-60380952D01*
X75428571Y-60571428D01*
X75333333Y-60666666D01*
X75142857Y-60761904D01*
X74761904Y-60761904D01*
X74571428Y-60857142D01*
X74476190Y-60952380D01*
X74380952Y-61142857D01*
X74380952Y-61523809D01*
X74476190Y-61714285D01*
X74571428Y-61809523D01*
X74761904Y-61904761D01*
X75142857Y-61904761D01*
X75333333Y-61809523D01*
X75428571Y-61714285D01*
X75523809Y-61523809D01*
X75523809Y-61142857D01*
X75428571Y-60952380D01*
X75333333Y-60857142D01*
X75142857Y-60761904D01*
X72476190Y-52095238D02*
X72571428Y-52000000D01*
X72761904Y-51904761D01*
X73238095Y-51904761D01*
X73428571Y-52000000D01*
X73523809Y-52095238D01*
X73619047Y-52285714D01*
X73619047Y-52476190D01*
X73523809Y-52761904D01*
X72380952Y-53904761D01*
X73619047Y-53904761D01*
X74857142Y-51904761D02*
X75047619Y-51904761D01*
X75238095Y-52000000D01*
X75333333Y-52095238D01*
X75428571Y-52285714D01*
X75523809Y-52666666D01*
X75523809Y-53142857D01*
X75428571Y-53523809D01*
X75333333Y-53714285D01*
X75238095Y-53809523D01*
X75047619Y-53904761D01*
X74857142Y-53904761D01*
X74666666Y-53809523D01*
X74571428Y-53714285D01*
X74476190Y-53523809D01*
X74380952Y-53142857D01*
X74380952Y-52666666D01*
X74476190Y-52285714D01*
X74571428Y-52095238D01*
X74666666Y-52000000D01*
X74857142Y-51904761D01*
X60619047Y-31904761D02*
X59476190Y-31904761D01*
X60047619Y-31904761D02*
X60047619Y-29904761D01*
X59857142Y-30190476D01*
X59666666Y-30380952D01*
X59476190Y-30476190D01*
X61285714Y-29904761D02*
X62523809Y-29904761D01*
X61857142Y-30666666D01*
X62142857Y-30666666D01*
X62333333Y-30761904D01*
X62428571Y-30857142D01*
X62523809Y-31047619D01*
X62523809Y-31523809D01*
X62428571Y-31714285D01*
X62333333Y-31809523D01*
X62142857Y-31904761D01*
X61571428Y-31904761D01*
X61380952Y-31809523D01*
X61285714Y-31714285D01*
X60809523Y-50761904D02*
X60619047Y-50666666D01*
X60523809Y-50571428D01*
X60428571Y-50380952D01*
X60428571Y-50285714D01*
X60523809Y-50095238D01*
X60619047Y-50000000D01*
X60809523Y-49904761D01*
X61190476Y-49904761D01*
X61380952Y-50000000D01*
X61476190Y-50095238D01*
X61571428Y-50285714D01*
X61571428Y-50380952D01*
X61476190Y-50571428D01*
X61380952Y-50666666D01*
X61190476Y-50761904D01*
X60809523Y-50761904D01*
X60619047Y-50857142D01*
X60523809Y-50952380D01*
X60428571Y-51142857D01*
X60428571Y-51523809D01*
X60523809Y-51714285D01*
X60619047Y-51809523D01*
X60809523Y-51904761D01*
X61190476Y-51904761D01*
X61380952Y-51809523D01*
X61476190Y-51714285D01*
X61571428Y-51523809D01*
X61571428Y-51142857D01*
X61476190Y-50952380D01*
X61380952Y-50857142D01*
X61190476Y-50761904D01*
X72476190Y-44095238D02*
X72571428Y-44000000D01*
X72761904Y-43904761D01*
X73238095Y-43904761D01*
X73428571Y-44000000D01*
X73523809Y-44095238D01*
X73619047Y-44285714D01*
X73619047Y-44476190D01*
X73523809Y-44761904D01*
X72380952Y-45904761D01*
X73619047Y-45904761D01*
X74380952Y-44095238D02*
X74476190Y-44000000D01*
X74666666Y-43904761D01*
X75142857Y-43904761D01*
X75333333Y-44000000D01*
X75428571Y-44095238D01*
X75523809Y-44285714D01*
X75523809Y-44476190D01*
X75428571Y-44761904D01*
X74285714Y-45904761D01*
X75523809Y-45904761D01*
X60619047Y-43904761D02*
X59476190Y-43904761D01*
X60047619Y-43904761D02*
X60047619Y-41904761D01*
X59857142Y-42190476D01*
X59666666Y-42380952D01*
X59476190Y-42476190D01*
X61857142Y-41904761D02*
X62047619Y-41904761D01*
X62238095Y-42000000D01*
X62333333Y-42095238D01*
X62428571Y-42285714D01*
X62523809Y-42666666D01*
X62523809Y-43142857D01*
X62428571Y-43523809D01*
X62333333Y-43714285D01*
X62238095Y-43809523D01*
X62047619Y-43904761D01*
X61857142Y-43904761D01*
X61666666Y-43809523D01*
X61571428Y-43714285D01*
X61476190Y-43523809D01*
X61380952Y-43142857D01*
X61380952Y-42666666D01*
X61476190Y-42285714D01*
X61571428Y-42095238D01*
X61666666Y-42000000D01*
X61857142Y-41904761D01*
X72476190Y-48095238D02*
X72571428Y-48000000D01*
X72761904Y-47904761D01*
X73238095Y-47904761D01*
X73428571Y-48000000D01*
X73523809Y-48095238D01*
X73619047Y-48285714D01*
X73619047Y-48476190D01*
X73523809Y-48761904D01*
X72380952Y-49904761D01*
X73619047Y-49904761D01*
X75523809Y-49904761D02*
X74380952Y-49904761D01*
X74952380Y-49904761D02*
X74952380Y-47904761D01*
X74761904Y-48190476D01*
X74571428Y-48380952D01*
X74380952Y-48476190D01*
X60619047Y-39904761D02*
X59476190Y-39904761D01*
X60047619Y-39904761D02*
X60047619Y-37904761D01*
X59857142Y-38190476D01*
X59666666Y-38380952D01*
X59476190Y-38476190D01*
X62523809Y-39904761D02*
X61380952Y-39904761D01*
X61952380Y-39904761D02*
X61952380Y-37904761D01*
X61761904Y-38190476D01*
X61571428Y-38380952D01*
X61380952Y-38476190D01*
X60619047Y-35904761D02*
X59476190Y-35904761D01*
X60047619Y-35904761D02*
X60047619Y-33904761D01*
X59857142Y-34190476D01*
X59666666Y-34380952D01*
X59476190Y-34476190D01*
X61380952Y-34095238D02*
X61476190Y-34000000D01*
X61666666Y-33904761D01*
X62142857Y-33904761D01*
X62333333Y-34000000D01*
X62428571Y-34095238D01*
X62523809Y-34285714D01*
X62523809Y-34476190D01*
X62428571Y-34761904D01*
X61285714Y-35904761D01*
X62523809Y-35904761D01*
X60619047Y-47904761D02*
X61000000Y-47904761D01*
X61190476Y-47809523D01*
X61285714Y-47714285D01*
X61476190Y-47428571D01*
X61571428Y-47047619D01*
X61571428Y-46285714D01*
X61476190Y-46095238D01*
X61380952Y-46000000D01*
X61190476Y-45904761D01*
X60809523Y-45904761D01*
X60619047Y-46000000D01*
X60523809Y-46095238D01*
X60428571Y-46285714D01*
X60428571Y-46761904D01*
X60523809Y-46952380D01*
X60619047Y-47047619D01*
X60809523Y-47142857D01*
X61190476Y-47142857D01*
X61380952Y-47047619D01*
X61476190Y-46952380D01*
X61571428Y-46761904D01*
X73619047Y-57904761D02*
X72476190Y-57904761D01*
X73047619Y-57904761D02*
X73047619Y-55904761D01*
X72857142Y-56190476D01*
X72666666Y-56380952D01*
X72476190Y-56476190D01*
X74571428Y-57904761D02*
X74952380Y-57904761D01*
X75142857Y-57809523D01*
X75238095Y-57714285D01*
X75428571Y-57428571D01*
X75523809Y-57047619D01*
X75523809Y-56285714D01*
X75428571Y-56095238D01*
X75333333Y-56000000D01*
X75142857Y-55904761D01*
X74761904Y-55904761D01*
X74571428Y-56000000D01*
X74476190Y-56095238D01*
X74380952Y-56285714D01*
X74380952Y-56761904D01*
X74476190Y-56952380D01*
X74571428Y-57047619D01*
X74761904Y-57142857D01*
X75142857Y-57142857D01*
X75333333Y-57047619D01*
X75428571Y-56952380D01*
X75523809Y-56761904D01*
X72476190Y-32095238D02*
X72571428Y-32000000D01*
X72761904Y-31904761D01*
X73238095Y-31904761D01*
X73428571Y-32000000D01*
X73523809Y-32095238D01*
X73619047Y-32285714D01*
X73619047Y-32476190D01*
X73523809Y-32761904D01*
X72380952Y-33904761D01*
X73619047Y-33904761D01*
X75428571Y-31904761D02*
X74476190Y-31904761D01*
X74380952Y-32857142D01*
X74476190Y-32761904D01*
X74666666Y-32666666D01*
X75142857Y-32666666D01*
X75333333Y-32761904D01*
X75428571Y-32857142D01*
X75523809Y-33047619D01*
X75523809Y-33523809D01*
X75428571Y-33714285D01*
X75333333Y-33809523D01*
X75142857Y-33904761D01*
X74666666Y-33904761D01*
X74476190Y-33809523D01*
X74380952Y-33714285D01*
X73619047Y-77904761D02*
X72476190Y-77904761D01*
X73047619Y-77904761D02*
X73047619Y-75904761D01*
X72857142Y-76190476D01*
X72666666Y-76380952D01*
X72476190Y-76476190D01*
X75333333Y-76571428D02*
X75333333Y-77904761D01*
X74857142Y-75809523D02*
X74380952Y-77238095D01*
X75619047Y-77238095D01*
X60333333Y-53904761D02*
X61666666Y-53904761D01*
X60809523Y-55904761D01*
X61380952Y-57904761D02*
X61000000Y-57904761D01*
X60809523Y-58000000D01*
X60714285Y-58095238D01*
X60523809Y-58380952D01*
X60428571Y-58761904D01*
X60428571Y-59523809D01*
X60523809Y-59714285D01*
X60619047Y-59809523D01*
X60809523Y-59904761D01*
X61190476Y-59904761D01*
X61380952Y-59809523D01*
X61476190Y-59714285D01*
X61571428Y-59523809D01*
X61571428Y-59047619D01*
X61476190Y-58857142D01*
X61380952Y-58761904D01*
X61190476Y-58666666D01*
X60809523Y-58666666D01*
X60619047Y-58761904D01*
X60523809Y-58857142D01*
X60428571Y-59047619D01*
X61476190Y-61904761D02*
X60523809Y-61904761D01*
X60428571Y-62857142D01*
X60523809Y-62761904D01*
X60714285Y-62666666D01*
X61190476Y-62666666D01*
X61380952Y-62761904D01*
X61476190Y-62857142D01*
X61571428Y-63047619D01*
X61571428Y-63523809D01*
X61476190Y-63714285D01*
X61380952Y-63809523D01*
X61190476Y-63904761D01*
X60714285Y-63904761D01*
X60523809Y-63809523D01*
X60428571Y-63714285D01*
X60428571Y-74095238D02*
X60523809Y-74000000D01*
X60714285Y-73904761D01*
X61190476Y-73904761D01*
X61380952Y-74000000D01*
X61476190Y-74095238D01*
X61571428Y-74285714D01*
X61571428Y-74476190D01*
X61476190Y-74761904D01*
X60333333Y-75904761D01*
X61571428Y-75904761D01*
X60333333Y-69904761D02*
X61571428Y-69904761D01*
X60904761Y-70666666D01*
X61190476Y-70666666D01*
X61380952Y-70761904D01*
X61476190Y-70857142D01*
X61571428Y-71047619D01*
X61571428Y-71523809D01*
X61476190Y-71714285D01*
X61380952Y-71809523D01*
X61190476Y-71904761D01*
X60619047Y-71904761D01*
X60428571Y-71809523D01*
X60333333Y-71714285D01*
X61571428Y-79904761D02*
X60428571Y-79904761D01*
X61000000Y-79904761D02*
X61000000Y-77904761D01*
X60809523Y-78190476D01*
X60619047Y-78380952D01*
X60428571Y-78476190D01*
X61380952Y-66571428D02*
X61380952Y-67904761D01*
X60904761Y-65809523D02*
X60428571Y-67238095D01*
X61666666Y-67238095D01*
X36571428Y-79904761D02*
X35428571Y-79904761D01*
X36000000Y-79904761D02*
X36000000Y-77904761D01*
X35809523Y-78190476D01*
X35619047Y-78380952D01*
X35428571Y-78476190D01*
X35428571Y-74095238D02*
X35523809Y-74000000D01*
X35714285Y-73904761D01*
X36190476Y-73904761D01*
X36380952Y-74000000D01*
X36476190Y-74095238D01*
X36571428Y-74285714D01*
X36571428Y-74476190D01*
X36476190Y-74761904D01*
X35333333Y-75904761D01*
X36571428Y-75904761D01*
X35333333Y-69904761D02*
X36571428Y-69904761D01*
X35904761Y-70666666D01*
X36190476Y-70666666D01*
X36380952Y-70761904D01*
X36476190Y-70857142D01*
X36571428Y-71047619D01*
X36571428Y-71523809D01*
X36476190Y-71714285D01*
X36380952Y-71809523D01*
X36190476Y-71904761D01*
X35619047Y-71904761D01*
X35428571Y-71809523D01*
X35333333Y-71714285D01*
X36380952Y-66571428D02*
X36380952Y-67904761D01*
X35904761Y-65809523D02*
X35428571Y-67238095D01*
X36666666Y-67238095D01*
X36476190Y-61904761D02*
X35523809Y-61904761D01*
X35428571Y-62857142D01*
X35523809Y-62761904D01*
X35714285Y-62666666D01*
X36190476Y-62666666D01*
X36380952Y-62761904D01*
X36476190Y-62857142D01*
X36571428Y-63047619D01*
X36571428Y-63523809D01*
X36476190Y-63714285D01*
X36380952Y-63809523D01*
X36190476Y-63904761D01*
X35714285Y-63904761D01*
X35523809Y-63809523D01*
X35428571Y-63714285D01*
X36380952Y-57904761D02*
X36000000Y-57904761D01*
X35809523Y-58000000D01*
X35714285Y-58095238D01*
X35523809Y-58380952D01*
X35428571Y-58761904D01*
X35428571Y-59523809D01*
X35523809Y-59714285D01*
X35619047Y-59809523D01*
X35809523Y-59904761D01*
X36190476Y-59904761D01*
X36380952Y-59809523D01*
X36476190Y-59714285D01*
X36571428Y-59523809D01*
X36571428Y-59047619D01*
X36476190Y-58857142D01*
X36380952Y-58761904D01*
X36190476Y-58666666D01*
X35809523Y-58666666D01*
X35619047Y-58761904D01*
X35523809Y-58857142D01*
X35428571Y-59047619D01*
X35333333Y-53904761D02*
X36666666Y-53904761D01*
X35809523Y-55904761D01*
X35809523Y-50761904D02*
X35619047Y-50666666D01*
X35523809Y-50571428D01*
X35428571Y-50380952D01*
X35428571Y-50285714D01*
X35523809Y-50095238D01*
X35619047Y-50000000D01*
X35809523Y-49904761D01*
X36190476Y-49904761D01*
X36380952Y-50000000D01*
X36476190Y-50095238D01*
X36571428Y-50285714D01*
X36571428Y-50380952D01*
X36476190Y-50571428D01*
X36380952Y-50666666D01*
X36190476Y-50761904D01*
X35809523Y-50761904D01*
X35619047Y-50857142D01*
X35523809Y-50952380D01*
X35428571Y-51142857D01*
X35428571Y-51523809D01*
X35523809Y-51714285D01*
X35619047Y-51809523D01*
X35809523Y-51904761D01*
X36190476Y-51904761D01*
X36380952Y-51809523D01*
X36476190Y-51714285D01*
X36571428Y-51523809D01*
X36571428Y-51142857D01*
X36476190Y-50952380D01*
X36380952Y-50857142D01*
X36190476Y-50761904D01*
X35619047Y-47904761D02*
X36000000Y-47904761D01*
X36190476Y-47809523D01*
X36285714Y-47714285D01*
X36476190Y-47428571D01*
X36571428Y-47047619D01*
X36571428Y-46285714D01*
X36476190Y-46095238D01*
X36380952Y-46000000D01*
X36190476Y-45904761D01*
X35809523Y-45904761D01*
X35619047Y-46000000D01*
X35523809Y-46095238D01*
X35428571Y-46285714D01*
X35428571Y-46761904D01*
X35523809Y-46952380D01*
X35619047Y-47047619D01*
X35809523Y-47142857D01*
X36190476Y-47142857D01*
X36380952Y-47047619D01*
X36476190Y-46952380D01*
X36571428Y-46761904D01*
X35619047Y-43904761D02*
X34476190Y-43904761D01*
X35047619Y-43904761D02*
X35047619Y-41904761D01*
X34857142Y-42190476D01*
X34666666Y-42380952D01*
X34476190Y-42476190D01*
X36857142Y-41904761D02*
X37047619Y-41904761D01*
X37238095Y-42000000D01*
X37333333Y-42095238D01*
X37428571Y-42285714D01*
X37523809Y-42666666D01*
X37523809Y-43142857D01*
X37428571Y-43523809D01*
X37333333Y-43714285D01*
X37238095Y-43809523D01*
X37047619Y-43904761D01*
X36857142Y-43904761D01*
X36666666Y-43809523D01*
X36571428Y-43714285D01*
X36476190Y-43523809D01*
X36380952Y-43142857D01*
X36380952Y-42666666D01*
X36476190Y-42285714D01*
X36571428Y-42095238D01*
X36666666Y-42000000D01*
X36857142Y-41904761D01*
X35619047Y-39904761D02*
X34476190Y-39904761D01*
X35047619Y-39904761D02*
X35047619Y-37904761D01*
X34857142Y-38190476D01*
X34666666Y-38380952D01*
X34476190Y-38476190D01*
X37523809Y-39904761D02*
X36380952Y-39904761D01*
X36952380Y-39904761D02*
X36952380Y-37904761D01*
X36761904Y-38190476D01*
X36571428Y-38380952D01*
X36380952Y-38476190D01*
X35619047Y-35904761D02*
X34476190Y-35904761D01*
X35047619Y-35904761D02*
X35047619Y-33904761D01*
X34857142Y-34190476D01*
X34666666Y-34380952D01*
X34476190Y-34476190D01*
X36380952Y-34095238D02*
X36476190Y-34000000D01*
X36666666Y-33904761D01*
X37142857Y-33904761D01*
X37333333Y-34000000D01*
X37428571Y-34095238D01*
X37523809Y-34285714D01*
X37523809Y-34476190D01*
X37428571Y-34761904D01*
X36285714Y-35904761D01*
X37523809Y-35904761D01*
X35619047Y-31904761D02*
X34476190Y-31904761D01*
X35047619Y-31904761D02*
X35047619Y-29904761D01*
X34857142Y-30190476D01*
X34666666Y-30380952D01*
X34476190Y-30476190D01*
X36285714Y-29904761D02*
X37523809Y-29904761D01*
X36857142Y-30666666D01*
X37142857Y-30666666D01*
X37333333Y-30761904D01*
X37428571Y-30857142D01*
X37523809Y-31047619D01*
X37523809Y-31523809D01*
X37428571Y-31714285D01*
X37333333Y-31809523D01*
X37142857Y-31904761D01*
X36571428Y-31904761D01*
X36380952Y-31809523D01*
X36285714Y-31714285D01*
X48619047Y-77904761D02*
X47476190Y-77904761D01*
X48047619Y-77904761D02*
X48047619Y-75904761D01*
X47857142Y-76190476D01*
X47666666Y-76380952D01*
X47476190Y-76476190D01*
X50333333Y-76571428D02*
X50333333Y-77904761D01*
X49857142Y-75809523D02*
X49380952Y-77238095D01*
X50619047Y-77238095D01*
X48619047Y-73904761D02*
X47476190Y-73904761D01*
X48047619Y-73904761D02*
X48047619Y-71904761D01*
X47857142Y-72190476D01*
X47666666Y-72380952D01*
X47476190Y-72476190D01*
X50428571Y-71904761D02*
X49476190Y-71904761D01*
X49380952Y-72857142D01*
X49476190Y-72761904D01*
X49666666Y-72666666D01*
X50142857Y-72666666D01*
X50333333Y-72761904D01*
X50428571Y-72857142D01*
X50523809Y-73047619D01*
X50523809Y-73523809D01*
X50428571Y-73714285D01*
X50333333Y-73809523D01*
X50142857Y-73904761D01*
X49666666Y-73904761D01*
X49476190Y-73809523D01*
X49380952Y-73714285D01*
X48619047Y-69904761D02*
X47476190Y-69904761D01*
X48047619Y-69904761D02*
X48047619Y-67904761D01*
X47857142Y-68190476D01*
X47666666Y-68380952D01*
X47476190Y-68476190D01*
X50333333Y-67904761D02*
X49952380Y-67904761D01*
X49761904Y-68000000D01*
X49666666Y-68095238D01*
X49476190Y-68380952D01*
X49380952Y-68761904D01*
X49380952Y-69523809D01*
X49476190Y-69714285D01*
X49571428Y-69809523D01*
X49761904Y-69904761D01*
X50142857Y-69904761D01*
X50333333Y-69809523D01*
X50428571Y-69714285D01*
X50523809Y-69523809D01*
X50523809Y-69047619D01*
X50428571Y-68857142D01*
X50333333Y-68761904D01*
X50142857Y-68666666D01*
X49761904Y-68666666D01*
X49571428Y-68761904D01*
X49476190Y-68857142D01*
X49380952Y-69047619D01*
X48619047Y-65904761D02*
X47476190Y-65904761D01*
X48047619Y-65904761D02*
X48047619Y-63904761D01*
X47857142Y-64190476D01*
X47666666Y-64380952D01*
X47476190Y-64476190D01*
X49285714Y-63904761D02*
X50619047Y-63904761D01*
X49761904Y-65904761D01*
X48619047Y-61904761D02*
X47476190Y-61904761D01*
X48047619Y-61904761D02*
X48047619Y-59904761D01*
X47857142Y-60190476D01*
X47666666Y-60380952D01*
X47476190Y-60476190D01*
X49761904Y-60761904D02*
X49571428Y-60666666D01*
X49476190Y-60571428D01*
X49380952Y-60380952D01*
X49380952Y-60285714D01*
X49476190Y-60095238D01*
X49571428Y-60000000D01*
X49761904Y-59904761D01*
X50142857Y-59904761D01*
X50333333Y-60000000D01*
X50428571Y-60095238D01*
X50523809Y-60285714D01*
X50523809Y-60380952D01*
X50428571Y-60571428D01*
X50333333Y-60666666D01*
X50142857Y-60761904D01*
X49761904Y-60761904D01*
X49571428Y-60857142D01*
X49476190Y-60952380D01*
X49380952Y-61142857D01*
X49380952Y-61523809D01*
X49476190Y-61714285D01*
X49571428Y-61809523D01*
X49761904Y-61904761D01*
X50142857Y-61904761D01*
X50333333Y-61809523D01*
X50428571Y-61714285D01*
X50523809Y-61523809D01*
X50523809Y-61142857D01*
X50428571Y-60952380D01*
X50333333Y-60857142D01*
X50142857Y-60761904D01*
X48619047Y-57904761D02*
X47476190Y-57904761D01*
X48047619Y-57904761D02*
X48047619Y-55904761D01*
X47857142Y-56190476D01*
X47666666Y-56380952D01*
X47476190Y-56476190D01*
X49571428Y-57904761D02*
X49952380Y-57904761D01*
X50142857Y-57809523D01*
X50238095Y-57714285D01*
X50428571Y-57428571D01*
X50523809Y-57047619D01*
X50523809Y-56285714D01*
X50428571Y-56095238D01*
X50333333Y-56000000D01*
X50142857Y-55904761D01*
X49761904Y-55904761D01*
X49571428Y-56000000D01*
X49476190Y-56095238D01*
X49380952Y-56285714D01*
X49380952Y-56761904D01*
X49476190Y-56952380D01*
X49571428Y-57047619D01*
X49761904Y-57142857D01*
X50142857Y-57142857D01*
X50333333Y-57047619D01*
X50428571Y-56952380D01*
X50523809Y-56761904D01*
X47476190Y-52095238D02*
X47571428Y-52000000D01*
X47761904Y-51904761D01*
X48238095Y-51904761D01*
X48428571Y-52000000D01*
X48523809Y-52095238D01*
X48619047Y-52285714D01*
X48619047Y-52476190D01*
X48523809Y-52761904D01*
X47380952Y-53904761D01*
X48619047Y-53904761D01*
X49857142Y-51904761D02*
X50047619Y-51904761D01*
X50238095Y-52000000D01*
X50333333Y-52095238D01*
X50428571Y-52285714D01*
X50523809Y-52666666D01*
X50523809Y-53142857D01*
X50428571Y-53523809D01*
X50333333Y-53714285D01*
X50238095Y-53809523D01*
X50047619Y-53904761D01*
X49857142Y-53904761D01*
X49666666Y-53809523D01*
X49571428Y-53714285D01*
X49476190Y-53523809D01*
X49380952Y-53142857D01*
X49380952Y-52666666D01*
X49476190Y-52285714D01*
X49571428Y-52095238D01*
X49666666Y-52000000D01*
X49857142Y-51904761D01*
X47476190Y-48095238D02*
X47571428Y-48000000D01*
X47761904Y-47904761D01*
X48238095Y-47904761D01*
X48428571Y-48000000D01*
X48523809Y-48095238D01*
X48619047Y-48285714D01*
X48619047Y-48476190D01*
X48523809Y-48761904D01*
X47380952Y-49904761D01*
X48619047Y-49904761D01*
X50523809Y-49904761D02*
X49380952Y-49904761D01*
X49952380Y-49904761D02*
X49952380Y-47904761D01*
X49761904Y-48190476D01*
X49571428Y-48380952D01*
X49380952Y-48476190D01*
X47476190Y-44095238D02*
X47571428Y-44000000D01*
X47761904Y-43904761D01*
X48238095Y-43904761D01*
X48428571Y-44000000D01*
X48523809Y-44095238D01*
X48619047Y-44285714D01*
X48619047Y-44476190D01*
X48523809Y-44761904D01*
X47380952Y-45904761D01*
X48619047Y-45904761D01*
X49380952Y-44095238D02*
X49476190Y-44000000D01*
X49666666Y-43904761D01*
X50142857Y-43904761D01*
X50333333Y-44000000D01*
X50428571Y-44095238D01*
X50523809Y-44285714D01*
X50523809Y-44476190D01*
X50428571Y-44761904D01*
X49285714Y-45904761D01*
X50523809Y-45904761D01*
X47476190Y-40095238D02*
X47571428Y-40000000D01*
X47761904Y-39904761D01*
X48238095Y-39904761D01*
X48428571Y-40000000D01*
X48523809Y-40095238D01*
X48619047Y-40285714D01*
X48619047Y-40476190D01*
X48523809Y-40761904D01*
X47380952Y-41904761D01*
X48619047Y-41904761D01*
X49285714Y-39904761D02*
X50523809Y-39904761D01*
X49857142Y-40666666D01*
X50142857Y-40666666D01*
X50333333Y-40761904D01*
X50428571Y-40857142D01*
X50523809Y-41047619D01*
X50523809Y-41523809D01*
X50428571Y-41714285D01*
X50333333Y-41809523D01*
X50142857Y-41904761D01*
X49571428Y-41904761D01*
X49380952Y-41809523D01*
X49285714Y-41714285D01*
X47476190Y-36095238D02*
X47571428Y-36000000D01*
X47761904Y-35904761D01*
X48238095Y-35904761D01*
X48428571Y-36000000D01*
X48523809Y-36095238D01*
X48619047Y-36285714D01*
X48619047Y-36476190D01*
X48523809Y-36761904D01*
X47380952Y-37904761D01*
X48619047Y-37904761D01*
X50333333Y-36571428D02*
X50333333Y-37904761D01*
X49857142Y-35809523D02*
X49380952Y-37238095D01*
X50619047Y-37238095D01*
X47476190Y-32095238D02*
X47571428Y-32000000D01*
X47761904Y-31904761D01*
X48238095Y-31904761D01*
X48428571Y-32000000D01*
X48523809Y-32095238D01*
X48619047Y-32285714D01*
X48619047Y-32476190D01*
X48523809Y-32761904D01*
X47380952Y-33904761D01*
X48619047Y-33904761D01*
X50428571Y-31904761D02*
X49476190Y-31904761D01*
X49380952Y-32857142D01*
X49476190Y-32761904D01*
X49666666Y-32666666D01*
X50142857Y-32666666D01*
X50333333Y-32761904D01*
X50428571Y-32857142D01*
X50523809Y-33047619D01*
X50523809Y-33523809D01*
X50428571Y-33714285D01*
X50333333Y-33809523D01*
X50142857Y-33904761D01*
X49666666Y-33904761D01*
X49476190Y-33809523D01*
X49380952Y-33714285D01*
X36571428Y-129904761D02*
X35428571Y-129904761D01*
X36000000Y-129904761D02*
X36000000Y-127904761D01*
X35809523Y-128190476D01*
X35619047Y-128380952D01*
X35428571Y-128476190D01*
X35428571Y-124095238D02*
X35523809Y-124000000D01*
X35714285Y-123904761D01*
X36190476Y-123904761D01*
X36380952Y-124000000D01*
X36476190Y-124095238D01*
X36571428Y-124285714D01*
X36571428Y-124476190D01*
X36476190Y-124761904D01*
X35333333Y-125904761D01*
X36571428Y-125904761D01*
X35333333Y-119904761D02*
X36571428Y-119904761D01*
X35904761Y-120666666D01*
X36190476Y-120666666D01*
X36380952Y-120761904D01*
X36476190Y-120857142D01*
X36571428Y-121047619D01*
X36571428Y-121523809D01*
X36476190Y-121714285D01*
X36380952Y-121809523D01*
X36190476Y-121904761D01*
X35619047Y-121904761D01*
X35428571Y-121809523D01*
X35333333Y-121714285D01*
X36380952Y-116571428D02*
X36380952Y-117904761D01*
X35904761Y-115809523D02*
X35428571Y-117238095D01*
X36666666Y-117238095D01*
X36476190Y-111904761D02*
X35523809Y-111904761D01*
X35428571Y-112857142D01*
X35523809Y-112761904D01*
X35714285Y-112666666D01*
X36190476Y-112666666D01*
X36380952Y-112761904D01*
X36476190Y-112857142D01*
X36571428Y-113047619D01*
X36571428Y-113523809D01*
X36476190Y-113714285D01*
X36380952Y-113809523D01*
X36190476Y-113904761D01*
X35714285Y-113904761D01*
X35523809Y-113809523D01*
X35428571Y-113714285D01*
X36380952Y-107904761D02*
X36000000Y-107904761D01*
X35809523Y-108000000D01*
X35714285Y-108095238D01*
X35523809Y-108380952D01*
X35428571Y-108761904D01*
X35428571Y-109523809D01*
X35523809Y-109714285D01*
X35619047Y-109809523D01*
X35809523Y-109904761D01*
X36190476Y-109904761D01*
X36380952Y-109809523D01*
X36476190Y-109714285D01*
X36571428Y-109523809D01*
X36571428Y-109047619D01*
X36476190Y-108857142D01*
X36380952Y-108761904D01*
X36190476Y-108666666D01*
X35809523Y-108666666D01*
X35619047Y-108761904D01*
X35523809Y-108857142D01*
X35428571Y-109047619D01*
X35333333Y-103904761D02*
X36666666Y-103904761D01*
X35809523Y-105904761D01*
X35809523Y-100761904D02*
X35619047Y-100666666D01*
X35523809Y-100571428D01*
X35428571Y-100380952D01*
X35428571Y-100285714D01*
X35523809Y-100095238D01*
X35619047Y-100000000D01*
X35809523Y-99904761D01*
X36190476Y-99904761D01*
X36380952Y-100000000D01*
X36476190Y-100095238D01*
X36571428Y-100285714D01*
X36571428Y-100380952D01*
X36476190Y-100571428D01*
X36380952Y-100666666D01*
X36190476Y-100761904D01*
X35809523Y-100761904D01*
X35619047Y-100857142D01*
X35523809Y-100952380D01*
X35428571Y-101142857D01*
X35428571Y-101523809D01*
X35523809Y-101714285D01*
X35619047Y-101809523D01*
X35809523Y-101904761D01*
X36190476Y-101904761D01*
X36380952Y-101809523D01*
X36476190Y-101714285D01*
X36571428Y-101523809D01*
X36571428Y-101142857D01*
X36476190Y-100952380D01*
X36380952Y-100857142D01*
X36190476Y-100761904D01*
X35619047Y-97904761D02*
X36000000Y-97904761D01*
X36190476Y-97809523D01*
X36285714Y-97714285D01*
X36476190Y-97428571D01*
X36571428Y-97047619D01*
X36571428Y-96285714D01*
X36476190Y-96095238D01*
X36380952Y-96000000D01*
X36190476Y-95904761D01*
X35809523Y-95904761D01*
X35619047Y-96000000D01*
X35523809Y-96095238D01*
X35428571Y-96285714D01*
X35428571Y-96761904D01*
X35523809Y-96952380D01*
X35619047Y-97047619D01*
X35809523Y-97142857D01*
X36190476Y-97142857D01*
X36380952Y-97047619D01*
X36476190Y-96952380D01*
X36571428Y-96761904D01*
X35619047Y-93904761D02*
X34476190Y-93904761D01*
X35047619Y-93904761D02*
X35047619Y-91904761D01*
X34857142Y-92190476D01*
X34666666Y-92380952D01*
X34476190Y-92476190D01*
X36857142Y-91904761D02*
X37047619Y-91904761D01*
X37238095Y-92000000D01*
X37333333Y-92095238D01*
X37428571Y-92285714D01*
X37523809Y-92666666D01*
X37523809Y-93142857D01*
X37428571Y-93523809D01*
X37333333Y-93714285D01*
X37238095Y-93809523D01*
X37047619Y-93904761D01*
X36857142Y-93904761D01*
X36666666Y-93809523D01*
X36571428Y-93714285D01*
X36476190Y-93523809D01*
X36380952Y-93142857D01*
X36380952Y-92666666D01*
X36476190Y-92285714D01*
X36571428Y-92095238D01*
X36666666Y-92000000D01*
X36857142Y-91904761D01*
X35619047Y-89904761D02*
X34476190Y-89904761D01*
X35047619Y-89904761D02*
X35047619Y-87904761D01*
X34857142Y-88190476D01*
X34666666Y-88380952D01*
X34476190Y-88476190D01*
X37523809Y-89904761D02*
X36380952Y-89904761D01*
X36952380Y-89904761D02*
X36952380Y-87904761D01*
X36761904Y-88190476D01*
X36571428Y-88380952D01*
X36380952Y-88476190D01*
X35619047Y-85904761D02*
X34476190Y-85904761D01*
X35047619Y-85904761D02*
X35047619Y-83904761D01*
X34857142Y-84190476D01*
X34666666Y-84380952D01*
X34476190Y-84476190D01*
X36380952Y-84095238D02*
X36476190Y-84000000D01*
X36666666Y-83904761D01*
X37142857Y-83904761D01*
X37333333Y-84000000D01*
X37428571Y-84095238D01*
X37523809Y-84285714D01*
X37523809Y-84476190D01*
X37428571Y-84761904D01*
X36285714Y-85904761D01*
X37523809Y-85904761D01*
X35619047Y-81904761D02*
X34476190Y-81904761D01*
X35047619Y-81904761D02*
X35047619Y-79904761D01*
X34857142Y-80190476D01*
X34666666Y-80380952D01*
X34476190Y-80476190D01*
X36285714Y-79904761D02*
X37523809Y-79904761D01*
X36857142Y-80666666D01*
X37142857Y-80666666D01*
X37333333Y-80761904D01*
X37428571Y-80857142D01*
X37523809Y-81047619D01*
X37523809Y-81523809D01*
X37428571Y-81714285D01*
X37333333Y-81809523D01*
X37142857Y-81904761D01*
X36571428Y-81904761D01*
X36380952Y-81809523D01*
X36285714Y-81714285D01*
X48619047Y-127904761D02*
X47476190Y-127904761D01*
X48047619Y-127904761D02*
X48047619Y-125904761D01*
X47857142Y-126190476D01*
X47666666Y-126380952D01*
X47476190Y-126476190D01*
X50333333Y-126571428D02*
X50333333Y-127904761D01*
X49857142Y-125809523D02*
X49380952Y-127238095D01*
X50619047Y-127238095D01*
X48619047Y-123904761D02*
X47476190Y-123904761D01*
X48047619Y-123904761D02*
X48047619Y-121904761D01*
X47857142Y-122190476D01*
X47666666Y-122380952D01*
X47476190Y-122476190D01*
X50428571Y-121904761D02*
X49476190Y-121904761D01*
X49380952Y-122857142D01*
X49476190Y-122761904D01*
X49666666Y-122666666D01*
X50142857Y-122666666D01*
X50333333Y-122761904D01*
X50428571Y-122857142D01*
X50523809Y-123047619D01*
X50523809Y-123523809D01*
X50428571Y-123714285D01*
X50333333Y-123809523D01*
X50142857Y-123904761D01*
X49666666Y-123904761D01*
X49476190Y-123809523D01*
X49380952Y-123714285D01*
X48619047Y-119904761D02*
X47476190Y-119904761D01*
X48047619Y-119904761D02*
X48047619Y-117904761D01*
X47857142Y-118190476D01*
X47666666Y-118380952D01*
X47476190Y-118476190D01*
X50333333Y-117904761D02*
X49952380Y-117904761D01*
X49761904Y-118000000D01*
X49666666Y-118095238D01*
X49476190Y-118380952D01*
X49380952Y-118761904D01*
X49380952Y-119523809D01*
X49476190Y-119714285D01*
X49571428Y-119809523D01*
X49761904Y-119904761D01*
X50142857Y-119904761D01*
X50333333Y-119809523D01*
X50428571Y-119714285D01*
X50523809Y-119523809D01*
X50523809Y-119047619D01*
X50428571Y-118857142D01*
X50333333Y-118761904D01*
X50142857Y-118666666D01*
X49761904Y-118666666D01*
X49571428Y-118761904D01*
X49476190Y-118857142D01*
X49380952Y-119047619D01*
X48619047Y-115904761D02*
X47476190Y-115904761D01*
X48047619Y-115904761D02*
X48047619Y-113904761D01*
X47857142Y-114190476D01*
X47666666Y-114380952D01*
X47476190Y-114476190D01*
X49285714Y-113904761D02*
X50619047Y-113904761D01*
X49761904Y-115904761D01*
X48619047Y-111904761D02*
X47476190Y-111904761D01*
X48047619Y-111904761D02*
X48047619Y-109904761D01*
X47857142Y-110190476D01*
X47666666Y-110380952D01*
X47476190Y-110476190D01*
X49761904Y-110761904D02*
X49571428Y-110666666D01*
X49476190Y-110571428D01*
X49380952Y-110380952D01*
X49380952Y-110285714D01*
X49476190Y-110095238D01*
X49571428Y-110000000D01*
X49761904Y-109904761D01*
X50142857Y-109904761D01*
X50333333Y-110000000D01*
X50428571Y-110095238D01*
X50523809Y-110285714D01*
X50523809Y-110380952D01*
X50428571Y-110571428D01*
X50333333Y-110666666D01*
X50142857Y-110761904D01*
X49761904Y-110761904D01*
X49571428Y-110857142D01*
X49476190Y-110952380D01*
X49380952Y-111142857D01*
X49380952Y-111523809D01*
X49476190Y-111714285D01*
X49571428Y-111809523D01*
X49761904Y-111904761D01*
X50142857Y-111904761D01*
X50333333Y-111809523D01*
X50428571Y-111714285D01*
X50523809Y-111523809D01*
X50523809Y-111142857D01*
X50428571Y-110952380D01*
X50333333Y-110857142D01*
X50142857Y-110761904D01*
X48619047Y-107904761D02*
X47476190Y-107904761D01*
X48047619Y-107904761D02*
X48047619Y-105904761D01*
X47857142Y-106190476D01*
X47666666Y-106380952D01*
X47476190Y-106476190D01*
X49571428Y-107904761D02*
X49952380Y-107904761D01*
X50142857Y-107809523D01*
X50238095Y-107714285D01*
X50428571Y-107428571D01*
X50523809Y-107047619D01*
X50523809Y-106285714D01*
X50428571Y-106095238D01*
X50333333Y-106000000D01*
X50142857Y-105904761D01*
X49761904Y-105904761D01*
X49571428Y-106000000D01*
X49476190Y-106095238D01*
X49380952Y-106285714D01*
X49380952Y-106761904D01*
X49476190Y-106952380D01*
X49571428Y-107047619D01*
X49761904Y-107142857D01*
X50142857Y-107142857D01*
X50333333Y-107047619D01*
X50428571Y-106952380D01*
X50523809Y-106761904D01*
X47476190Y-102095238D02*
X47571428Y-102000000D01*
X47761904Y-101904761D01*
X48238095Y-101904761D01*
X48428571Y-102000000D01*
X48523809Y-102095238D01*
X48619047Y-102285714D01*
X48619047Y-102476190D01*
X48523809Y-102761904D01*
X47380952Y-103904761D01*
X48619047Y-103904761D01*
X49857142Y-101904761D02*
X50047619Y-101904761D01*
X50238095Y-102000000D01*
X50333333Y-102095238D01*
X50428571Y-102285714D01*
X50523809Y-102666666D01*
X50523809Y-103142857D01*
X50428571Y-103523809D01*
X50333333Y-103714285D01*
X50238095Y-103809523D01*
X50047619Y-103904761D01*
X49857142Y-103904761D01*
X49666666Y-103809523D01*
X49571428Y-103714285D01*
X49476190Y-103523809D01*
X49380952Y-103142857D01*
X49380952Y-102666666D01*
X49476190Y-102285714D01*
X49571428Y-102095238D01*
X49666666Y-102000000D01*
X49857142Y-101904761D01*
X47476190Y-98095238D02*
X47571428Y-98000000D01*
X47761904Y-97904761D01*
X48238095Y-97904761D01*
X48428571Y-98000000D01*
X48523809Y-98095238D01*
X48619047Y-98285714D01*
X48619047Y-98476190D01*
X48523809Y-98761904D01*
X47380952Y-99904761D01*
X48619047Y-99904761D01*
X50523809Y-99904761D02*
X49380952Y-99904761D01*
X49952380Y-99904761D02*
X49952380Y-97904761D01*
X49761904Y-98190476D01*
X49571428Y-98380952D01*
X49380952Y-98476190D01*
X47476190Y-94095238D02*
X47571428Y-94000000D01*
X47761904Y-93904761D01*
X48238095Y-93904761D01*
X48428571Y-94000000D01*
X48523809Y-94095238D01*
X48619047Y-94285714D01*
X48619047Y-94476190D01*
X48523809Y-94761904D01*
X47380952Y-95904761D01*
X48619047Y-95904761D01*
X49380952Y-94095238D02*
X49476190Y-94000000D01*
X49666666Y-93904761D01*
X50142857Y-93904761D01*
X50333333Y-94000000D01*
X50428571Y-94095238D01*
X50523809Y-94285714D01*
X50523809Y-94476190D01*
X50428571Y-94761904D01*
X49285714Y-95904761D01*
X50523809Y-95904761D01*
X47476190Y-90095238D02*
X47571428Y-90000000D01*
X47761904Y-89904761D01*
X48238095Y-89904761D01*
X48428571Y-90000000D01*
X48523809Y-90095238D01*
X48619047Y-90285714D01*
X48619047Y-90476190D01*
X48523809Y-90761904D01*
X47380952Y-91904761D01*
X48619047Y-91904761D01*
X49285714Y-89904761D02*
X50523809Y-89904761D01*
X49857142Y-90666666D01*
X50142857Y-90666666D01*
X50333333Y-90761904D01*
X50428571Y-90857142D01*
X50523809Y-91047619D01*
X50523809Y-91523809D01*
X50428571Y-91714285D01*
X50333333Y-91809523D01*
X50142857Y-91904761D01*
X49571428Y-91904761D01*
X49380952Y-91809523D01*
X49285714Y-91714285D01*
X47476190Y-86095238D02*
X47571428Y-86000000D01*
X47761904Y-85904761D01*
X48238095Y-85904761D01*
X48428571Y-86000000D01*
X48523809Y-86095238D01*
X48619047Y-86285714D01*
X48619047Y-86476190D01*
X48523809Y-86761904D01*
X47380952Y-87904761D01*
X48619047Y-87904761D01*
X50333333Y-86571428D02*
X50333333Y-87904761D01*
X49857142Y-85809523D02*
X49380952Y-87238095D01*
X50619047Y-87238095D01*
X47476190Y-82095238D02*
X47571428Y-82000000D01*
X47761904Y-81904761D01*
X48238095Y-81904761D01*
X48428571Y-82000000D01*
X48523809Y-82095238D01*
X48619047Y-82285714D01*
X48619047Y-82476190D01*
X48523809Y-82761904D01*
X47380952Y-83904761D01*
X48619047Y-83904761D01*
X50428571Y-81904761D02*
X49476190Y-81904761D01*
X49380952Y-82857142D01*
X49476190Y-82761904D01*
X49666666Y-82666666D01*
X50142857Y-82666666D01*
X50333333Y-82761904D01*
X50428571Y-82857142D01*
X50523809Y-83047619D01*
X50523809Y-83523809D01*
X50428571Y-83714285D01*
X50333333Y-83809523D01*
X50142857Y-83904761D01*
X49666666Y-83904761D01*
X49476190Y-83809523D01*
X49380952Y-83714285D01*
M02*
